<svg xmlns="http://www.w3.org/2000/svg" xmlns:xlink="http://www.w3.org/1999/xlink" width="40" zoomAndPan="magnify" viewBox="0 0 30 30.000001" height="40" preserveAspectRatio="xMidYMid meet" version="1.0"><defs><clipPath id="7fee5fc80f"><path d="M 2 5 L 21 5 L 21 22 L 2 22 Z M 2 5 " clip-rule="nonzero"/></clipPath><clipPath id="035fe0ec2e"><path d="M 20.707031 10.121094 L 16.59375 21.542969 L 2.402344 16.433594 L 6.515625 5.011719 Z M 20.707031 10.121094 " clip-rule="nonzero"/></clipPath><clipPath id="b47095cedd"><path d="M 20.707031 10.121094 L 16.59375 21.542969 L 2.441406 16.449219 L 6.554688 5.023438 Z M 20.707031 10.121094 " clip-rule="nonzero"/></clipPath><clipPath id="a28d166420"><path d="M 2 5 L 21 5 L 21 22 L 2 22 Z M 2 5 " clip-rule="nonzero"/></clipPath><clipPath id="59fba2904e"><path d="M 20.707031 10.121094 L 16.527344 21.730469 L 2.183594 16.566406 L 6.363281 4.957031 Z M 20.707031 10.121094 " clip-rule="nonzero"/></clipPath><clipPath id="7e45a14f5d"><path d="M 20.703125 10.117188 L 16.59375 21.535156 L 2.320312 16.398438 L 6.429688 4.980469 Z M 20.703125 10.117188 " clip-rule="nonzero"/></clipPath><clipPath id="646ba5fd56"><path d="M 20.703125 10.117188 L 16.59375 21.535156 L 2.449219 16.445312 L 6.558594 5.027344 Z M 20.703125 10.117188 " clip-rule="nonzero"/></clipPath><clipPath id="824e8df2eb"><path d="M 15 10 L 28 10 L 28 24 L 15 24 Z M 15 10 " clip-rule="nonzero"/></clipPath><clipPath id="2e4fbf2493"><path d="M 27.554688 12.585938 L 23.429688 24.035156 L 15.148438 21.054688 L 19.273438 9.605469 Z M 27.554688 12.585938 " clip-rule="nonzero"/></clipPath><clipPath id="d4f95ccddd"><path d="M 27.0625 13.953125 L 23.933594 22.644531 C 23.660156 23.398438 22.828125 23.789062 22.074219 23.515625 L 16.527344 21.519531 C 15.773438 21.246094 15.378906 20.414062 15.652344 19.660156 L 18.78125 10.96875 C 19.054688 10.214844 19.882812 9.824219 20.640625 10.097656 L 26.1875 12.09375 C 26.941406 12.367188 27.332031 13.195312 27.0625 13.953125 Z M 27.0625 13.953125 " clip-rule="nonzero"/></clipPath><clipPath id="04cbd8cac9"><path d="M 15 10 L 28 10 L 28 24 L 15 24 Z M 15 10 " clip-rule="nonzero"/></clipPath><clipPath id="fd2237f7c6"><path d="M 27.554688 12.585938 L 23.375 24.195312 L 15.179688 21.246094 L 19.359375 9.636719 Z M 27.554688 12.585938 " clip-rule="nonzero"/></clipPath><clipPath id="53e5236452"><path d="M 27.550781 12.585938 L 23.441406 24.003906 L 15.058594 20.984375 L 19.167969 9.566406 Z M 27.550781 12.585938 " clip-rule="nonzero"/></clipPath><clipPath id="111232bed9"><path d="M 27.0625 13.949219 L 23.933594 22.636719 C 23.660156 23.390625 22.832031 23.78125 22.078125 23.511719 L 16.53125 21.515625 C 15.777344 21.242188 15.386719 20.410156 15.65625 19.65625 L 18.785156 10.96875 C 19.054688 10.214844 19.886719 9.824219 20.640625 10.097656 L 26.1875 12.09375 C 26.941406 12.363281 27.332031 13.195312 27.0625 13.949219 Z M 27.0625 13.949219 " clip-rule="nonzero"/></clipPath><clipPath id="a397ff1f95"><path d="M 12 6 L 29.515625 6 L 29.515625 27 L 12 27 Z M 12 6 " clip-rule="nonzero"/></clipPath><clipPath id="4bfc044a3f"><path d="M 14 2 L 29.515625 2 L 29.515625 21 L 14 21 Z M 14 2 " clip-rule="nonzero"/></clipPath><clipPath id="0f097aa672"><path d="M 10 13 L 28 13 L 28 29.03125 L 10 29.03125 Z M 10 13 " clip-rule="nonzero"/></clipPath></defs><g clip-path="url(#7fee5fc80f)"><g clip-path="url(#035fe0ec2e)"><g clip-path="url(#b47095cedd)"><path fill="#919191" d="M 20.707031 10.121094 L 16.59375 21.542969 L 2.449219 16.449219 L 6.558594 5.027344 Z M 20.707031 10.121094 " fill-opacity="1" fill-rule="nonzero"/></g></g></g><g clip-path="url(#a28d166420)"><g clip-path="url(#59fba2904e)"><g clip-path="url(#7e45a14f5d)"><g clip-path="url(#646ba5fd56)"><path stroke-linecap="butt" transform="matrix(-0.24587, 0.682893, -0.682893, -0.24587, 20.702853, 10.118951)" fill="none" stroke-linejoin="miter" d="M -0.00241229 0.000470824 L 16.716851 -0.00156508 L 16.720452 20.709798 L 0.00118905 20.711834 Z M -0.00241229 0.000470824 " stroke="#000000" stroke-width="4" stroke-opacity="1" stroke-miterlimit="4"/></g></g></g></g><g clip-path="url(#824e8df2eb)"><g clip-path="url(#2e4fbf2493)"><g clip-path="url(#d4f95ccddd)"><path fill="#919191" d="M 27.554688 12.585938 L 23.441406 24.003906 L 15.160156 21.023438 L 19.273438 9.605469 Z M 27.554688 12.585938 " fill-opacity="1" fill-rule="nonzero"/></g></g></g><g clip-path="url(#04cbd8cac9)"><g clip-path="url(#fd2237f7c6)"><g clip-path="url(#53e5236452)"><g clip-path="url(#111232bed9)"><path stroke-linecap="butt" transform="matrix(-0.24587, 0.682893, -0.682893, -0.24587, 27.552281, 12.58503)" fill="none" stroke-linejoin="miter" d="M 1.997015 -0.00179335 L 14.719114 -0.000440665 C 15.824036 0.00215167 16.716919 0.893348 16.71939 1.996447 L 16.720703 10.118586 C 16.718111 11.223508 15.821851 12.118214 14.718752 12.120686 L 1.996653 12.119333 C 0.893554 12.121805 -0.00115222 11.225544 0.00144011 10.120622 L 0.000127107 1.998483 C -0.0023443 0.895384 0.893916 0.000678052 1.997015 -0.00179335 Z M 1.997015 -0.00179335 " stroke="#000000" stroke-width="4" stroke-opacity="1" stroke-miterlimit="4"/></g></g></g></g><g clip-path="url(#a397ff1f95)"><path stroke-linecap="butt" transform="matrix(-0.24587, 0.682893, -0.682893, -0.24587, 22.750016, 15.08024)" fill="none" stroke-linejoin="miter" d="M 0.00236675 1.000197 L 5.773483 0.998768 " stroke="#000000" stroke-width="2" stroke-opacity="1" stroke-miterlimit="4"/></g><g clip-path="url(#4bfc044a3f)"><path stroke-linecap="butt" transform="matrix(-0.24587, 0.682893, -0.682893, -0.24587, 24.403075, 10.488938)" fill="none" stroke-linejoin="miter" d="M -0.000473126 1.002268 L 2.493552 1.002378 " stroke="#000000" stroke-width="2" stroke-opacity="1" stroke-miterlimit="4"/></g><g clip-path="url(#0f097aa672)"><path stroke-linecap="butt" transform="matrix(-0.24587, 0.682893, -0.682893, -0.24587, 20.290191, 21.912293)" fill="none" stroke-linejoin="miter" d="M 0.00285703 1.00165 L 2.496882 1.00176 " stroke="#000000" stroke-width="2" stroke-opacity="1" stroke-miterlimit="4"/></g></svg>