<svg xmlns="http://www.w3.org/2000/svg" xmlns:xlink="http://www.w3.org/1999/xlink" width="40" zoomAndPan="magnify" viewBox="0 0 30 30.000001" height="40" preserveAspectRatio="xMidYMid meet" version="1.0"><defs><clipPath id="a4b5bd68bc"><path d="M 8.929688 10.636719 L 21.070312 10.636719 L 21.070312 25.675781 L 8.929688 25.675781 Z M 8.929688 10.636719 " clip-rule="nonzero"/></clipPath><clipPath id="f059141916"><path d="M 8.929688 10.636719 L 21.0625 10.636719 L 21.0625 25.671875 L 8.929688 25.671875 Z M 8.929688 10.636719 " clip-rule="nonzero"/></clipPath><clipPath id="d4d5e9d812"><path d="M 8.929688 3.355469 L 21.101562 3.355469 L 21.101562 12.15625 L 8.929688 12.15625 Z M 8.929688 3.355469 " clip-rule="nonzero"/></clipPath><clipPath id="cf8e9aa60e"><path d="M 10.382812 3.355469 L 19.617188 3.355469 C 20.421875 3.355469 21.070312 4.007812 21.070312 4.808594 L 21.070312 10.707031 C 21.070312 11.507812 20.421875 12.15625 19.617188 12.15625 L 10.382812 12.15625 C 9.578125 12.15625 8.929688 11.507812 8.929688 10.707031 L 8.929688 4.808594 C 8.929688 4.007812 9.578125 3.355469 10.382812 3.355469 Z M 10.382812 3.355469 " clip-rule="nonzero"/></clipPath><clipPath id="7e3c3d1763"><path d="M 8.929688 3.359375 L 21.0625 3.359375 L 21.0625 12.066406 L 8.929688 12.066406 Z M 8.929688 3.359375 " clip-rule="nonzero"/></clipPath><clipPath id="a86f66e021"><path d="M 10.378906 3.359375 L 19.613281 3.359375 C 20.414062 3.359375 21.0625 4.007812 21.0625 4.808594 L 21.0625 10.703125 C 21.0625 11.503906 20.414062 12.15625 19.613281 12.15625 L 10.378906 12.15625 C 9.578125 12.15625 8.929688 11.503906 8.929688 10.703125 L 8.929688 4.808594 C 8.929688 4.007812 9.578125 3.359375 10.378906 3.359375 Z M 10.378906 3.359375 " clip-rule="nonzero"/></clipPath></defs><g clip-path="url(#a4b5bd68bc)"><path fill="#919191" d="M 8.929688 10.636719 L 21.070312 10.636719 L 21.070312 25.667969 L 8.929688 25.667969 Z M 8.929688 10.636719 " fill-opacity="1" fill-rule="nonzero"/></g><g clip-path="url(#f059141916)"><path stroke-linecap="butt" transform="matrix(0.725806, 0, 0, 0.725806, 8.929397, 10.638202)" fill="none" stroke-linejoin="miter" d="M 0.000400857 -0.00204302 L 16.71672 -0.00204302 L 16.71672 20.713061 L 0.000400857 20.713061 Z M 0.000400857 -0.00204302 " stroke="#000000" stroke-width="4" stroke-opacity="1" stroke-miterlimit="4"/></g><g clip-path="url(#d4d5e9d812)"><g clip-path="url(#cf8e9aa60e)"><path fill="#919191" d="M 8.929688 3.355469 L 21.066406 3.355469 L 21.066406 12.15625 L 8.929688 12.15625 Z M 8.929688 3.355469 " fill-opacity="1" fill-rule="nonzero"/></g></g><g clip-path="url(#7e3c3d1763)"><g clip-path="url(#a86f66e021)"><path stroke-linecap="butt" transform="matrix(0.725806, 0, 0, 0.725806, 8.929397, 3.358352)" fill="none" stroke-linejoin="miter" d="M 1.997102 0.00140966 L 14.720019 0.00140966 C 15.823318 0.00140966 16.71672 0.894812 16.71672 1.998111 L 16.71672 10.119465 C 16.71672 11.222764 15.823318 12.121549 14.720019 12.121549 L 1.997102 12.121549 C 0.893804 12.121549 0.000400857 11.222764 0.000400857 10.119465 L 0.000400857 1.998111 C 0.000400857 0.894812 0.893804 0.00140966 1.997102 0.00140966 Z M 1.997102 0.00140966 " stroke="#000000" stroke-width="4" stroke-opacity="1" stroke-miterlimit="4"/></g></g><path stroke-linecap="butt" transform="matrix(0.725806, 0.000000000000000112, -0.000000000000000112, 0.725806, 12.903865, 7.031422)" fill="none" stroke-linejoin="miter" d="M -0.00209568 1.000805 L 5.778113 1.000805 " stroke="#000000" stroke-width="2" stroke-opacity="1" stroke-miterlimit="4"/><path stroke-linecap="butt" transform="matrix(0.725806, 0, 0, 0.725806, 8.024043, 7.031422)" fill="none" stroke-linejoin="miter" d="M -0.000834905 1.000805 L 2.496387 1.000805 " stroke="#000000" stroke-width="2" stroke-opacity="1" stroke-miterlimit="4"/><path stroke-linecap="butt" transform="matrix(0.725806, 0.000000000000000517, -0.000000000000000517, 0.725806, 20.165248, 7.031422)" fill="none" stroke-linejoin="miter" d="M -0.00163335 1.000805 L 2.495589 1.000805 " stroke="#000000" stroke-width="2" stroke-opacity="1" stroke-miterlimit="4"/></svg>