<svg xmlns="http://www.w3.org/2000/svg" xmlns:xlink="http://www.w3.org/1999/xlink" width="40" zoomAndPan="magnify" viewBox="0 0 30 30.000001" height="40" preserveAspectRatio="xMidYMid meet" version="1.0"><defs><clipPath id="754df3e940"><path d="M 8 3 L 28 3 L 28 22 L 8 22 Z M 8 3 " clip-rule="nonzero"/></clipPath><clipPath id="a835466297"><path d="M 14.695312 21.714844 L 8.589844 11.21875 L 21.628906 3.636719 L 27.734375 14.128906 Z M 14.695312 21.714844 " clip-rule="nonzero"/></clipPath><clipPath id="9834c5dd35"><path d="M 14.695312 21.714844 L 8.589844 11.21875 L 21.59375 3.65625 L 27.695312 14.152344 Z M 14.695312 21.714844 " clip-rule="nonzero"/></clipPath><clipPath id="2b7fc09f7a"><path d="M 8 3 L 28 3 L 28 22 L 8 22 Z M 8 3 " clip-rule="nonzero"/></clipPath><clipPath id="f28412a903"><path d="M 14.695312 21.714844 L 8.492188 11.046875 L 21.667969 3.382812 L 27.871094 14.050781 Z M 14.695312 21.714844 " clip-rule="nonzero"/></clipPath><clipPath id="4fc83ff72a"><path d="M 14.699219 21.710938 L 8.597656 11.222656 L 21.707031 3.597656 L 27.808594 14.085938 Z M 14.699219 21.710938 " clip-rule="nonzero"/></clipPath><clipPath id="1f155455c2"><path d="M 14.699219 21.710938 L 8.597656 11.222656 L 21.589844 3.664062 L 27.691406 14.152344 Z M 14.699219 21.710938 " clip-rule="nonzero"/></clipPath><clipPath id="fe5b0001dc"><path d="M 2 10 L 16 10 L 16 25 L 2 25 Z M 2 10 " clip-rule="nonzero"/></clipPath><clipPath id="50450a4815"><path d="M 8.402344 25.371094 L 2.285156 14.851562 L 9.894531 10.425781 L 16.011719 20.949219 Z M 8.402344 25.371094 " clip-rule="nonzero"/></clipPath><clipPath id="bd379ae746"><path d="M 7.675781 24.117188 L 3.03125 16.132812 C 2.625 15.4375 2.859375 14.550781 3.554688 14.148438 L 8.652344 11.183594 C 9.347656 10.777344 10.234375 11.015625 10.636719 11.707031 L 15.28125 19.691406 C 15.683594 20.386719 15.449219 21.273438 14.757812 21.675781 L 9.660156 24.644531 C 8.964844 25.046875 8.078125 24.8125 7.675781 24.117188 Z M 7.675781 24.117188 " clip-rule="nonzero"/></clipPath><clipPath id="f368a54af3"><path d="M 2 10 L 16 10 L 16 25 L 2 25 Z M 2 10 " clip-rule="nonzero"/></clipPath><clipPath id="d0226489a6"><path d="M 8.402344 25.371094 L 2.199219 14.707031 L 9.730469 10.328125 L 15.933594 20.992188 Z M 8.402344 25.371094 " clip-rule="nonzero"/></clipPath><clipPath id="b7bde49989"><path d="M 8.40625 25.371094 L 2.304688 14.882812 L 10.007812 10.402344 L 16.109375 20.890625 Z M 8.40625 25.371094 " clip-rule="nonzero"/></clipPath><clipPath id="2abc51fbce"><path d="M 7.675781 24.117188 L 3.035156 16.136719 C 2.632812 15.445312 2.867188 14.554688 3.558594 14.152344 L 8.652344 11.1875 C 9.347656 10.785156 10.234375 11.019531 10.636719 11.714844 L 15.28125 19.695312 C 15.683594 20.386719 15.449219 21.277344 14.753906 21.679688 L 9.660156 24.640625 C 8.96875 25.046875 8.078125 24.808594 7.675781 24.117188 Z M 7.675781 24.117188 " clip-rule="nonzero"/></clipPath><clipPath id="b39ae6c9d5"><path d="M 0.484375 7 L 19 7 L 19 28 L 0.484375 28 Z M 0.484375 7 " clip-rule="nonzero"/></clipPath><clipPath id="66c583fa61"><path d="M 3 14 L 21 14 L 21 29.03125 L 3 29.03125 Z M 3 14 " clip-rule="nonzero"/></clipPath><clipPath id="b4b24f9f12"><path d="M 0.484375 3 L 15 3 L 15 22 L 0.484375 22 Z M 0.484375 3 " clip-rule="nonzero"/></clipPath></defs><g clip-path="url(#754df3e940)"><g clip-path="url(#a835466297)"><g clip-path="url(#9834c5dd35)"><path fill="#919191" d="M 14.695312 21.714844 L 8.589844 11.21875 L 21.585938 3.660156 L 27.691406 14.152344 Z M 14.695312 21.714844 " fill-opacity="1" fill-rule="nonzero"/></g></g></g><g clip-path="url(#2b7fc09f7a)"><g clip-path="url(#f28412a903)"><g clip-path="url(#4fc83ff72a)"><g clip-path="url(#1f155455c2)"><path stroke-linecap="butt" transform="matrix(-0.364919, -0.627399, 0.627399, -0.364919, 14.698217, 21.711618)" fill="none" stroke-linejoin="miter" d="M 0.000115651 0.00166472 L 16.718023 0.000256363 L 16.720224 20.709557 L 0.00231593 20.710966 Z M 0.000115651 0.00166472 " stroke="#000000" stroke-width="4" stroke-opacity="1" stroke-miterlimit="4"/></g></g></g></g><g clip-path="url(#fe5b0001dc)"><g clip-path="url(#50450a4815)"><g clip-path="url(#bd379ae746)"><path fill="#919191" d="M 8.402344 25.371094 L 2.300781 14.882812 L 9.910156 10.457031 L 16.011719 20.949219 Z M 8.402344 25.371094 " fill-opacity="1" fill-rule="nonzero"/></g></g></g><g clip-path="url(#f368a54af3)"><g clip-path="url(#d0226489a6)"><g clip-path="url(#b7bde49989)"><g clip-path="url(#2abc51fbce)"><path stroke-linecap="butt" transform="matrix(-0.364919, -0.627399, 0.627399, -0.364919, 8.405396, 25.371759)" fill="none" stroke-linejoin="miter" d="M 1.999576 0.00010913 L 14.718732 0.00143901 C 15.820888 0.00120582 16.719244 0.89729 16.719477 1.999446 L 16.72201 10.119758 C 16.719537 11.226566 15.826159 12.12027 14.719351 12.117797 L 1.997489 12.121119 C 0.895333 12.121352 -0.00302275 11.225269 -0.000550025 10.11846 L 0.00156946 2.000854 C -0.00331597 0.895992 0.89742 0.000342319 1.999576 0.00010913 Z M 1.999576 0.00010913 " stroke="#000000" stroke-width="4" stroke-opacity="1" stroke-miterlimit="4"/></g></g></g></g><g clip-path="url(#b39ae6c9d5)"><path stroke-linecap="butt" transform="matrix(-0.364919, -0.627399, 0.627399, -0.364919, 9.582187, 20.089431)" fill="none" stroke-linejoin="miter" d="M 0.00127416 1.002896 L 5.775096 0.999073 " stroke="#000000" stroke-width="2" stroke-opacity="1" stroke-miterlimit="4"/></g><g clip-path="url(#66c583fa61)"><path stroke-linecap="butt" transform="matrix(-0.364919, -0.627399, 0.627399, -0.364919, 12.035648, 24.307627)" fill="none" stroke-linejoin="miter" d="M 0.000846389 1.002111 L 2.492221 1.000507 " stroke="#000000" stroke-width="2" stroke-opacity="1" stroke-miterlimit="4"/></g><g clip-path="url(#b4b24f9f12)"><path stroke-linecap="butt" transform="matrix(-0.364919, -0.627399, 0.627399, -0.364919, 5.931329, 13.812574)" fill="none" stroke-linejoin="miter" d="M -0.00177005 0.998757 L 2.494257 0.999859 " stroke="#000000" stroke-width="2" stroke-opacity="1" stroke-miterlimit="4"/></g></svg>