<svg xmlns="http://www.w3.org/2000/svg" xmlns:xlink="http://www.w3.org/1999/xlink" width="40" zoomAndPan="magnify" viewBox="0 0 30 30.000001" height="40" preserveAspectRatio="xMidYMid meet" version="1.0"><defs><clipPath id="86f8797e35"><path d="M 2 6 L 20 6 L 20 22 L 2 22 Z M 2 6 " clip-rule="nonzero"/></clipPath><clipPath id="1ca99a6248"><path d="M 19.902344 9.238281 L 17.730469 21.183594 L 2.890625 18.484375 L 5.066406 6.539062 Z M 19.902344 9.238281 " clip-rule="nonzero"/></clipPath><clipPath id="e95426d8b6"><path d="M 19.902344 9.238281 L 17.730469 21.183594 L 2.933594 18.492188 L 5.105469 6.546875 Z M 19.902344 9.238281 " clip-rule="nonzero"/></clipPath><clipPath id="7a875be89b"><path d="M 2 6 L 20 6 L 20 22 L 2 22 Z M 2 6 " clip-rule="nonzero"/></clipPath><clipPath id="a9de1b4fce"><path d="M 19.902344 9.238281 L 17.695312 21.378906 L 2.699219 18.648438 L 4.90625 6.511719 Z M 19.902344 9.238281 " clip-rule="nonzero"/></clipPath><clipPath id="b8b0ef2f59"><path d="M 19.898438 9.238281 L 17.726562 21.175781 L 2.804688 18.460938 L 4.976562 6.523438 Z M 19.898438 9.238281 " clip-rule="nonzero"/></clipPath><clipPath id="a19a8c5b72"><path d="M 19.898438 9.238281 L 17.726562 21.175781 L 2.9375 18.484375 L 5.109375 6.546875 Z M 19.898438 9.238281 " clip-rule="nonzero"/></clipPath><clipPath id="6eb26da439"><path d="M 16 9 L 27 9 L 27 23 L 16 23 Z M 16 9 " clip-rule="nonzero"/></clipPath><clipPath id="2f0e69c142"><path d="M 27.0625 10.542969 L 24.886719 22.515625 L 16.226562 20.941406 L 18.40625 8.964844 Z M 27.0625 10.542969 " clip-rule="nonzero"/></clipPath><clipPath id="67ccf24df7"><path d="M 26.804688 11.96875 L 25.152344 21.058594 C 25.007812 21.847656 24.25 22.371094 23.460938 22.226562 L 17.660156 21.171875 C 16.871094 21.027344 16.347656 20.273438 16.492188 19.484375 L 18.144531 10.394531 C 18.289062 9.605469 19.042969 9.082031 19.832031 9.226562 L 25.636719 10.28125 C 26.425781 10.425781 26.949219 11.183594 26.804688 11.96875 Z M 26.804688 11.96875 " clip-rule="nonzero"/></clipPath><clipPath id="8f89b58446"><path d="M 16 9 L 27 9 L 27 23 L 16 23 Z M 16 9 " clip-rule="nonzero"/></clipPath><clipPath id="92379999c3"><path d="M 27.0625 10.542969 L 24.855469 22.683594 L 16.285156 21.121094 L 18.496094 8.984375 Z M 27.0625 10.542969 " clip-rule="nonzero"/></clipPath><clipPath id="10e4d61803"><path d="M 27.0625 10.542969 L 24.890625 22.480469 L 16.121094 20.886719 L 18.292969 8.945312 Z M 27.0625 10.542969 " clip-rule="nonzero"/></clipPath><clipPath id="79599fc481"><path d="M 26.800781 11.96875 L 25.148438 21.054688 C 25.007812 21.839844 24.25 22.363281 23.460938 22.222656 L 17.664062 21.164062 C 16.875 21.023438 16.351562 20.265625 16.496094 19.476562 L 18.148438 10.394531 C 18.292969 9.605469 19.046875 9.082031 19.835938 9.226562 L 25.636719 10.28125 C 26.421875 10.425781 26.945312 11.179688 26.800781 11.96875 Z M 26.800781 11.96875 " clip-rule="nonzero"/></clipPath><clipPath id="fddfcba645"><path d="M 13 5 L 29.515625 5 L 29.515625 26 L 13 26 Z M 13 5 " clip-rule="nonzero"/></clipPath><clipPath id="6a67677978"><path d="M 14 0 L 29.515625 0 L 29.515625 19 L 14 19 Z M 14 0 " clip-rule="nonzero"/></clipPath><clipPath id="1e4aa76f3f"><path d="M 12 12 L 29 12 L 29 29.03125 L 12 29.03125 Z M 12 12 " clip-rule="nonzero"/></clipPath></defs><g clip-path="url(#86f8797e35)"><g clip-path="url(#1ca99a6248)"><g clip-path="url(#e95426d8b6)"><path fill="#919191" d="M 19.902344 9.238281 L 17.730469 21.183594 L 2.9375 18.492188 L 5.113281 6.546875 Z M 19.902344 9.238281 " fill-opacity="1" fill-rule="nonzero"/></g></g></g><g clip-path="url(#7a875be89b)"><g clip-path="url(#a9de1b4fce)"><g clip-path="url(#b8b0ef2f59)"><g clip-path="url(#a19a8c5b72)"><path stroke-linecap="butt" transform="matrix(-0.12993, 0.714082, -0.714082, -0.12993, 19.899989, 9.23875)" fill="none" stroke-linejoin="miter" d="M -0.000252706 0.00221817 L 16.716964 0.00194063 L 16.716323 20.71265 L -0.000893028 20.712928 Z M -0.000252706 0.00221817 " stroke="#000000" stroke-width="4" stroke-opacity="1" stroke-miterlimit="4"/></g></g></g></g><g clip-path="url(#6eb26da439)"><g clip-path="url(#2f0e69c142)"><g clip-path="url(#67ccf24df7)"><path fill="#919191" d="M 27.0625 10.542969 L 24.890625 22.484375 L 16.230469 20.90625 L 18.40625 8.964844 Z M 27.0625 10.542969 " fill-opacity="1" fill-rule="nonzero"/></g></g></g><g clip-path="url(#8f89b58446)"><g clip-path="url(#92379999c3)"><g clip-path="url(#10e4d61803)"><g clip-path="url(#79599fc481)"><path stroke-linecap="butt" transform="matrix(-0.12993, 0.714082, -0.714082, -0.12993, 27.062245, 10.541953)" fill="none" stroke-linejoin="miter" d="M 1.998542 0.00251034 L 14.722265 0.00131495 C 15.821245 -0.00171813 16.717685 0.896411 16.721682 2.000686 L 16.716494 10.11957 C 16.72049 11.223845 15.822362 12.120285 14.717123 12.118987 L 1.998694 12.119219 C 0.893456 12.11792 -0.00202095 11.225086 -0.000722476 10.119848 L -0.00179297 1.996632 C 0.000468952 0.896688 0.893303 0.00121186 1.998542 0.00251034 Z M 1.998542 0.00251034 " stroke="#000000" stroke-width="4" stroke-opacity="1" stroke-miterlimit="4"/></g></g></g></g><g clip-path="url(#fddfcba645)"><path stroke-linecap="butt" transform="matrix(-0.12993, 0.714082, -0.714082, -0.12993, 22.737018, 13.794683)" fill="none" stroke-linejoin="miter" d="M -0.0010598 0.999491 L 5.775449 0.998729 " stroke="#000000" stroke-width="2" stroke-opacity="1" stroke-miterlimit="4"/></g><g clip-path="url(#6a67677978)"><path stroke-linecap="butt" transform="matrix(-0.12993, 0.714082, -0.714082, -0.12993, 23.61058, 8.99369)" fill="none" stroke-linejoin="miter" d="M -0.00112688 0.997489 L 2.493362 0.997642 " stroke="#000000" stroke-width="2" stroke-opacity="1" stroke-miterlimit="4"/></g><g clip-path="url(#1e4aa76f3f)"><path stroke-linecap="butt" transform="matrix(-0.12993, 0.714082, -0.714082, -0.12993, 21.437121, 20.93877)" fill="none" stroke-linejoin="miter" d="M -0.000238982 1.00058 L 2.49425 1.000732 " stroke="#000000" stroke-width="2" stroke-opacity="1" stroke-miterlimit="4"/></g></svg>