<svg xmlns="http://www.w3.org/2000/svg" xmlns:xlink="http://www.w3.org/1999/xlink" width="40" zoomAndPan="magnify" viewBox="0 0 30 30.000001" height="40" preserveAspectRatio="xMidYMid meet" version="1.0"><defs><clipPath id="1064a2d0ba"><path d="M 8 2 L 23 2 L 23 20 L 8 20 Z M 8 2 " clip-rule="nonzero"/></clipPath><clipPath id="62f7115480"><path d="M 20.289062 19.402344 L 8.339844 17.265625 L 10.992188 2.421875 L 22.945312 4.558594 Z M 20.289062 19.402344 " clip-rule="nonzero"/></clipPath><clipPath id="4b2b62ad15"><path d="M 20.289062 19.402344 L 8.339844 17.265625 L 10.988281 2.460938 L 22.9375 4.597656 Z M 20.289062 19.402344 " clip-rule="nonzero"/></clipPath><clipPath id="eed11868fa"><path d="M 8 2 L 23 2 L 23 20 L 8 20 Z M 8 2 " clip-rule="nonzero"/></clipPath><clipPath id="f680c0dc63"><path d="M 20.289062 19.402344 L 8.144531 17.230469 L 10.828125 2.226562 L 22.972656 4.398438 Z M 20.289062 19.402344 " clip-rule="nonzero"/></clipPath><clipPath id="177acc442d"><path d="M 20.289062 19.402344 L 8.34375 17.265625 L 11.015625 2.332031 L 22.960938 4.46875 Z M 20.289062 19.402344 " clip-rule="nonzero"/></clipPath><clipPath id="aeff283c8d"><path d="M 20.289062 19.402344 L 8.34375 17.265625 L 10.992188 2.46875 L 22.9375 4.605469 Z M 20.289062 19.402344 " clip-rule="nonzero"/></clipPath><clipPath id="5857667a1b"><path d="M 7 16 L 21 16 L 21 27 L 7 27 Z M 7 16 " clip-rule="nonzero"/></clipPath><clipPath id="0b3f974bee"><path d="M 19.007812 26.570312 L 7.027344 24.425781 L 8.578125 15.761719 L 20.558594 17.90625 Z M 19.007812 26.570312 " clip-rule="nonzero"/></clipPath><clipPath id="27ee2b0c1b"><path d="M 17.578125 26.3125 L 8.484375 24.6875 C 7.695312 24.546875 7.171875 23.792969 7.3125 23.003906 L 8.351562 17.195312 C 8.492188 16.40625 9.246094 15.882812 10.035156 16.023438 L 19.128906 17.648438 C 19.917969 17.789062 20.445312 18.546875 20.300781 19.335938 L 19.265625 25.140625 C 19.121094 25.929688 18.367188 26.453125 17.578125 26.3125 Z M 17.578125 26.3125 " clip-rule="nonzero"/></clipPath><clipPath id="699598966d"><path d="M 7 16 L 21 16 L 21 27 L 7 27 Z M 7 16 " clip-rule="nonzero"/></clipPath><clipPath id="b9245a36dc"><path d="M 19.007812 26.570312 L 6.863281 24.398438 L 8.394531 15.824219 L 20.542969 17.996094 Z M 19.007812 26.570312 " clip-rule="nonzero"/></clipPath><clipPath id="8989fd4c7d"><path d="M 19.007812 26.566406 L 7.0625 24.429688 L 8.632812 15.660156 L 20.578125 17.796875 Z M 19.007812 26.566406 " clip-rule="nonzero"/></clipPath><clipPath id="f65beae3f3"><path d="M 17.582031 26.3125 L 8.492188 24.6875 C 7.703125 24.546875 7.179688 23.792969 7.320312 23.003906 L 8.355469 17.199219 C 8.496094 16.410156 9.25 15.886719 10.039062 16.027344 L 19.128906 17.652344 C 19.917969 17.792969 20.441406 18.546875 20.300781 19.335938 L 19.265625 25.140625 C 19.121094 25.929688 18.367188 26.453125 17.582031 26.3125 Z M 17.582031 26.3125 " clip-rule="nonzero"/></clipPath><clipPath id="b1ad2b217b"><path d="M 3 12 L 25 12 L 25 29.03125 L 3 29.03125 Z M 3 12 " clip-rule="nonzero"/></clipPath><clipPath id="c125bc4fd7"><path d="M 10 13 L 29 13 L 29 29.03125 L 10 29.03125 Z M 10 13 " clip-rule="nonzero"/></clipPath><clipPath id="962c89086b"><path d="M 0.484375 11 L 17 11 L 17 29 L 0.484375 29 Z M 0.484375 11 " clip-rule="nonzero"/></clipPath></defs><g clip-path="url(#1064a2d0ba)"><g clip-path="url(#62f7115480)"><g clip-path="url(#4b2b62ad15)"><path fill="#919191" d="M 20.289062 19.402344 L 8.339844 17.265625 L 10.984375 2.46875 L 22.9375 4.605469 Z M 20.289062 19.402344 " fill-opacity="1" fill-rule="nonzero"/></g></g></g><g clip-path="url(#eed11868fa)"><g clip-path="url(#f680c0dc63)"><g clip-path="url(#177acc442d)"><g clip-path="url(#aeff283c8d)"><path stroke-linecap="butt" transform="matrix(-0.714468, -0.127792, 0.127792, -0.714468, 20.29025, 19.401347)" fill="none" stroke-linejoin="miter" d="M 0.00136806 -0.00164003 L 16.720577 -0.00145768 L 16.71812 20.709328 L -0.00108923 20.709146 Z M 0.00136806 -0.00164003 " stroke="#000000" stroke-width="4" stroke-opacity="1" stroke-miterlimit="4"/></g></g></g></g><g clip-path="url(#5857667a1b)"><g clip-path="url(#0b3f974bee)"><g clip-path="url(#27ee2b0c1b)"><path fill="#919191" d="M 19.007812 26.570312 L 7.0625 24.433594 L 8.609375 15.769531 L 20.558594 17.90625 Z M 19.007812 26.570312 " fill-opacity="1" fill-rule="nonzero"/></g></g></g><g clip-path="url(#699598966d)"><g clip-path="url(#b9245a36dc)"><g clip-path="url(#8989fd4c7d)"><g clip-path="url(#f65beae3f3)"><path stroke-linecap="butt" transform="matrix(-0.714468, -0.127792, 0.127792, -0.714468, 19.008487, 26.56747)" fill="none" stroke-linejoin="miter" d="M 1.996488 -0.000232257 L 14.718821 -0.00137725 C 15.823104 -0.00206858 16.715904 0.893442 16.716595 1.997724 L 16.720789 10.121466 C 16.721481 11.225748 15.82597 12.118548 14.721688 12.119239 L 1.999354 12.120384 C 0.895072 12.121076 0.00227175 11.225566 0.00158042 10.121283 L -0.00261361 1.997542 C 0.00199292 0.892312 0.897503 -0.00048852 1.996488 -0.000232257 Z M 1.996488 -0.000232257 " stroke="#000000" stroke-width="4" stroke-opacity="1" stroke-miterlimit="4"/></g></g></g></g><g clip-path="url(#b1ad2b217b)"><path stroke-linecap="butt" transform="matrix(-0.714468, -0.127792, 0.127792, -0.714468, 15.742828, 22.251998)" fill="none" stroke-linejoin="miter" d="M -0.00101427 0.998037 L 5.777926 0.997724 " stroke="#000000" stroke-width="2" stroke-opacity="1" stroke-miterlimit="4"/></g><g clip-path="url(#c125bc4fd7)"><path stroke-linecap="butt" transform="matrix(-0.714468, -0.127792, 0.127792, -0.714468, 20.546413, 23.111185)" fill="none" stroke-linejoin="miter" d="M -0.00255382 0.99805 L 2.496274 0.999423 " stroke="#000000" stroke-width="2" stroke-opacity="1" stroke-miterlimit="4"/></g><g clip-path="url(#962c89086b)"><path stroke-linecap="butt" transform="matrix(-0.714468, -0.127792, 0.127792, -0.714468, 8.594882, 20.973489)" fill="none" stroke-linejoin="miter" d="M 0.00031845 1.001634 L 2.492901 0.998657 " stroke="#000000" stroke-width="2" stroke-opacity="1" stroke-miterlimit="4"/></g></svg>