<svg xmlns="http://www.w3.org/2000/svg" xmlns:xlink="http://www.w3.org/1999/xlink" width="40" zoomAndPan="magnify" viewBox="0 0 30 30.000001" height="40" preserveAspectRatio="xMidYMid meet" version="1.0"><defs><clipPath id="303601f436"><path d="M 7 8 L 26 8 L 26 28 L 7 28 Z M 7 8 " clip-rule="nonzero"/></clipPath><clipPath id="d88eaebfc8"><path d="M 7.804688 14.15625 L 18.347656 8.132812 L 25.828125 21.230469 L 15.285156 27.253906 Z M 7.804688 14.15625 " clip-rule="nonzero"/></clipPath><clipPath id="4eb5402959"><path d="M 7.804688 14.15625 L 18.347656 8.132812 L 25.808594 21.195312 L 15.265625 27.214844 Z M 7.804688 14.15625 " clip-rule="nonzero"/></clipPath><clipPath id="679a96e116"><path d="M 7 8 L 26 8 L 26 28 L 7 28 Z M 7 8 " clip-rule="nonzero"/></clipPath><clipPath id="6452a87e80"><path d="M 7.804688 14.15625 L 18.515625 8.035156 L 26.078125 21.269531 L 15.363281 27.390625 Z M 7.804688 14.15625 " clip-rule="nonzero"/></clipPath><clipPath id="4f3fd62192"><path d="M 7.804688 14.160156 L 18.339844 8.140625 L 25.867188 21.3125 L 15.328125 27.328125 Z M 7.804688 14.160156 " clip-rule="nonzero"/></clipPath><clipPath id="bfb28795eb"><path d="M 7.804688 14.160156 L 18.339844 8.140625 L 25.796875 21.191406 L 15.261719 27.210938 Z M 7.804688 14.160156 " clip-rule="nonzero"/></clipPath><clipPath id="328b9ef1f8"><path d="M 4 2 L 19 2 L 19 15 L 4 15 Z M 4 2 " clip-rule="nonzero"/></clipPath><clipPath id="46024267fe"><path d="M 4.191406 7.835938 L 14.761719 1.800781 L 19.128906 9.441406 L 8.558594 15.480469 Z M 4.191406 7.835938 " clip-rule="nonzero"/></clipPath><clipPath id="e9fe0d1326"><path d="M 5.453125 7.117188 L 13.476562 2.535156 C 14.171875 2.136719 15.058594 2.378906 15.457031 3.074219 L 18.382812 8.195312 C 18.777344 8.890625 18.535156 9.777344 17.839844 10.175781 L 9.820312 14.757812 C 9.125 15.15625 8.238281 14.914062 7.839844 14.21875 L 4.914062 9.097656 C 4.515625 8.402344 4.757812 7.515625 5.453125 7.117188 Z M 5.453125 7.117188 " clip-rule="nonzero"/></clipPath><clipPath id="206df193e7"><path d="M 4 2 L 19 2 L 19 15 L 4 15 Z M 4 2 " clip-rule="nonzero"/></clipPath><clipPath id="d25963d8eb"><path d="M 4.191406 7.835938 L 14.90625 1.714844 L 19.226562 9.277344 L 8.511719 15.398438 Z M 4.191406 7.835938 " clip-rule="nonzero"/></clipPath><clipPath id="893fffe8da"><path d="M 4.195312 7.839844 L 14.730469 1.820312 L 19.152344 9.558594 L 8.613281 15.574219 Z M 4.195312 7.839844 " clip-rule="nonzero"/></clipPath><clipPath id="91e64dafea"><path d="M 5.453125 7.117188 L 13.472656 2.539062 C 14.167969 2.140625 15.054688 2.382812 15.449219 3.078125 L 18.375 8.199219 C 18.773438 8.894531 18.53125 9.78125 17.835938 10.175781 L 9.816406 14.757812 C 9.121094 15.15625 8.234375 14.914062 7.839844 14.21875 L 4.914062 9.097656 C 4.515625 8.402344 4.757812 7.515625 5.453125 7.117188 Z M 5.453125 7.117188 " clip-rule="nonzero"/></clipPath><clipPath id="c313808a73"><path d="M 0.484375 2 L 16 2 L 16 21 L 0.484375 21 Z M 0.484375 2 " clip-rule="nonzero"/></clipPath></defs><g clip-path="url(#303601f436)"><g clip-path="url(#d88eaebfc8)"><g clip-path="url(#4eb5402959)"><path fill="#919191" d="M 7.804688 14.15625 L 18.347656 8.132812 L 25.804688 21.1875 L 15.261719 27.210938 Z M 7.804688 14.15625 " fill-opacity="1" fill-rule="nonzero"/></g></g></g><g clip-path="url(#679a96e116)"><g clip-path="url(#6452a87e80)"><g clip-path="url(#4f3fd62192)"><g clip-path="url(#bfb28795eb)"><path stroke-linecap="butt" transform="matrix(0.630215, -0.360033, 0.360033, 0.630215, 7.805284, 14.159489)" fill="none" stroke-linejoin="miter" d="M -0.00116977 0.000390751 L 16.716235 -0.000733265 L 16.717787 20.708609 L 0.000382053 20.709733 Z M -0.00116977 0.000390751 " stroke="#000000" stroke-width="4" stroke-opacity="1" stroke-miterlimit="4"/></g></g></g></g><g clip-path="url(#328b9ef1f8)"><g clip-path="url(#46024267fe)"><g clip-path="url(#e9fe0d1326)"><path fill="#919191" d="M 4.191406 7.835938 L 14.730469 1.816406 L 19.097656 9.457031 L 8.558594 15.480469 Z M 4.191406 7.835938 " fill-opacity="1" fill-rule="nonzero"/></g></g></g><g clip-path="url(#206df193e7)"><g clip-path="url(#d25963d8eb)"><g clip-path="url(#893fffe8da)"><g clip-path="url(#91e64dafea)"><path stroke-linecap="butt" transform="matrix(0.630215, -0.360033, 0.360033, 0.630215, 4.194145, 7.838422)" fill="none" stroke-linejoin="miter" d="M 1.999064 -0.00238788 L 14.721862 0.00158903 C 15.825986 0.000135611 16.721264 0.895889 16.718044 1.997344 L 16.718248 10.123406 C 16.719701 11.22753 15.823948 12.122808 14.722493 12.119588 L 1.997025 12.120284 C 0.892901 12.121738 -0.00237706 11.225984 0.000842642 10.12453 L 0.000639339 1.998468 C -0.000814083 0.894343 0.894939 -0.000934457 1.999064 -0.00238788 Z M 1.999064 -0.00238788 " stroke="#000000" stroke-width="4" stroke-opacity="1" stroke-miterlimit="4"/></g></g></g></g><path stroke-linecap="butt" transform="matrix(0.630215, -0.360033, 0.360033, 0.630215, 9.467171, 9.056218)" fill="none" stroke-linejoin="miter" d="M 0.00037215 1.001905 L 5.778668 0.999283 " stroke="#000000" stroke-width="2" stroke-opacity="1" stroke-miterlimit="4"/><g clip-path="url(#c313808a73)"><path stroke-linecap="butt" transform="matrix(0.630215, -0.360033, 0.360033, 0.630215, 5.230041, 11.476832)" fill="none" stroke-linejoin="miter" d="M 0.000802802 0.997954 L 2.4981 0.999021 " stroke="#000000" stroke-width="2" stroke-opacity="1" stroke-miterlimit="4"/></g><path stroke-linecap="butt" transform="matrix(0.630215, -0.360033, 0.360033, 0.630215, 15.772204, 5.454238)" fill="none" stroke-linejoin="miter" d="M -0.000326113 1.00217 L 2.492298 1.000567 " stroke="#000000" stroke-width="2" stroke-opacity="1" stroke-miterlimit="4"/></svg>