<svg xmlns="http://www.w3.org/2000/svg" xmlns:xlink="http://www.w3.org/1999/xlink" width="40" zoomAndPan="magnify" viewBox="0 0 30 30.000001" height="40" preserveAspectRatio="xMidYMid meet" version="1.0"><defs><clipPath id="15ab32a361"><path d="M 2 7 L 22 7 L 22 27 L 2 27 Z M 2 7 " clip-rule="nonzero"/></clipPath><clipPath id="5132905995"><path d="M 14.011719 7.378906 L 21.890625 16.617188 L 10.417969 26.40625 L 2.539062 17.171875 Z M 14.011719 7.378906 " clip-rule="nonzero"/></clipPath><clipPath id="3cc8f6b95e"><path d="M 14.011719 7.378906 L 21.890625 16.617188 L 10.453125 26.378906 L 2.570312 17.144531 Z M 14.011719 7.378906 " clip-rule="nonzero"/></clipPath><clipPath id="02bd863df8"><path d="M 2 7 L 22 7 L 22 27 L 2 27 Z M 2 7 " clip-rule="nonzero"/></clipPath><clipPath id="f9f7d8d5fa"><path d="M 14.011719 7.378906 L 22.019531 16.765625 L 10.425781 26.660156 L 2.417969 17.273438 Z M 14.011719 7.378906 " clip-rule="nonzero"/></clipPath><clipPath id="9e935f37a5"><path d="M 14.007812 7.382812 L 21.886719 16.613281 L 10.347656 26.457031 L 2.46875 17.226562 Z M 14.007812 7.382812 " clip-rule="nonzero"/></clipPath><clipPath id="259e9f6990"><path d="M 14.007812 7.382812 L 21.886719 16.613281 L 10.449219 26.371094 L 2.574219 17.140625 Z M 14.007812 7.382812 " clip-rule="nonzero"/></clipPath><clipPath id="146729ae34"><path d="M 13 3 L 27 3 L 27 18 L 13 18 Z M 13 3 " clip-rule="nonzero"/></clipPath><clipPath id="f1d24e28ea"><path d="M 19.546875 2.65625 L 27.449219 11.914062 L 20.753906 17.625 L 12.851562 8.367188 Z M 19.546875 2.65625 " clip-rule="nonzero"/></clipPath><clipPath id="146ad27f88"><path d="M 20.488281 3.757812 L 26.488281 10.785156 C 27.007812 11.394531 26.933594 12.3125 26.324219 12.832031 L 21.839844 16.660156 C 21.226562 17.183594 20.3125 17.109375 19.792969 16.5 L 13.792969 9.472656 C 13.273438 8.863281 13.347656 7.945312 13.957031 7.425781 L 18.441406 3.597656 C 19.054688 3.078125 19.96875 3.148438 20.488281 3.757812 Z M 20.488281 3.757812 " clip-rule="nonzero"/></clipPath><clipPath id="b74ef9c9f6"><path d="M 13 3 L 27 3 L 27 18 L 13 18 Z M 13 3 " clip-rule="nonzero"/></clipPath><clipPath id="551fb6193b"><path d="M 19.546875 2.65625 L 27.558594 12.039062 L 20.933594 17.695312 L 12.921875 8.308594 Z M 19.546875 2.65625 " clip-rule="nonzero"/></clipPath><clipPath id="e25a6aae9c"><path d="M 19.546875 2.65625 L 27.421875 11.886719 L 20.644531 17.671875 L 12.765625 8.441406 Z M 19.546875 2.65625 " clip-rule="nonzero"/></clipPath><clipPath id="ed9317510b"><path d="M 20.488281 3.761719 L 26.480469 10.78125 C 27 11.394531 26.929688 12.308594 26.320312 12.828125 L 21.835938 16.65625 C 21.226562 17.175781 20.308594 17.101562 19.789062 16.492188 L 13.796875 9.46875 C 13.277344 8.859375 13.347656 7.945312 13.957031 7.425781 L 18.441406 3.597656 C 19.050781 3.078125 19.96875 3.152344 20.488281 3.761719 Z M 20.488281 3.761719 " clip-rule="nonzero"/></clipPath><clipPath id="d59bff1f28"><path d="M 10 0 L 29.515625 0 L 29.515625 20 L 10 20 Z M 10 0 " clip-rule="nonzero"/></clipPath><clipPath id="30ee78163e"><path d="M 15 5 L 29.515625 5 L 29.515625 24 L 15 24 Z M 15 5 " clip-rule="nonzero"/></clipPath></defs><g clip-path="url(#15ab32a361)"><g clip-path="url(#5132905995)"><g clip-path="url(#3cc8f6b95e)"><path fill="#919191" d="M 14.011719 7.378906 L 21.890625 16.617188 L 10.457031 26.375 L 2.574219 17.140625 Z M 14.011719 7.378906 " fill-opacity="1" fill-rule="nonzero"/></g></g></g><g clip-path="url(#02bd863df8)"><g clip-path="url(#f9f7d8d5fa)"><g clip-path="url(#9e935f37a5)"><g clip-path="url(#259e9f6990)"><path stroke-linecap="butt" transform="matrix(0.471155, 0.552094, -0.552094, 0.471155, 14.008309, 7.382045)" fill="none" stroke-linejoin="miter" d="M 0.000360674 0.00120673 L 16.720857 -0.000530729 L 16.717809 20.713445 L 0.000806341 20.711088 Z M 0.000360674 0.00120673 " stroke="#000000" stroke-width="4" stroke-opacity="1" stroke-miterlimit="4"/></g></g></g></g><g clip-path="url(#146729ae34)"><g clip-path="url(#f1d24e28ea)"><g clip-path="url(#146ad27f88)"><path fill="#919191" d="M 19.546875 2.65625 L 27.425781 11.886719 L 20.730469 17.601562 L 12.851562 8.367188 Z M 19.546875 2.65625 " fill-opacity="1" fill-rule="nonzero"/></g></g></g><g clip-path="url(#b74ef9c9f6)"><g clip-path="url(#551fb6193b)"><g clip-path="url(#e25a6aae9c)"><g clip-path="url(#ed9317510b)"><path stroke-linecap="butt" transform="matrix(0.471155, 0.552094, -0.552094, 0.471155, 19.545821, 2.656352)" fill="none" stroke-linejoin="miter" d="M 2.001369 0.000896861 L 14.717304 -0.00093205 C 15.824696 0.00309313 16.71977 0.894302 16.719238 1.9976 L 16.720471 10.121135 C 16.719939 11.224433 15.821143 12.120107 14.717844 12.119576 L 1.997815 12.117911 C 0.894517 12.117379 -0.000556814 11.226171 -0.0000253027 10.122872 L -0.00125748 1.999338 C -0.000725966 0.896039 0.89807 0.00036535 2.001369 0.000896861 Z M 2.001369 0.000896861 " stroke="#000000" stroke-width="4" stroke-opacity="1" stroke-miterlimit="4"/></g></g></g></g><g clip-path="url(#d59bff1f28)"><path stroke-linecap="butt" transform="matrix(0.471155, 0.552094, -0.552094, 0.471155, 19.331866, 8.063945)" fill="none" stroke-linejoin="miter" d="M 0.00138133 0.998502 L 5.773556 1.000022 " stroke="#000000" stroke-width="2" stroke-opacity="1" stroke-miterlimit="4"/></g><path stroke-linecap="butt" transform="matrix(0.471155, 0.552094, -0.552094, 0.471155, 16.164144, 4.352046)" fill="none" stroke-linejoin="miter" d="M 0.00216746 0.99962 L 2.494797 0.997145 " stroke="#000000" stroke-width="2" stroke-opacity="1" stroke-miterlimit="4"/><g clip-path="url(#30ee78163e)"><path stroke-linecap="butt" transform="matrix(0.471155, 0.552094, -0.552094, 0.471155, 24.045571, 13.587411)" fill="none" stroke-linejoin="miter" d="M -0.00112496 1.001376 L 2.495598 1.002395 " stroke="#000000" stroke-width="2" stroke-opacity="1" stroke-miterlimit="4"/></g></svg>