<svg xmlns="http://www.w3.org/2000/svg" xmlns:xlink="http://www.w3.org/1999/xlink" width="40" zoomAndPan="magnify" viewBox="0 0 30 30.000001" height="40" preserveAspectRatio="xMidYMid meet" version="1.0"><defs><clipPath id="8e70adaa9f"><path d="M 11.117188 8.445312 L 26.160156 8.445312 L 26.160156 20.585938 L 11.117188 20.585938 Z M 11.117188 8.445312 " clip-rule="nonzero"/></clipPath><clipPath id="b8ceb95797"><path d="M 11.121094 8.449219 L 26.152344 8.449219 L 26.152344 20.585938 L 11.121094 20.585938 Z M 11.121094 8.449219 " clip-rule="nonzero"/></clipPath><clipPath id="e8faef68f7"><path d="M 3.839844 8.414062 L 12.640625 8.414062 L 12.640625 20.585938 L 3.839844 20.585938 Z M 3.839844 8.414062 " clip-rule="nonzero"/></clipPath><clipPath id="0f2dcad760"><path d="M 3.839844 19.132812 L 3.839844 9.894531 C 3.839844 9.09375 4.488281 8.445312 5.289062 8.445312 L 11.1875 8.445312 C 11.992188 8.445312 12.640625 9.09375 12.640625 9.894531 L 12.640625 19.132812 C 12.640625 19.933594 11.992188 20.585938 11.1875 20.585938 L 5.289062 20.585938 C 4.488281 20.585938 3.839844 19.933594 3.839844 19.132812 Z M 3.839844 19.132812 " clip-rule="nonzero"/></clipPath><clipPath id="8adf06b80c"><path d="M 3.839844 8.449219 L 12.550781 8.449219 L 12.550781 20.585938 L 3.839844 20.585938 Z M 3.839844 8.449219 " clip-rule="nonzero"/></clipPath><clipPath id="fdfdedc701"><path d="M 3.839844 19.132812 L 3.839844 9.902344 C 3.839844 9.101562 4.492188 8.449219 5.292969 8.449219 L 11.1875 8.449219 C 11.988281 8.449219 12.636719 9.101562 12.636719 9.902344 L 12.636719 19.132812 C 12.636719 19.933594 11.988281 20.585938 11.1875 20.585938 L 5.292969 20.585938 C 4.492188 20.585938 3.839844 19.933594 3.839844 19.132812 Z M 3.839844 19.132812 " clip-rule="nonzero"/></clipPath></defs><g clip-path="url(#8e70adaa9f)"><path fill="#919191" d="M 11.117188 20.585938 L 11.117188 8.445312 L 26.152344 8.445312 L 26.152344 20.585938 Z M 11.117188 20.585938 " fill-opacity="1" fill-rule="nonzero"/></g><g clip-path="url(#b8ceb95797)"><path stroke-linecap="butt" transform="matrix(0, -0.725806, 0.725806, 0, 11.12103, 20.584956)" fill="none" stroke-linejoin="miter" d="M -0.00135295 0.0000877155 L 16.720349 0.0000877155 L 16.720349 20.70981 L -0.00135295 20.70981 Z M -0.00135295 0.0000877155 " stroke="#000000" stroke-width="4" stroke-opacity="1" stroke-miterlimit="4"/></g><g clip-path="url(#e8faef68f7)"><g clip-path="url(#0f2dcad760)"><path fill="#919191" d="M 3.839844 20.585938 L 3.839844 8.449219 L 12.640625 8.449219 L 12.640625 20.585938 Z M 3.839844 20.585938 " fill-opacity="1" fill-rule="nonzero"/></g></g><g clip-path="url(#8adf06b80c)"><g clip-path="url(#fdfdedc701)"><path stroke-linecap="butt" transform="matrix(0, -0.725806, 0.725806, 0, 3.84118, 20.584956)" fill="none" stroke-linejoin="miter" d="M 2.00073 -0.00184078 L 14.718265 -0.00184078 C 15.821564 -0.00184078 16.720349 0.896944 16.720349 2.000243 L 16.720349 10.121597 C 16.720349 11.224895 15.821564 12.118298 14.718265 12.118298 L 2.00073 12.118298 C 0.897432 12.118298 -0.00135295 11.224895 -0.00135295 10.121597 L -0.00135295 2.000243 C -0.00135295 0.896944 0.897432 -0.00184078 2.00073 -0.00184078 Z M 2.00073 -0.00184078 " stroke="#000000" stroke-width="4" stroke-opacity="1" stroke-miterlimit="4"/></g></g><path stroke-linecap="butt" transform="matrix(0.000000000000000112, -0.725806, 0.725806, 0.000000000000000112, 7.51425, 16.610488)" fill="none" stroke-linejoin="miter" d="M 0.00153374 0.997555 L 5.77636 0.997555 " stroke="#000000" stroke-width="2" stroke-opacity="1" stroke-miterlimit="4"/><path stroke-linecap="butt" transform="matrix(0, -0.725806, 0.725806, 0, 7.51425, 21.490309)" fill="none" stroke-linejoin="miter" d="M -0.00258871 0.997555 L 2.494634 0.997555 " stroke="#000000" stroke-width="2" stroke-opacity="1" stroke-miterlimit="4"/><path stroke-linecap="butt" transform="matrix(0.000000000000000517, -0.725806, 0.725806, 0.000000000000000517, 7.51425, 9.349104)" fill="none" stroke-linejoin="miter" d="M 0.00199446 0.997555 L 2.493835 0.997555 " stroke="#000000" stroke-width="2" stroke-opacity="1" stroke-miterlimit="4"/></svg>