<svg xmlns="http://www.w3.org/2000/svg" xmlns:xlink="http://www.w3.org/1999/xlink" width="40" zoomAndPan="magnify" viewBox="0 0 30 30.000001" height="40" preserveAspectRatio="xMidYMid meet" version="1.0"><defs><clipPath id="221a274aa5"><path d="M 4 1 L 23 1 L 23 21 L 4 21 Z M 4 1 " clip-rule="nonzero"/></clipPath><clipPath id="da4cb782bb"><path d="M 22.191406 14.878906 L 11.644531 20.894531 L 4.175781 7.792969 L 14.722656 1.777344 Z M 22.191406 14.878906 " clip-rule="nonzero"/></clipPath><clipPath id="25d271739d"><path d="M 22.191406 14.878906 L 11.644531 20.894531 L 4.195312 7.828125 L 14.742188 1.816406 Z M 22.191406 14.878906 " clip-rule="nonzero"/></clipPath><clipPath id="c8f433e85e"><path d="M 4 1 L 23 1 L 23 21 L 4 21 Z M 4 1 " clip-rule="nonzero"/></clipPath><clipPath id="bd3405dfb4"><path d="M 22.191406 14.878906 L 11.472656 20.992188 L 3.925781 7.75 L 14.644531 1.640625 Z M 22.191406 14.878906 " clip-rule="nonzero"/></clipPath><clipPath id="9dc708bce1"><path d="M 22.191406 14.878906 L 11.648438 20.886719 L 4.136719 7.710938 L 14.679688 1.703125 Z M 22.191406 14.878906 " clip-rule="nonzero"/></clipPath><clipPath id="f663cdfc8b"><path d="M 22.191406 14.878906 L 11.648438 20.886719 L 4.203125 7.828125 L 14.746094 1.820312 Z M 22.191406 14.878906 " clip-rule="nonzero"/></clipPath><clipPath id="218ac685d2"><path d="M 11 14 L 26 14 L 26 27 L 11 27 Z M 11 14 " clip-rule="nonzero"/></clipPath><clipPath id="6430415d9d"><path d="M 25.796875 21.203125 L 15.226562 27.230469 L 10.867188 19.585938 L 21.4375 13.558594 Z M 25.796875 21.203125 " clip-rule="nonzero"/></clipPath><clipPath id="d0f16fcdc9"><path d="M 24.539062 21.921875 L 16.511719 26.5 C 15.816406 26.894531 14.929688 26.652344 14.53125 25.957031 L 11.609375 20.832031 C 11.214844 20.136719 11.457031 19.25 12.152344 18.851562 L 20.179688 14.277344 C 20.875 13.878906 21.761719 14.121094 22.15625 14.820312 L 25.078125 19.941406 C 25.476562 20.640625 25.234375 21.527344 24.539062 21.921875 Z M 24.539062 21.921875 " clip-rule="nonzero"/></clipPath><clipPath id="c77b6f5fab"><path d="M 11 14 L 26 14 L 26 27 L 11 27 Z M 11 14 " clip-rule="nonzero"/></clipPath><clipPath id="00fa175abd"><path d="M 25.796875 21.203125 L 15.078125 27.316406 L 10.765625 19.75 L 21.484375 13.636719 Z M 25.796875 21.203125 " clip-rule="nonzero"/></clipPath><clipPath id="41a0b4e8ce"><path d="M 25.796875 21.203125 L 15.257812 27.210938 L 10.84375 19.472656 L 21.382812 13.460938 Z M 25.796875 21.203125 " clip-rule="nonzero"/></clipPath><clipPath id="a1788815ca"><path d="M 24.539062 21.921875 L 16.515625 26.492188 C 15.820312 26.890625 14.933594 26.648438 14.539062 25.953125 L 11.617188 20.832031 C 11.21875 20.136719 11.464844 19.25 12.160156 18.851562 L 20.179688 14.277344 C 20.875 13.882812 21.761719 14.125 22.160156 14.820312 L 25.078125 19.941406 C 25.476562 20.636719 25.234375 21.523438 24.539062 21.921875 Z M 24.539062 21.921875 " clip-rule="nonzero"/></clipPath><clipPath id="88b94381f1"><path d="M 8 11 L 29 11 L 29 29.03125 L 8 29.03125 Z M 8 11 " clip-rule="nonzero"/></clipPath><clipPath id="4fe31fa8f7"><path d="M 14 8 L 29.515625 8 L 29.515625 27 L 14 27 Z M 14 8 " clip-rule="nonzero"/></clipPath><clipPath id="f1f518318d"><path d="M 4 14 L 23 14 L 23 29.03125 L 4 29.03125 Z M 4 14 " clip-rule="nonzero"/></clipPath></defs><g clip-path="url(#221a274aa5)"><g clip-path="url(#da4cb782bb)"><g clip-path="url(#25d271739d)"><path fill="#919191" d="M 22.191406 14.878906 L 11.644531 20.894531 L 4.199219 7.832031 L 14.746094 1.820312 Z M 22.191406 14.878906 " fill-opacity="1" fill-rule="nonzero"/></g></g></g><g clip-path="url(#c8f433e85e)"><g clip-path="url(#bd3405dfb4)"><g clip-path="url(#9dc708bce1)"><g clip-path="url(#f663cdfc8b)"><path stroke-linecap="butt" transform="matrix(-0.630515, 0.359508, -0.359508, -0.630515, 22.191596, 14.878035)" fill="none" stroke-linejoin="miter" d="M 0.000822481 -0.000913378 L 16.719575 0.00337699 L 16.719042 20.714065 L 0.00028942 20.709775 Z M 0.000822481 -0.000913378 " stroke="#000000" stroke-width="4" stroke-opacity="1" stroke-miterlimit="4"/></g></g></g></g><g clip-path="url(#218ac685d2)"><g clip-path="url(#6430415d9d)"><g clip-path="url(#d0f16fcdc9)"><path fill="#919191" d="M 25.796875 21.203125 L 15.253906 27.214844 L 10.894531 19.570312 L 21.4375 13.558594 Z M 25.796875 21.203125 " fill-opacity="1" fill-rule="nonzero"/></g></g></g><g clip-path="url(#c77b6f5fab)"><g clip-path="url(#00fa175abd)"><g clip-path="url(#41a0b4e8ce)"><g clip-path="url(#a1788815ca)"><path stroke-linecap="butt" transform="matrix(-0.630515, 0.359508, -0.359508, -0.630515, 25.797464, 21.202112)" fill="none" stroke-linejoin="miter" d="M 1.997363 -0.00268907 L 14.719505 0.00269281 C 15.823628 0.000318485 16.719652 0.895325 16.717351 1.996782 L 16.719657 10.120176 C 16.722031 11.224299 15.822349 12.117657 14.718227 12.120032 L 1.998095 12.121991 C 0.896638 12.11969 0.000612844 11.224683 -0.00176148 10.120561 L 0.000608325 1.999833 C -0.001766 0.89571 0.893241 -0.000314746 1.997363 -0.00268907 Z M 1.997363 -0.00268907 " stroke="#000000" stroke-width="4" stroke-opacity="1" stroke-miterlimit="4"/></g></g></g></g><g clip-path="url(#88b94381f1)"><path stroke-linecap="butt" transform="matrix(-0.630515, 0.359508, -0.359508, -0.630515, 20.525454, 19.979919)" fill="none" stroke-linejoin="miter" d="M 0.00106293 1.003378 L 5.776689 1.000611 " stroke="#000000" stroke-width="2" stroke-opacity="1" stroke-miterlimit="4"/></g><g clip-path="url(#4fe31fa8f7)"><path stroke-linecap="butt" transform="matrix(-0.630515, 0.359508, -0.359508, -0.630515, 24.7646, 17.56284)" fill="none" stroke-linejoin="miter" d="M -0.000519586 0.997691 L 2.494112 1.001351 " stroke="#000000" stroke-width="2" stroke-opacity="1" stroke-miterlimit="4"/></g><g clip-path="url(#f1f518318d)"><path stroke-linecap="butt" transform="matrix(-0.630515, 0.359508, -0.359508, -0.630515, 14.217417, 23.576641)" fill="none" stroke-linejoin="miter" d="M -0.0023084 0.999973 L 2.494989 0.998958 " stroke="#000000" stroke-width="2" stroke-opacity="1" stroke-miterlimit="4"/></g></svg>