<svg xmlns="http://www.w3.org/2000/svg" xmlns:xlink="http://www.w3.org/1999/xlink" width="40" zoomAndPan="magnify" viewBox="0 0 30 30.000001" height="40" preserveAspectRatio="xMidYMid meet" version="1.0"><defs><clipPath id="ed2cb7b055"><path d="M 10 6 L 28 6 L 28 22 L 10 22 Z M 10 6 " clip-rule="nonzero"/></clipPath><clipPath id="588d6065c4"><path d="M 12.257812 21.179688 L 10.101562 9.230469 L 24.941406 6.550781 L 27.101562 18.496094 Z M 12.257812 21.179688 " clip-rule="nonzero"/></clipPath><clipPath id="bdd1201076"><path d="M 12.257812 21.179688 L 10.101562 9.230469 L 24.902344 6.558594 L 27.058594 18.503906 Z M 12.257812 21.179688 " clip-rule="nonzero"/></clipPath><clipPath id="597445f04f"><path d="M 10 6 L 28 6 L 28 22 L 10 22 Z M 10 6 " clip-rule="nonzero"/></clipPath><clipPath id="165648639d"><path d="M 12.257812 21.179688 L 10.066406 9.035156 L 25.066406 6.328125 L 27.257812 18.46875 Z M 12.257812 21.179688 " clip-rule="nonzero"/></clipPath><clipPath id="6736b8184a"><path d="M 12.261719 21.175781 L 10.105469 9.234375 L 25.03125 6.539062 L 27.1875 18.480469 Z M 12.261719 21.175781 " clip-rule="nonzero"/></clipPath><clipPath id="dc7c8874bb"><path d="M 12.261719 21.175781 L 10.105469 9.234375 L 24.898438 6.566406 L 27.054688 18.507812 Z M 12.261719 21.175781 " clip-rule="nonzero"/></clipPath><clipPath id="26affe5570"><path d="M 3 9 L 14 9 L 14 23 L 3 23 Z M 3 9 " clip-rule="nonzero"/></clipPath><clipPath id="1a9372aa8c"><path d="M 5.09375 22.472656 L 2.933594 10.496094 L 11.59375 8.929688 L 13.757812 20.90625 Z M 5.09375 22.472656 " clip-rule="nonzero"/></clipPath><clipPath id="e697123885"><path d="M 4.835938 21.042969 L 3.195312 11.953125 C 3.054688 11.164062 3.578125 10.40625 4.367188 10.265625 L 10.171875 9.21875 C 10.960938 9.074219 11.714844 9.597656 11.855469 10.386719 L 13.5 19.480469 C 13.640625 20.269531 13.117188 21.023438 12.328125 21.164062 L 6.523438 22.214844 C 5.734375 22.355469 4.980469 21.832031 4.835938 21.042969 Z M 4.835938 21.042969 " clip-rule="nonzero"/></clipPath><clipPath id="65d1c3e259"><path d="M 3 9 L 14 9 L 14 23 L 3 23 Z M 3 9 " clip-rule="nonzero"/></clipPath><clipPath id="c48ccdcf91"><path d="M 5.09375 22.472656 L 2.902344 10.328125 L 11.472656 8.78125 L 13.667969 20.921875 Z M 5.09375 22.472656 " clip-rule="nonzero"/></clipPath><clipPath id="a88488bcc2"><path d="M 5.097656 22.472656 L 2.941406 10.53125 L 11.710938 8.945312 L 13.867188 20.886719 Z M 5.097656 22.472656 " clip-rule="nonzero"/></clipPath><clipPath id="4bc8538ab9"><path d="M 4.839844 21.042969 L 3.199219 11.957031 C 3.054688 11.167969 3.582031 10.414062 4.367188 10.273438 L 10.167969 9.222656 C 10.957031 9.082031 11.714844 9.605469 11.855469 10.394531 L 13.496094 19.480469 C 13.636719 20.269531 13.113281 21.023438 12.328125 21.164062 L 6.523438 22.214844 C 5.738281 22.355469 4.980469 21.832031 4.839844 21.042969 Z M 4.839844 21.042969 " clip-rule="nonzero"/></clipPath><clipPath id="441e397166"><path d="M 0.484375 5 L 17 5 L 17 26 L 0.484375 26 Z M 0.484375 5 " clip-rule="nonzero"/></clipPath><clipPath id="038f3735b1"><path d="M 1 12 L 18 12 L 18 29.03125 L 1 29.03125 Z M 1 12 " clip-rule="nonzero"/></clipPath><clipPath id="e15b354904"><path d="M 0.484375 0 L 16 0 L 16 19 L 0.484375 19 Z M 0.484375 0 " clip-rule="nonzero"/></clipPath></defs><g clip-path="url(#ed2cb7b055)"><g clip-path="url(#588d6065c4)"><g clip-path="url(#bdd1201076)"><path fill="#919191" d="M 12.257812 21.179688 L 10.101562 9.230469 L 24.894531 6.558594 L 27.054688 18.507812 Z M 12.257812 21.179688 " fill-opacity="1" fill-rule="nonzero"/></g></g></g><g clip-path="url(#597445f04f)"><g clip-path="url(#165648639d)"><g clip-path="url(#6736b8184a)"><g clip-path="url(#dc7c8874bb)"><path stroke-linecap="butt" transform="matrix(-0.128975, -0.714255, 0.714255, -0.128975, 12.26123, 21.177402)" fill="none" stroke-linejoin="miter" d="M 0.00207775 0.0010595 L 16.720751 0.001114 L 16.716365 20.711363 L -0.00230892 20.711309 Z M 0.00207775 0.0010595 " stroke="#000000" stroke-width="4" stroke-opacity="1" stroke-miterlimit="4"/></g></g></g></g><g clip-path="url(#26affe5570)"><g clip-path="url(#1a9372aa8c)"><g clip-path="url(#e697123885)"><path fill="#919191" d="M 5.09375 22.472656 L 2.9375 10.527344 L 11.601562 8.964844 L 13.757812 20.90625 Z M 5.09375 22.472656 " fill-opacity="1" fill-rule="nonzero"/></g></g></g><g clip-path="url(#65d1c3e259)"><g clip-path="url(#c48ccdcf91)"><g clip-path="url(#a88488bcc2)"><g clip-path="url(#4bc8538ab9)"><path stroke-linecap="butt" transform="matrix(-0.128975, -0.714255, 0.714255, -0.128975, 5.097239, 22.471021)" fill="none" stroke-linejoin="miter" d="M 1.999243 0.000640137 L 14.720088 0.000702395 C 15.825324 -0.00207469 16.718399 0.897503 16.716836 1.996486 L 16.721337 10.11874 C 16.718817 11.22302 15.82358 12.122347 14.7193 12.119828 L 1.998455 12.119766 C 0.894175 12.117247 0.000143787 11.222965 0.00170663 10.123982 L -0.00183758 1.996432 C -0.00027474 0.897448 0.894963 -0.00187907 1.999243 0.000640137 Z M 1.999243 0.000640137 " stroke="#000000" stroke-width="4" stroke-opacity="1" stroke-miterlimit="4"/></g></g></g></g><g clip-path="url(#441e397166)"><path stroke-linecap="butt" transform="matrix(-0.128975, -0.714255, 0.714255, -0.128975, 8.005594, 17.907109)" fill="none" stroke-linejoin="miter" d="M 0.00134034 0.998704 L 5.775932 1.00233 " stroke="#000000" stroke-width="2" stroke-opacity="1" stroke-miterlimit="4"/></g><g clip-path="url(#038f3735b1)"><path stroke-linecap="butt" transform="matrix(-0.128975, -0.714255, 0.714255, -0.128975, 8.872732, 22.709266)" fill="none" stroke-linejoin="miter" d="M -0.00210167 0.998151 L 2.496725 1.000914 " stroke="#000000" stroke-width="2" stroke-opacity="1" stroke-miterlimit="4"/></g><g clip-path="url(#e15b354904)"><path stroke-linecap="butt" transform="matrix(-0.128975, -0.714255, 0.714255, -0.128975, 6.715255, 10.761289)" fill="none" stroke-linejoin="miter" d="M -0.000718699 1.000118 L 2.492812 1.001925 " stroke="#000000" stroke-width="2" stroke-opacity="1" stroke-miterlimit="4"/></g></svg>