<svg xmlns="http://www.w3.org/2000/svg" xmlns:xlink="http://www.w3.org/1999/xlink" width="40" zoomAndPan="magnify" viewBox="0 0 30 30.000001" height="40" preserveAspectRatio="xMidYMid meet" version="1.0"><defs><clipPath id="ba363534bc"><path d="M 2 7 L 20 7 L 20 23 L 2 23 Z M 2 7 " clip-rule="nonzero"/></clipPath><clipPath id="2efab19762"><path d="M 17.761719 7.863281 L 19.878906 19.820312 L 5.027344 22.445312 L 2.910156 10.492188 Z M 17.761719 7.863281 " clip-rule="nonzero"/></clipPath><clipPath id="7e689f05e2"><path d="M 17.761719 7.863281 L 19.878906 19.820312 L 5.066406 22.441406 L 2.953125 10.484375 Z M 17.761719 7.863281 " clip-rule="nonzero"/></clipPath><clipPath id="c09158c808"><path d="M 2 7 L 20 7 L 20 23 L 2 23 Z M 2 7 " clip-rule="nonzero"/></clipPath><clipPath id="456944fd93"><path d="M 17.761719 7.863281 L 19.914062 20.011719 L 4.902344 22.667969 L 2.753906 10.519531 Z M 17.761719 7.863281 " clip-rule="nonzero"/></clipPath><clipPath id="6f023ad626"><path d="M 17.757812 7.863281 L 19.875 19.8125 L 4.9375 22.457031 L 2.824219 10.507812 Z M 17.757812 7.863281 " clip-rule="nonzero"/></clipPath><clipPath id="d55df58ee6"><path d="M 17.757812 7.863281 L 19.875 19.8125 L 5.070312 22.433594 L 2.957031 10.484375 Z M 17.757812 7.863281 " clip-rule="nonzero"/></clipPath><clipPath id="b2eba4c37a"><path d="M 16 6 L 27 6 L 27 20 L 16 20 Z M 16 6 " clip-rule="nonzero"/></clipPath><clipPath id="cbdd1f13c3"><path d="M 24.929688 6.59375 L 27.050781 18.578125 L 18.382812 20.113281 L 16.261719 8.128906 Z M 24.929688 6.59375 " clip-rule="nonzero"/></clipPath><clipPath id="13b9b2c2ea"><path d="M 25.183594 8.023438 L 26.792969 17.121094 C 26.933594 17.910156 26.40625 18.664062 25.617188 18.804688 L 19.808594 19.832031 C 19.019531 19.96875 18.265625 19.445312 18.125 18.65625 L 16.515625 9.558594 C 16.375 8.769531 16.902344 8.015625 17.691406 7.875 L 23.5 6.847656 C 24.289062 6.707031 25.042969 7.234375 25.183594 8.023438 Z M 25.183594 8.023438 " clip-rule="nonzero"/></clipPath><clipPath id="8f39e4a9da"><path d="M 16 6 L 27 6 L 27 20 L 16 20 Z M 16 6 " clip-rule="nonzero"/></clipPath><clipPath id="6e8ce4f32c"><path d="M 24.929688 6.59375 L 27.078125 18.746094 L 18.503906 20.261719 L 16.351562 8.113281 Z M 24.929688 6.59375 " clip-rule="nonzero"/></clipPath><clipPath id="f6b90a737d"><path d="M 24.925781 6.59375 L 27.042969 18.542969 L 18.265625 20.097656 L 16.152344 8.148438 Z M 24.925781 6.59375 " clip-rule="nonzero"/></clipPath><clipPath id="42752993d8"><path d="M 25.179688 8.023438 L 26.789062 17.113281 C 26.929688 17.902344 26.402344 18.65625 25.613281 18.796875 L 19.808594 19.824219 C 19.019531 19.964844 18.265625 19.4375 18.128906 18.648438 L 16.519531 9.554688 C 16.378906 8.769531 16.90625 8.015625 17.695312 7.875 L 23.5 6.847656 C 24.289062 6.707031 25.039062 7.234375 25.179688 8.023438 Z M 25.179688 8.023438 " clip-rule="nonzero"/></clipPath><clipPath id="6cc08497c9"><path d="M 13 3 L 29.515625 3 L 29.515625 24 L 13 24 Z M 13 3 " clip-rule="nonzero"/></clipPath><clipPath id="9713ed5ae5"><path d="M 14 10 L 29.515625 10 L 29.515625 29 L 14 29 Z M 14 10 " clip-rule="nonzero"/></clipPath></defs><g clip-path="url(#ba363534bc)"><g clip-path="url(#2efab19762)"><g clip-path="url(#7e689f05e2)"><path fill="#919191" d="M 17.761719 7.863281 L 19.878906 19.820312 L 5.074219 22.4375 L 2.957031 10.484375 Z M 17.761719 7.863281 " fill-opacity="1" fill-rule="nonzero"/></g></g></g><g clip-path="url(#c09158c808)"><g clip-path="url(#456944fd93)"><g clip-path="url(#6f023ad626)"><g clip-path="url(#d55df58ee6)"><path stroke-linecap="butt" transform="matrix(0.126498, 0.714698, -0.714698, 0.126498, 17.759028, 7.863653)" fill="none" stroke-linejoin="miter" d="M -0.000796542 0.0015594 L 16.718996 -0.00147256 L 16.719996 20.71331 L 0.00114162 20.711043 Z M -0.000796542 0.0015594 " stroke="#000000" stroke-width="4" stroke-opacity="1" stroke-miterlimit="4"/></g></g></g></g><g clip-path="url(#b2eba4c37a)"><g clip-path="url(#cbdd1f13c3)"><g clip-path="url(#13b9b2c2ea)"><path fill="#919191" d="M 24.929688 6.59375 L 27.042969 18.546875 L 18.378906 20.078125 L 16.261719 8.128906 Z M 24.929688 6.59375 " fill-opacity="1" fill-rule="nonzero"/></g></g></g><g clip-path="url(#8f39e4a9da)"><g clip-path="url(#6e8ce4f32c)"><g clip-path="url(#f6b90a737d)"><g clip-path="url(#42752993d8)"><path stroke-linecap="butt" transform="matrix(0.126498, 0.714698, -0.714698, 0.126498, 24.92746, 6.594875)" fill="none" stroke-linejoin="miter" d="M 1.998684 0.00084227 L 14.717249 0.00014009 C 15.82153 -0.00116889 16.717718 0.895307 16.719027 1.999589 L 16.71895 10.12145 C 16.720259 11.225732 15.823783 12.12192 14.720439 12.117929 L 1.996575 12.117693 C 0.897592 12.11994 0.00140439 11.223464 0.0000954043 10.119182 L 0.000173085 1.997322 C -0.0011359 0.89304 0.894402 0.00215125 1.998684 0.00084227 Z M 1.998684 0.00084227 " stroke="#000000" stroke-width="4" stroke-opacity="1" stroke-miterlimit="4"/></g></g></g></g><g clip-path="url(#6cc08497c9)"><path stroke-linecap="butt" transform="matrix(0.126498, 0.714698, -0.714698, 0.126498, 22.0033, 11.148679)" fill="none" stroke-linejoin="miter" d="M -0.00224874 0.998957 L 5.774807 0.999401 " stroke="#000000" stroke-width="2" stroke-opacity="1" stroke-miterlimit="4"/></g><path stroke-linecap="butt" transform="matrix(0.126498, 0.714698, -0.714698, 0.126498, 21.152816, 6.343544)" fill="none" stroke-linejoin="miter" d="M -0.00190193 1.000528 L 2.495981 0.999928 " stroke="#000000" stroke-width="2" stroke-opacity="1" stroke-miterlimit="4"/><g clip-path="url(#9713ed5ae5)"><path stroke-linecap="butt" transform="matrix(0.126498, 0.714698, -0.714698, 0.126498, 23.268859, 18.298929)" fill="none" stroke-linejoin="miter" d="M 0.00060688 0.999371 L 2.493191 0.997833 " stroke="#000000" stroke-width="2" stroke-opacity="1" stroke-miterlimit="4"/></g></svg>