<svg xmlns="http://www.w3.org/2000/svg" xmlns:xlink="http://www.w3.org/1999/xlink" width="40" zoomAndPan="magnify" viewBox="0 0 30 30.000001" height="40" preserveAspectRatio="xMidYMid meet" version="1.0"><defs><clipPath id="da1a935334"><path d="M 3 2 L 23 2 L 23 22 L 3 22 Z M 3 2 " clip-rule="nonzero"/></clipPath><clipPath id="879ac863d9"><path d="M 22.148438 13.636719 L 12.792969 21.375 L 3.179688 9.753906 L 12.539062 2.015625 Z M 22.148438 13.636719 " clip-rule="nonzero"/></clipPath><clipPath id="2aeb305ff2"><path d="M 22.148438 13.636719 L 12.792969 21.375 L 3.207031 9.785156 L 12.5625 2.046875 Z M 22.148438 13.636719 " clip-rule="nonzero"/></clipPath><clipPath id="cb17cb93a0"><path d="M 3 2 L 23 2 L 23 22 L 3 22 Z M 3 2 " clip-rule="nonzero"/></clipPath><clipPath id="1c97f4d2bc"><path d="M 22.148438 13.636719 L 12.640625 21.5 L 2.925781 9.753906 L 12.433594 1.890625 Z M 22.148438 13.636719 " clip-rule="nonzero"/></clipPath><clipPath id="760a4d0538"><path d="M 22.148438 13.636719 L 12.796875 21.371094 L 3.128906 9.679688 L 12.480469 1.945312 Z M 22.148438 13.636719 " clip-rule="nonzero"/></clipPath><clipPath id="593e080324"><path d="M 22.148438 13.636719 L 12.796875 21.371094 L 3.214844 9.785156 L 12.566406 2.050781 Z M 22.148438 13.636719 " clip-rule="nonzero"/></clipPath><clipPath id="b9c009d7da"><path d="M 12 13 L 27 13 L 27 27 L 12 27 Z M 12 13 " clip-rule="nonzero"/></clipPath><clipPath id="8c29f3a076"><path d="M 26.789062 19.246094 L 17.40625 27.003906 L 11.800781 20.222656 L 21.179688 12.464844 Z M 26.789062 19.246094 " clip-rule="nonzero"/></clipPath><clipPath id="1cdf8ad142"><path d="M 25.667969 20.171875 L 18.550781 26.058594 C 17.933594 26.570312 17.015625 26.484375 16.503906 25.867188 L 12.746094 21.320312 C 12.234375 20.703125 12.324219 19.789062 12.941406 19.277344 L 20.058594 13.390625 C 20.675781 12.878906 21.59375 12.964844 22.101562 13.582031 L 25.863281 18.128906 C 26.375 18.746094 26.285156 19.660156 25.667969 20.171875 Z M 25.667969 20.171875 " clip-rule="nonzero"/></clipPath><clipPath id="e317c18598"><path d="M 12 13 L 27 13 L 27 27 L 12 27 Z M 12 13 " clip-rule="nonzero"/></clipPath><clipPath id="136e9672ff"><path d="M 26.789062 19.246094 L 17.277344 27.109375 L 11.726562 20.398438 L 21.238281 12.535156 Z M 26.789062 19.246094 " clip-rule="nonzero"/></clipPath><clipPath id="aecc607561"><path d="M 26.785156 19.246094 L 17.433594 26.980469 L 11.753906 20.113281 L 21.105469 12.378906 Z M 26.785156 19.246094 " clip-rule="nonzero"/></clipPath><clipPath id="56326b6e97"><path d="M 25.667969 20.171875 L 18.554688 26.054688 C 17.933594 26.566406 17.019531 26.480469 16.511719 25.863281 L 12.753906 21.320312 C 12.242188 20.699219 12.328125 19.785156 12.945312 19.277344 L 20.0625 13.390625 C 20.679688 12.882812 21.59375 12.96875 22.105469 13.585938 L 25.863281 18.128906 C 26.371094 18.746094 26.285156 19.660156 25.667969 20.171875 Z M 25.667969 20.171875 " clip-rule="nonzero"/></clipPath><clipPath id="67a63afff8"><path d="M 9 10 L 29.515625 10 L 29.515625 29.03125 L 9 29.03125 Z M 9 10 " clip-rule="nonzero"/></clipPath><clipPath id="78875dd102"><path d="M 15 7 L 29.515625 7 L 29.515625 25 L 15 25 Z M 15 7 " clip-rule="nonzero"/></clipPath><clipPath id="736561867a"><path d="M 5 14 L 24 14 L 24 29.03125 L 5 29.03125 Z M 5 14 " clip-rule="nonzero"/></clipPath></defs><g clip-path="url(#da1a935334)"><g clip-path="url(#879ac863d9)"><g clip-path="url(#2aeb305ff2)"><path fill="#919191" d="M 22.148438 13.636719 L 12.792969 21.375 L 3.210938 9.789062 L 12.566406 2.050781 Z M 22.148438 13.636719 " fill-opacity="1" fill-rule="nonzero"/></g></g></g><g clip-path="url(#cb17cb93a0)"><g clip-path="url(#1c97f4d2bc)"><g clip-path="url(#760a4d0538)"><g clip-path="url(#593e080324)"><path stroke-linecap="butt" transform="matrix(-0.559333, 0.462538, -0.462538, -0.559333, 22.146804, 13.636207)" fill="none" stroke-linejoin="miter" d="M -0.00128512 -0.00197681 L 16.718846 -0.00318504 L 16.72 20.711614 L -0.000131229 20.712823 Z M -0.00128512 -0.00197681 " stroke="#000000" stroke-width="4" stroke-opacity="1" stroke-miterlimit="4"/></g></g></g></g><g clip-path="url(#b9c009d7da)"><g clip-path="url(#8c29f3a076)"><g clip-path="url(#1cdf8ad142)"><path fill="#919191" d="M 26.789062 19.246094 L 17.433594 26.980469 L 11.824219 20.199219 L 21.179688 12.464844 Z M 26.789062 19.246094 " fill-opacity="1" fill-rule="nonzero"/></g></g></g><g clip-path="url(#e317c18598)"><g clip-path="url(#136e9672ff)"><g clip-path="url(#aecc607561)"><g clip-path="url(#56326b6e97)"><path stroke-linecap="butt" transform="matrix(-0.559333, 0.462538, -0.462538, -0.559333, 26.78607, 19.246326)" fill="none" stroke-linejoin="miter" d="M 1.999815 -0.000997337 L 14.717701 -0.00154217 C 15.826458 0.000466938 16.721523 0.89428 16.718796 1.99546 L 16.719882 10.118476 C 16.717873 11.227233 15.82406 12.122299 14.72288 12.119572 L 1.997417 12.120834 C 0.896237 12.118108 0.00117195 11.224294 -0.000248724 10.119684 L -0.00133463 1.996669 C 0.00139222 0.895489 0.895206 0.000423333 1.999815 -0.000997337 Z M 1.999815 -0.000997337 " stroke="#000000" stroke-width="4" stroke-opacity="1" stroke-miterlimit="4"/></g></g></g></g><g clip-path="url(#67a63afff8)"><path stroke-linecap="butt" transform="matrix(-0.559333, 0.462538, -0.462538, -0.559333, 21.382445, 18.948553)" fill="none" stroke-linejoin="miter" d="M 0.0032915 1.000209 L 5.779261 0.999729 " stroke="#000000" stroke-width="2" stroke-opacity="1" stroke-miterlimit="4"/></g><g clip-path="url(#78875dd102)"><path stroke-linecap="butt" transform="matrix(-0.559333, 0.462538, -0.462538, -0.559333, 25.143013, 15.838766)" fill="none" stroke-linejoin="miter" d="M 0.00243164 0.998762 L 2.494882 0.999673 " stroke="#000000" stroke-width="2" stroke-opacity="1" stroke-miterlimit="4"/></g><g clip-path="url(#736561867a)"><path stroke-linecap="butt" transform="matrix(-0.559333, 0.462538, -0.462538, -0.559333, 15.786555, 23.576051)" fill="none" stroke-linejoin="miter" d="M -0.00117364 1.000983 L 2.494706 0.997746 " stroke="#000000" stroke-width="2" stroke-opacity="1" stroke-miterlimit="4"/></g></svg>