<svg xmlns="http://www.w3.org/2000/svg" xmlns:xlink="http://www.w3.org/1999/xlink" width="40" zoomAndPan="magnify" viewBox="0 0 30 30.000001" height="40" preserveAspectRatio="xMidYMid meet" version="1.0"><defs><clipPath id="e0d0082736"><path d="M 7 2 L 27 2 L 27 22 L 7 22 Z M 7 2 " clip-rule="nonzero"/></clipPath><clipPath id="cc7ff2bb46"><path d="M 17.179688 21.382812 L 7.847656 13.613281 L 17.5 2.023438 L 26.832031 9.792969 Z M 17.179688 21.382812 " clip-rule="nonzero"/></clipPath><clipPath id="5db95a4532"><path d="M 17.179688 21.382812 L 7.847656 13.613281 L 17.476562 2.054688 L 26.804688 9.824219 Z M 17.179688 21.382812 " clip-rule="nonzero"/></clipPath><clipPath id="5beb10b39a"><path d="M 7 2 L 27 2 L 27 22 L 7 22 Z M 7 2 " clip-rule="nonzero"/></clipPath><clipPath id="45b19dcce5"><path d="M 17.179688 21.382812 L 7.699219 13.484375 L 17.453125 1.773438 L 26.933594 9.667969 Z M 17.179688 21.382812 " clip-rule="nonzero"/></clipPath><clipPath id="7726050945"><path d="M 17.179688 21.378906 L 7.855469 13.613281 L 17.5625 1.957031 L 26.886719 9.722656 Z M 17.179688 21.378906 " clip-rule="nonzero"/></clipPath><clipPath id="6d252d82be"><path d="M 17.179688 21.378906 L 7.855469 13.613281 L 17.476562 2.0625 L 26.800781 9.828125 Z M 17.179688 21.378906 " clip-rule="nonzero"/></clipPath><clipPath id="f937d384af"><path d="M 3 13 L 18 13 L 18 27 L 3 27 Z M 3 13 " clip-rule="nonzero"/></clipPath><clipPath id="71d0b73cf0"><path d="M 12.519531 26.976562 L 3.167969 19.1875 L 8.800781 12.421875 L 18.152344 20.210938 Z M 12.519531 26.976562 " clip-rule="nonzero"/></clipPath><clipPath id="9baf2b57b3"><path d="M 11.40625 26.046875 L 4.308594 20.132812 C 3.691406 19.621094 3.605469 18.707031 4.121094 18.089844 L 7.894531 13.558594 C 8.40625 12.941406 9.324219 12.859375 9.9375 13.371094 L 17.039062 19.28125 C 17.652344 19.796875 17.738281 20.710938 17.222656 21.328125 L 13.449219 25.859375 C 12.9375 26.476562 12.019531 26.558594 11.40625 26.046875 Z M 11.40625 26.046875 " clip-rule="nonzero"/></clipPath><clipPath id="bbcb368e6d"><path d="M 3 13 L 18 13 L 18 27 L 3 27 Z M 3 13 " clip-rule="nonzero"/></clipPath><clipPath id="54c968cc1c"><path d="M 12.519531 26.976562 L 3.039062 19.078125 L 8.613281 12.386719 L 18.09375 20.28125 Z M 12.519531 26.976562 " clip-rule="nonzero"/></clipPath><clipPath id="7bc183775e"><path d="M 12.523438 26.972656 L 3.199219 19.207031 L 8.902344 12.359375 L 18.226562 20.125 Z M 12.523438 26.972656 " clip-rule="nonzero"/></clipPath><clipPath id="06e3b51b6d"><path d="M 11.40625 26.042969 L 4.3125 20.136719 C 3.695312 19.625 3.613281 18.707031 4.125 18.09375 L 7.898438 13.5625 C 8.410156 12.949219 9.328125 12.863281 9.941406 13.375 L 17.035156 19.285156 C 17.652344 19.796875 17.734375 20.714844 17.222656 21.328125 L 13.449219 25.859375 C 12.9375 26.472656 12.023438 26.558594 11.40625 26.042969 Z M 11.40625 26.042969 " clip-rule="nonzero"/></clipPath><clipPath id="da6c8604ed"><path d="M 0.484375 10 L 21 10 L 21 29.03125 L 0.484375 29.03125 Z M 0.484375 10 " clip-rule="nonzero"/></clipPath><clipPath id="15136cf76e"><path d="M 6 14 L 25 14 L 25 29.03125 L 6 29.03125 Z M 6 14 " clip-rule="nonzero"/></clipPath><clipPath id="3c7d5b36bc"><path d="M 0.484375 7 L 15 7 L 15 25 L 0.484375 25 Z M 0.484375 7 " clip-rule="nonzero"/></clipPath></defs><g clip-path="url(#e0d0082736)"><g clip-path="url(#cc7ff2bb46)"><g clip-path="url(#5db95a4532)"><path fill="#919191" d="M 17.179688 21.382812 L 7.847656 13.613281 L 17.472656 2.058594 L 26.800781 9.828125 Z M 17.179688 21.382812 " fill-opacity="1" fill-rule="nonzero"/></g></g></g><g clip-path="url(#5beb10b39a)"><g clip-path="url(#45b19dcce5)"><g clip-path="url(#7726050945)"><g clip-path="url(#6d252d82be)"><path stroke-linecap="butt" transform="matrix(-0.557716, -0.464487, 0.464487, -0.557716, 17.180722, 21.379354)" fill="none" stroke-linejoin="miter" d="M 0.0014895 -0.000438026 L 16.720127 -0.000382572 L 16.718906 20.711516 L 0.000268675 20.71146 Z M 0.0014895 -0.000438026 " stroke="#000000" stroke-width="4" stroke-opacity="1" stroke-miterlimit="4"/></g></g></g></g><g clip-path="url(#f937d384af)"><g clip-path="url(#71d0b73cf0)"><g clip-path="url(#9baf2b57b3)"><path fill="#919191" d="M 12.519531 26.976562 L 3.195312 19.207031 L 8.828125 12.445312 L 18.152344 20.210938 Z M 12.519531 26.976562 " fill-opacity="1" fill-rule="nonzero"/></g></g></g><g clip-path="url(#bbcb368e6d)"><g clip-path="url(#54c968cc1c)"><g clip-path="url(#7bc183775e)"><g clip-path="url(#06e3b51b6d)"><path stroke-linecap="butt" transform="matrix(-0.557716, -0.464487, 0.464487, -0.557716, 12.521907, 26.973248)" fill="none" stroke-linejoin="miter" d="M 2.00139 0.001182 L 14.719187 -0.000619212 C 15.823795 -0.0030532 16.720035 0.896467 16.719025 1.99694 L 16.71941 10.12128 C 16.7184 11.221752 15.822323 12.122128 14.721851 12.121117 L 2.00061 12.118783 C 0.896002 12.121217 -0.000237839 11.221696 0.000772403 10.121224 L 0.000387012 1.996884 C 0.00139725 0.896412 0.893338 -0.000519539 2.00139 0.001182 Z M 2.00139 0.001182 " stroke="#000000" stroke-width="4" stroke-opacity="1" stroke-miterlimit="4"/></g></g></g></g><g clip-path="url(#da6c8604ed)"><path stroke-linecap="butt" transform="matrix(-0.557716, -0.464487, 0.464487, -0.557716, 11.818515, 21.607331)" fill="none" stroke-linejoin="miter" d="M 0.000826649 0.997221 L 5.774689 1.000284 " stroke="#000000" stroke-width="2" stroke-opacity="1" stroke-miterlimit="4"/></g><g clip-path="url(#15136cf76e)"><path stroke-linecap="butt" transform="matrix(-0.557716, -0.464487, 0.464487, -0.557716, 15.568207, 24.730221)" fill="none" stroke-linejoin="miter" d="M 0.00208483 0.999394 L 2.493825 0.997365 " stroke="#000000" stroke-width="2" stroke-opacity="1" stroke-miterlimit="4"/></g><g clip-path="url(#3c7d5b36bc)"><path stroke-linecap="butt" transform="matrix(-0.557716, -0.464487, 0.464487, -0.557716, 6.238808, 16.960332)" fill="none" stroke-linejoin="miter" d="M 0.00042067 1.000138 L 2.495606 1.002245 " stroke="#000000" stroke-width="2" stroke-opacity="1" stroke-miterlimit="4"/></g></svg>