<svg xmlns="http://www.w3.org/2000/svg" xmlns:xlink="http://www.w3.org/1999/xlink" width="40" zoomAndPan="magnify" viewBox="0 0 30 30.000001" height="40" preserveAspectRatio="xMidYMid meet" version="1.0"><defs><clipPath id="f63c6ab74f"><path d="M 8.925781 3.355469 L 21.066406 3.355469 L 21.066406 18.394531 L 8.925781 18.394531 Z M 8.925781 3.355469 " clip-rule="nonzero"/></clipPath><clipPath id="06d90424f4"><path d="M 8.933594 3.359375 L 21.066406 3.359375 L 21.066406 18.394531 L 8.933594 18.394531 Z M 8.933594 3.359375 " clip-rule="nonzero"/></clipPath><clipPath id="0e534f3c17"><path d="M 8.898438 16.875 L 21.066406 16.875 L 21.066406 25.675781 L 8.898438 25.675781 Z M 8.898438 16.875 " clip-rule="nonzero"/></clipPath><clipPath id="8a996dd39c"><path d="M 19.617188 25.675781 L 10.378906 25.675781 C 9.578125 25.675781 8.925781 25.023438 8.925781 24.222656 L 8.925781 18.324219 C 8.925781 17.523438 9.578125 16.875 10.378906 16.875 L 19.617188 16.875 C 20.417969 16.875 21.066406 17.523438 21.066406 18.324219 L 21.066406 24.222656 C 21.066406 25.023438 20.417969 25.675781 19.617188 25.675781 Z M 19.617188 25.675781 " clip-rule="nonzero"/></clipPath><clipPath id="86fced3555"><path d="M 8.933594 16.964844 L 21.066406 16.964844 L 21.066406 25.671875 L 8.933594 25.671875 Z M 8.933594 16.964844 " clip-rule="nonzero"/></clipPath><clipPath id="f15155307f"><path d="M 19.617188 25.671875 L 10.382812 25.671875 C 9.582031 25.671875 8.933594 25.023438 8.933594 24.222656 L 8.933594 18.328125 C 8.933594 17.527344 9.582031 16.875 10.382812 16.875 L 19.617188 16.875 C 20.417969 16.875 21.066406 17.527344 21.066406 18.328125 L 21.066406 24.222656 C 21.066406 25.023438 20.417969 25.671875 19.617188 25.671875 Z M 19.617188 25.671875 " clip-rule="nonzero"/></clipPath></defs><g clip-path="url(#f63c6ab74f)"><path fill="#919191" d="M 21.066406 18.394531 L 8.925781 18.394531 L 8.925781 3.363281 L 21.066406 3.363281 Z M 21.066406 18.394531 " fill-opacity="1" fill-rule="nonzero"/></g><g clip-path="url(#06d90424f4)"><path stroke-linecap="butt" transform="matrix(-0.725806, 0, 0, -0.725806, 21.067784, 18.393323)" fill="none" stroke-linejoin="miter" d="M 0.00189793 -0.00166481 L 16.718218 -0.00166481 L 16.718218 20.71344 L 0.00189793 20.71344 Z M 0.00189793 -0.00166481 " stroke="#000000" stroke-width="4" stroke-opacity="1" stroke-miterlimit="4"/></g><g clip-path="url(#0e534f3c17)"><g clip-path="url(#8a996dd39c)"><path fill="#919191" d="M 21.066406 25.675781 L 8.929688 25.675781 L 8.929688 16.875 L 21.066406 16.875 Z M 21.066406 25.675781 " fill-opacity="1" fill-rule="nonzero"/></g></g><g clip-path="url(#86fced3555)"><g clip-path="url(#f15155307f)"><path stroke-linecap="butt" transform="matrix(-0.725806, 0, 0, -0.725806, 21.067784, 25.673172)" fill="none" stroke-linejoin="miter" d="M 1.998599 0.00178732 L 14.721516 0.00178732 C 15.824815 0.00178732 16.718218 0.89519 16.718218 1.998489 L 16.718218 10.119843 C 16.718218 11.223142 15.824815 12.121926 14.721516 12.121926 L 1.998599 12.121926 C 0.895301 12.121926 0.00189793 11.223142 0.00189793 10.119843 L 0.00189793 1.998489 C 0.00189793 0.89519 0.895301 0.00178732 1.998599 0.00178732 Z M 1.998599 0.00178732 " stroke="#000000" stroke-width="4" stroke-opacity="1" stroke-miterlimit="4"/></g></g><path stroke-linecap="butt" transform="matrix(-0.725806, -0.000000000000000112, 0.000000000000000112, -0.725806, 17.093317, 22.000103)" fill="none" stroke-linejoin="miter" d="M -0.000597 1.001183 L 5.774229 1.001183 " stroke="#000000" stroke-width="2" stroke-opacity="1" stroke-miterlimit="4"/><path stroke-linecap="butt" transform="matrix(-0.725806, 0, 0, -0.725806, 21.973137, 22.000103)" fill="none" stroke-linejoin="miter" d="M 0.000662493 1.001183 L 2.492503 1.001183 " stroke="#000000" stroke-width="2" stroke-opacity="1" stroke-miterlimit="4"/><path stroke-linecap="butt" transform="matrix(-0.725806, -0.000000000000000517, 0.000000000000000517, -0.725806, 9.831931, 22.000103)" fill="none" stroke-linejoin="miter" d="M -0.000137554 1.001183 L 2.497085 1.001183 " stroke="#000000" stroke-width="2" stroke-opacity="1" stroke-miterlimit="4"/></svg>