<svg xmlns="http://www.w3.org/2000/svg" xmlns:xlink="http://www.w3.org/1999/xlink" width="40" zoomAndPan="magnify" viewBox="0 0 30 30.000001" height="40" preserveAspectRatio="xMidYMid meet" version="1.0"><defs><clipPath id="38de46c8e6"><path d="M 5 8 L 23 8 L 23 28 L 5 28 Z M 5 8 " clip-rule="nonzero"/></clipPath><clipPath id="56d9f82d02"><path d="M 10.59375 8.816406 L 22.023438 12.910156 L 16.941406 27.109375 L 5.511719 23.015625 Z M 10.59375 8.816406 " clip-rule="nonzero"/></clipPath><clipPath id="2a65b5c6e4"><path d="M 10.59375 8.816406 L 22.023438 12.910156 L 16.953125 27.070312 L 5.523438 22.976562 Z M 10.59375 8.816406 " clip-rule="nonzero"/></clipPath><clipPath id="ae812927bb"><path d="M 5 8 L 23 8 L 23 28 L 5 28 Z M 5 8 " clip-rule="nonzero"/></clipPath><clipPath id="fc9eb1b04e"><path d="M 10.59375 8.816406 L 22.210938 12.976562 L 17.074219 27.324219 L 5.457031 23.167969 Z M 10.59375 8.816406 " clip-rule="nonzero"/></clipPath><clipPath id="bc5a895399"><path d="M 10.589844 8.820312 L 22.015625 12.910156 L 16.90625 27.191406 L 5.480469 23.101562 Z M 10.589844 8.820312 " clip-rule="nonzero"/></clipPath><clipPath id="df69c6f5f3"><path d="M 10.589844 8.820312 L 22.015625 12.910156 L 16.949219 27.0625 L 5.527344 22.972656 Z M 10.589844 8.820312 " clip-rule="nonzero"/></clipPath><clipPath id="259930f07f"><path d="M 10 2 L 25 2 L 25 14 L 10 14 Z M 10 2 " clip-rule="nonzero"/></clipPath><clipPath id="5ff03ca903"><path d="M 13.042969 1.964844 L 24.503906 6.066406 L 21.539062 14.351562 L 10.078125 10.25 Z M 13.042969 1.964844 " clip-rule="nonzero"/></clipPath><clipPath id="b542b33e89"><path d="M 14.410156 2.453125 L 23.109375 5.566406 C 23.863281 5.835938 24.257812 6.667969 23.988281 7.421875 L 22 12.976562 C 21.730469 13.730469 20.898438 14.121094 20.144531 13.851562 L 11.445312 10.738281 C 10.691406 10.46875 10.296875 9.640625 10.566406 8.882812 L 12.554688 3.332031 C 12.824219 2.574219 13.65625 2.183594 14.410156 2.453125 Z M 14.410156 2.453125 " clip-rule="nonzero"/></clipPath><clipPath id="c1347307e5"><path d="M 10 2 L 25 2 L 25 14 L 10 14 Z M 10 2 " clip-rule="nonzero"/></clipPath><clipPath id="e7eeb7fba0"><path d="M 13.042969 1.964844 L 24.660156 6.121094 L 21.726562 14.320312 L 10.109375 10.164062 Z M 13.042969 1.964844 " clip-rule="nonzero"/></clipPath><clipPath id="1aa21a3957"><path d="M 13.042969 1.964844 L 24.46875 6.054688 L 21.464844 14.445312 L 10.042969 10.355469 Z M 13.042969 1.964844 " clip-rule="nonzero"/></clipPath><clipPath id="dd2ae3708a"><path d="M 14.410156 2.453125 L 23.101562 5.566406 C 23.855469 5.835938 24.25 6.667969 23.980469 7.421875 L 21.992188 12.972656 C 21.722656 13.726562 20.894531 14.117188 20.140625 13.847656 L 11.445312 10.738281 C 10.691406 10.46875 10.296875 9.636719 10.570312 8.882812 L 12.554688 3.332031 C 12.824219 2.578125 13.65625 2.183594 14.410156 2.453125 Z M 14.410156 2.453125 " clip-rule="nonzero"/></clipPath><clipPath id="435bbb23ab"><path d="M 13 1 L 29.515625 1 L 29.515625 19 L 13 19 Z M 13 1 " clip-rule="nonzero"/></clipPath></defs><g clip-path="url(#38de46c8e6)"><g clip-path="url(#56d9f82d02)"><g clip-path="url(#2a65b5c6e4)"><path fill="#919191" d="M 10.59375 8.816406 L 22.023438 12.910156 L 16.957031 27.0625 L 5.527344 22.972656 Z M 10.59375 8.816406 " fill-opacity="1" fill-rule="nonzero"/></g></g></g><g clip-path="url(#ae812927bb)"><g clip-path="url(#fc9eb1b04e)"><g clip-path="url(#bc5a895399)"><g clip-path="url(#df69c6f5f3)"><path stroke-linecap="butt" transform="matrix(0.683361, 0.244566, -0.244566, 0.683361, 10.590897, 8.819903)" fill="none" stroke-linejoin="miter" d="M -0.00117638 0.00102003 L 16.719127 0.00193795 L 16.71722 20.712523 L 0.00198469 20.709792 Z M -0.00117638 0.00102003 " stroke="#000000" stroke-width="4" stroke-opacity="1" stroke-miterlimit="4"/></g></g></g></g><g clip-path="url(#259930f07f)"><g clip-path="url(#5ff03ca903)"><g clip-path="url(#b542b33e89)"><path fill="#919191" d="M 13.042969 1.964844 L 24.472656 6.054688 L 21.503906 14.339844 L 10.078125 10.25 Z M 13.042969 1.964844 " fill-opacity="1" fill-rule="nonzero"/></g></g></g><g clip-path="url(#c1347307e5)"><g clip-path="url(#e7eeb7fba0)"><g clip-path="url(#1aa21a3957)"><g clip-path="url(#dd2ae3708a)"><path stroke-linecap="butt" transform="matrix(0.683361, 0.244566, -0.244566, 0.683361, 13.043898, 1.965779)" fill="none" stroke-linejoin="miter" d="M 1.998569 -0.00210064 L 14.718455 0.00145602 C 15.821557 0.00109043 16.719618 0.897244 16.719983 2.000345 L 16.717739 10.123912 C 16.718105 11.227014 15.825205 12.118194 14.722104 12.118559 L 1.998964 12.121883 C 0.895862 12.122249 -0.00219836 11.226096 0.00250325 10.121181 L -0.000319814 1.999427 C -0.000685412 0.896326 0.895468 -0.00173505 1.998569 -0.00210064 Z M 1.998569 -0.00210064 " stroke="#000000" stroke-width="4" stroke-opacity="1" stroke-miterlimit="4"/></g></g></g></g><path stroke-linecap="butt" transform="matrix(0.683361, 0.244566, -0.244566, 0.683361, 15.548268, 6.763274)" fill="none" stroke-linejoin="miter" d="M 0.000663625 0.997827 L 5.775026 1.000535 " stroke="#000000" stroke-width="2" stroke-opacity="1" stroke-miterlimit="4"/><path stroke-linecap="butt" transform="matrix(0.683361, 0.244566, -0.244566, 0.683361, 10.953821, 5.118981)" fill="none" stroke-linejoin="miter" d="M 0.00145787 0.997193 L 2.495478 1.002065 " stroke="#000000" stroke-width="2" stroke-opacity="1" stroke-miterlimit="4"/><g clip-path="url(#435bbb23ab)"><path stroke-linecap="butt" transform="matrix(0.683361, 0.244566, -0.244566, 0.683361, 22.385006, 9.210053)" fill="none" stroke-linejoin="miter" d="M 0.00075915 1.001364 L 2.492966 1.001168 " stroke="#000000" stroke-width="2" stroke-opacity="1" stroke-miterlimit="4"/></g></svg>