<svg xmlns="http://www.w3.org/2000/svg" xmlns:xlink="http://www.w3.org/1999/xlink" width="40" zoomAndPan="magnify" viewBox="0 0 30 30.000001" height="40" preserveAspectRatio="xMidYMid meet" version="1.0"><defs><clipPath id="14e024703e"><path d="M 7 2 L 22 2 L 22 20 L 7 20 Z M 7 2 " clip-rule="nonzero"/></clipPath><clipPath id="55576fe66c"><path d="M 21.667969 17.242188 L 9.722656 19.425781 L 7.011719 4.589844 L 18.957031 2.40625 Z M 21.667969 17.242188 " clip-rule="nonzero"/></clipPath><clipPath id="4003e8627b"><path d="M 21.667969 17.242188 L 9.722656 19.425781 L 7.019531 4.628906 L 18.960938 2.445312 Z M 21.667969 17.242188 " clip-rule="nonzero"/></clipPath><clipPath id="a97ab0ff6b"><path d="M 7 2 L 22 2 L 22 20 L 7 20 Z M 7 2 " clip-rule="nonzero"/></clipPath><clipPath id="67439933a2"><path d="M 21.667969 17.242188 L 9.527344 19.460938 L 6.789062 4.464844 L 18.925781 2.25 Z M 21.667969 17.242188 " clip-rule="nonzero"/></clipPath><clipPath id="5baccceeed"><path d="M 21.664062 17.238281 L 9.730469 19.421875 L 7.003906 4.5 L 18.9375 2.316406 Z M 21.664062 17.238281 " clip-rule="nonzero"/></clipPath><clipPath id="a390c09ef4"><path d="M 21.664062 17.238281 L 9.730469 19.421875 L 7.027344 4.632812 L 18.964844 2.453125 Z M 21.664062 17.238281 " clip-rule="nonzero"/></clipPath><clipPath id="a10631f064"><path d="M 9 15 L 23 15 L 23 27 L 9 27 Z M 9 15 " clip-rule="nonzero"/></clipPath><clipPath id="5303b96adc"><path d="M 22.976562 24.402344 L 11.003906 26.589844 L 9.421875 17.933594 L 21.394531 15.742188 Z M 22.976562 24.402344 " clip-rule="nonzero"/></clipPath><clipPath id="a53de4ebf8"><path d="M 21.546875 24.664062 L 12.460938 26.324219 C 11.671875 26.46875 10.914062 25.945312 10.769531 25.15625 L 9.710938 19.355469 C 9.566406 18.566406 10.089844 17.808594 10.878906 17.664062 L 19.964844 16.003906 C 20.753906 15.859375 21.507812 16.382812 21.652344 17.171875 L 22.714844 22.972656 C 22.859375 23.761719 22.335938 24.519531 21.546875 24.664062 Z M 21.546875 24.664062 " clip-rule="nonzero"/></clipPath><clipPath id="144b8de589"><path d="M 9 15 L 23 15 L 23 27 L 9 27 Z M 9 15 " clip-rule="nonzero"/></clipPath><clipPath id="ae813fdb18"><path d="M 22.976562 24.402344 L 10.835938 26.621094 L 9.273438 18.050781 L 21.410156 15.835938 Z M 22.976562 24.402344 " clip-rule="nonzero"/></clipPath><clipPath id="07361c4793"><path d="M 22.976562 24.398438 L 11.039062 26.582031 L 9.4375 17.816406 L 21.371094 15.632812 Z M 22.976562 24.398438 " clip-rule="nonzero"/></clipPath><clipPath id="34ead99421"><path d="M 21.546875 24.660156 L 12.464844 26.320312 C 11.675781 26.464844 10.921875 25.941406 10.777344 25.15625 L 9.71875 19.355469 C 9.574219 18.566406 10.09375 17.8125 10.882812 17.667969 L 19.964844 16.007812 C 20.753906 15.863281 21.511719 16.386719 21.652344 17.175781 L 22.714844 22.972656 C 22.859375 23.761719 22.335938 24.515625 21.546875 24.660156 Z M 21.546875 24.660156 " clip-rule="nonzero"/></clipPath><clipPath id="e1002e75b4"><path d="M 5 12 L 27 12 L 27 29.03125 L 5 29.03125 Z M 5 12 " clip-rule="nonzero"/></clipPath><clipPath id="27bf4a4c85"><path d="M 13 11 L 29.515625 11 L 29.515625 29 L 13 29 Z M 13 11 " clip-rule="nonzero"/></clipPath><clipPath id="1a357cae8e"><path d="M 1 13 L 20 13 L 20 29.03125 L 1 29.03125 Z M 1 13 " clip-rule="nonzero"/></clipPath></defs><g clip-path="url(#14e024703e)"><g clip-path="url(#55576fe66c)"><g clip-path="url(#4003e8627b)"><path fill="#919191" d="M 21.667969 17.242188 L 9.722656 19.425781 L 7.019531 4.636719 L 18.964844 2.453125 Z M 21.667969 17.242188 " fill-opacity="1" fill-rule="nonzero"/></g></g></g><g clip-path="url(#a97ab0ff6b)"><g clip-path="url(#67439933a2)"><g clip-path="url(#5baccceeed)"><g clip-path="url(#a390c09ef4)"><path stroke-linecap="butt" transform="matrix(-0.713982, 0.130481, -0.130481, -0.713982, 21.665988, 17.239067)" fill="none" stroke-linejoin="miter" d="M 0.00241448 0.00154242 L 16.717235 -0.00213822 L 16.717786 20.711469 L -0.00136102 20.708888 Z M 0.00241448 0.00154242 " stroke="#000000" stroke-width="4" stroke-opacity="1" stroke-miterlimit="4"/></g></g></g></g><g clip-path="url(#a10631f064)"><g clip-path="url(#5303b96adc)"><g clip-path="url(#a53de4ebf8)"><path fill="#919191" d="M 22.976562 24.402344 L 11.035156 26.582031 L 9.453125 17.925781 L 21.394531 15.742188 Z M 22.976562 24.402344 " fill-opacity="1" fill-rule="nonzero"/></g></g></g><g clip-path="url(#144b8de589)"><g clip-path="url(#ae813fdb18)"><g clip-path="url(#07361c4793)"><g clip-path="url(#34ead99421)"><path stroke-linecap="butt" transform="matrix(-0.713982, 0.130481, -0.130481, -0.713982, 22.974714, 24.400314)" fill="none" stroke-linejoin="miter" d="M 1.999555 0.00148687 L 14.719915 0.000938599 C 15.825155 0.000492472 16.717298 0.896657 16.718711 1.996603 L 16.716671 10.120783 C 16.717117 11.226022 15.826246 12.119133 14.721007 12.119579 L 2.000647 12.120127 C 0.895407 12.120574 -0.00203043 11.223441 0.00281771 10.119169 L -0.00140331 1.999316 C -0.00184944 0.894076 0.894315 0.001933 1.999555 0.00148687 Z M 1.999555 0.00148687 " stroke="#000000" stroke-width="4" stroke-opacity="1" stroke-miterlimit="4"/></g></g></g></g><g clip-path="url(#e1002e75b4)"><path stroke-linecap="butt" transform="matrix(-0.713982, 0.130481, -0.130481, -0.713982, 18.404677, 21.501591)" fill="none" stroke-linejoin="miter" d="M 0.00138751 0.998218 L 5.778862 0.99814 " stroke="#000000" stroke-width="2" stroke-opacity="1" stroke-miterlimit="4"/></g><g clip-path="url(#27bf4a4c85)"><path stroke-linecap="butt" transform="matrix(-0.713982, 0.130481, -0.130481, -0.713982, 23.204995, 20.624327)" fill="none" stroke-linejoin="miter" d="M 0.000353402 1.00033 L 2.494842 1.002101 " stroke="#000000" stroke-width="2" stroke-opacity="1" stroke-miterlimit="4"/></g><g clip-path="url(#1a357cae8e)"><path stroke-linecap="butt" transform="matrix(-0.713982, 0.130481, -0.130481, -0.713982, 11.261595, 22.806997)" fill="none" stroke-linejoin="miter" d="M -0.00212035 0.998584 L 2.492368 1.000355 " stroke="#000000" stroke-width="2" stroke-opacity="1" stroke-miterlimit="4"/></g></svg>