<svg xmlns="http://www.w3.org/2000/svg" xmlns:xlink="http://www.w3.org/1999/xlink" width="40" zoomAndPan="magnify" viewBox="0 0 30 30.000001" height="40" preserveAspectRatio="xMidYMid meet" version="1.0"><defs><clipPath id="e665e6827a"><path d="M 2 7 L 22 7 L 22 26 L 2 26 Z M 2 7 " clip-rule="nonzero"/></clipPath><clipPath id="089947e867"><path d="M 15.285156 7.316406 L 21.414062 17.800781 L 8.390625 25.410156 L 2.265625 14.929688 Z M 15.285156 7.316406 " clip-rule="nonzero"/></clipPath><clipPath id="878c500002"><path d="M 15.285156 7.316406 L 21.414062 17.800781 L 8.429688 25.390625 L 2.300781 14.90625 Z M 15.285156 7.316406 " clip-rule="nonzero"/></clipPath><clipPath id="c8ff17dce1"><path d="M 2 7 L 22 7 L 22 26 L 2 26 Z M 2 7 " clip-rule="nonzero"/></clipPath><clipPath id="c77c1ca474"><path d="M 15.285156 7.316406 L 21.511719 17.96875 L 8.351562 25.660156 L 2.128906 15.007812 Z M 15.285156 7.316406 " clip-rule="nonzero"/></clipPath><clipPath id="1d389eb276"><path d="M 15.285156 7.320312 L 21.40625 17.796875 L 8.3125 25.449219 L 2.1875 14.972656 Z M 15.285156 7.320312 " clip-rule="nonzero"/></clipPath><clipPath id="6c123521e9"><path d="M 15.285156 7.320312 L 21.40625 17.796875 L 8.429688 25.382812 L 2.304688 14.90625 Z M 15.285156 7.320312 " clip-rule="nonzero"/></clipPath><clipPath id="6ca8f5474d"><path d="M 14 4 L 28 4 L 28 19 L 14 19 Z M 14 4 " clip-rule="nonzero"/></clipPath><clipPath id="df15f765b8"><path d="M 21.570312 3.644531 L 27.710938 14.152344 L 20.113281 18.59375 L 13.972656 8.085938 Z M 21.570312 3.644531 " clip-rule="nonzero"/></clipPath><clipPath id="414d5236aa"><path d="M 22.300781 4.898438 L 26.964844 12.875 C 27.367188 13.566406 27.136719 14.453125 26.445312 14.859375 L 21.351562 17.835938 C 20.660156 18.238281 19.769531 18.007812 19.367188 17.316406 L 14.703125 9.339844 C 14.300781 8.648438 14.53125 7.757812 15.226562 7.355469 L 20.316406 4.378906 C 21.007812 3.972656 21.898438 4.207031 22.300781 4.898438 Z M 22.300781 4.898438 " clip-rule="nonzero"/></clipPath><clipPath id="cc90b1ddcb"><path d="M 14 4 L 28 4 L 28 19 L 14 19 Z M 14 4 " clip-rule="nonzero"/></clipPath><clipPath id="5c1efaf6c4"><path d="M 21.570312 3.644531 L 27.796875 14.296875 L 20.277344 18.691406 L 14.050781 8.039062 Z M 21.570312 3.644531 " clip-rule="nonzero"/></clipPath><clipPath id="975b5d4bfa"><path d="M 21.570312 3.644531 L 27.691406 14.121094 L 20 18.617188 L 13.875 8.140625 Z M 21.570312 3.644531 " clip-rule="nonzero"/></clipPath><clipPath id="0f4e66610f"><path d="M 22.300781 4.898438 L 26.960938 12.871094 C 27.363281 13.5625 27.132812 14.449219 26.4375 14.855469 L 21.351562 17.828125 C 20.660156 18.234375 19.769531 18 19.367188 17.308594 L 14.707031 9.335938 C 14.300781 8.644531 14.535156 7.757812 15.226562 7.351562 L 20.316406 4.378906 C 21.007812 3.972656 21.894531 4.207031 22.300781 4.898438 Z M 22.300781 4.898438 " clip-rule="nonzero"/></clipPath><clipPath id="8bfb54f9cd"><path d="M 11 1 L 29.515625 1 L 29.515625 22 L 11 22 Z M 11 1 " clip-rule="nonzero"/></clipPath><clipPath id="637f1121a1"><path d="M 15 7 L 29.515625 7 L 29.515625 26 L 15 26 Z M 15 7 " clip-rule="nonzero"/></clipPath></defs><g clip-path="url(#e665e6827a)"><g clip-path="url(#089947e867)"><g clip-path="url(#878c500002)"><path fill="#919191" d="M 15.285156 7.316406 L 21.414062 17.800781 L 8.433594 25.386719 L 2.304688 14.90625 Z M 15.285156 7.316406 " fill-opacity="1" fill-rule="nonzero"/></g></g></g><g clip-path="url(#c8ff17dce1)"><g clip-path="url(#c77c1ca474)"><g clip-path="url(#1d389eb276)"><g clip-path="url(#6c123521e9)"><path stroke-linecap="butt" transform="matrix(0.366259, 0.626618, -0.626618, 0.366259, 15.283588, 7.31928)" fill="none" stroke-linejoin="miter" d="M 0.00231813 -0.00114722 L 16.71983 0.00178724 L 16.721168 20.71147 L 0.000939731 20.713182 Z M 0.00231813 -0.00114722 " stroke="#000000" stroke-width="4" stroke-opacity="1" stroke-miterlimit="4"/></g></g></g></g><g clip-path="url(#6ca8f5474d)"><g clip-path="url(#df15f765b8)"><g clip-path="url(#414d5236aa)"><path fill="#919191" d="M 21.570312 3.644531 L 27.695312 14.121094 L 20.097656 18.5625 L 13.972656 8.085938 Z M 21.570312 3.644531 " fill-opacity="1" fill-rule="nonzero"/></g></g></g><g clip-path="url(#cc90b1ddcb)"><g clip-path="url(#5c1efaf6c4)"><g clip-path="url(#975b5d4bfa)"><g clip-path="url(#0f4e66610f)"><path stroke-linecap="butt" transform="matrix(0.366259, 0.626618, -0.626618, 0.366259, 21.568573, 3.645701)" fill="none" stroke-linejoin="miter" d="M 1.999193 0.0000204989 L 14.722603 -0.000135439 C 15.824757 0.00198645 16.719266 0.892625 16.719074 2.002142 L 16.71898 10.11858 C 16.721505 11.223449 15.823504 12.119888 14.72135 12.117766 L 1.997939 12.117922 C 0.893069 12.120447 0.00127676 11.225161 -0.0012478 10.120292 L 0.00156208 1.999207 C -0.000962483 0.894337 0.894323 0.00254506 1.999193 0.0000204989 Z M 1.999193 0.0000204989 " stroke="#000000" stroke-width="4" stroke-opacity="1" stroke-miterlimit="4"/></g></g></g></g><g clip-path="url(#8bfb54f9cd)"><path stroke-linecap="butt" transform="matrix(0.366259, 0.626618, -0.626618, 0.366259, 20.403072, 8.930532)" fill="none" stroke-linejoin="miter" d="M 0.000718997 0.999001 L 5.777252 1.002868 " stroke="#000000" stroke-width="2" stroke-opacity="1" stroke-miterlimit="4"/></g><path stroke-linecap="butt" transform="matrix(0.366259, 0.626618, -0.626618, 0.366259, 17.940603, 4.717589)" fill="none" stroke-linejoin="miter" d="M -0.00319315 1.000505 L 2.495542 1.002293 " stroke="#000000" stroke-width="2" stroke-opacity="1" stroke-miterlimit="4"/><g clip-path="url(#637f1121a1)"><path stroke-linecap="butt" transform="matrix(0.366259, 0.626618, -0.626618, 0.366259, 24.067333, 15.199574)" fill="none" stroke-linejoin="miter" d="M 0.00116226 0.999577 L 2.495251 0.998649 " stroke="#000000" stroke-width="2" stroke-opacity="1" stroke-miterlimit="4"/></g></svg>