<svg xmlns="http://www.w3.org/2000/svg" xmlns:xlink="http://www.w3.org/1999/xlink" width="40" zoomAndPan="magnify" viewBox="0 0 30 30.000001" height="40" preserveAspectRatio="xMidYMid meet" version="1.0"><defs><clipPath id="f3b1015796"><path d="M 3.839844 8.445312 L 18.878906 8.445312 L 18.878906 20.585938 L 3.839844 20.585938 Z M 3.839844 8.445312 " clip-rule="nonzero"/></clipPath><clipPath id="99e88395d9"><path d="M 3.84375 8.445312 L 18.875 8.445312 L 18.875 20.582031 L 3.84375 20.582031 Z M 3.84375 8.445312 " clip-rule="nonzero"/></clipPath><clipPath id="2e1c672593"><path d="M 17.355469 8.445312 L 26.15625 8.445312 L 26.15625 20.617188 L 17.355469 20.617188 Z M 17.355469 8.445312 " clip-rule="nonzero"/></clipPath><clipPath id="7d76863ca9"><path d="M 26.15625 9.898438 L 26.15625 19.136719 C 26.15625 19.9375 25.507812 20.585938 24.707031 20.585938 L 18.808594 20.585938 C 18.007812 20.585938 17.355469 19.9375 17.355469 19.136719 L 17.355469 9.898438 C 17.355469 9.097656 18.007812 8.445312 18.808594 8.445312 L 24.707031 8.445312 C 25.507812 8.445312 26.15625 9.097656 26.15625 9.898438 Z M 26.15625 9.898438 " clip-rule="nonzero"/></clipPath><clipPath id="56b765cabd"><path d="M 17.449219 8.445312 L 26.15625 8.445312 L 26.15625 20.582031 L 17.449219 20.582031 Z M 17.449219 8.445312 " clip-rule="nonzero"/></clipPath><clipPath id="8233b74e44"><path d="M 26.15625 9.898438 L 26.15625 19.128906 C 26.15625 19.929688 25.507812 20.582031 24.707031 20.582031 L 18.808594 20.582031 C 18.007812 20.582031 17.359375 19.929688 17.359375 19.128906 L 17.359375 9.898438 C 17.359375 9.097656 18.007812 8.445312 18.808594 8.445312 L 24.707031 8.445312 C 25.507812 8.445312 26.15625 9.097656 26.15625 9.898438 Z M 26.15625 9.898438 " clip-rule="nonzero"/></clipPath></defs><g clip-path="url(#f3b1015796)"><path fill="#919191" d="M 18.878906 8.445312 L 18.878906 20.585938 L 3.84375 20.585938 L 3.84375 8.445312 Z M 18.878906 8.445312 " fill-opacity="1" fill-rule="nonzero"/></g><g clip-path="url(#99e88395d9)"><path stroke-linecap="butt" transform="matrix(0, 0.725806, -0.725806, 0, 18.876151, 8.446569)" fill="none" stroke-linejoin="miter" d="M -0.00173148 0.00158639 L 16.71997 0.00158639 L 16.71997 20.711309 L -0.00173148 20.711309 Z M -0.00173148 0.00158639 " stroke="#000000" stroke-width="4" stroke-opacity="1" stroke-miterlimit="4"/></g><g clip-path="url(#2e1c672593)"><g clip-path="url(#7d76863ca9)"><path fill="#919191" d="M 26.15625 8.445312 L 26.15625 20.582031 L 17.355469 20.582031 L 17.355469 8.445312 Z M 26.15625 8.445312 " fill-opacity="1" fill-rule="nonzero"/></g></g><g clip-path="url(#56b765cabd)"><g clip-path="url(#8233b74e44)"><path stroke-linecap="butt" transform="matrix(0, 0.725806, -0.725806, 0, 26.156001, 8.446569)" fill="none" stroke-linejoin="miter" d="M 2.000352 -0.000343415 L 14.717887 -0.000343415 C 15.821185 -0.000343415 16.71997 0.893059 16.71997 1.996358 L 16.71997 10.123094 C 16.71997 11.226393 15.821185 12.119796 14.717887 12.119796 L 2.000352 12.119796 C 0.897053 12.119796 -0.00173148 11.226393 -0.00173148 10.123094 L -0.00173148 1.996358 C -0.00173148 0.893059 0.897053 -0.000343415 2.000352 -0.000343415 Z M 2.000352 -0.000343415 " stroke="#000000" stroke-width="4" stroke-opacity="1" stroke-miterlimit="4"/></g></g><path stroke-linecap="butt" transform="matrix(-0.000000000000000112, 0.725806, -0.725806, -0.000000000000000112, 22.482931, 12.421035)" fill="none" stroke-linejoin="miter" d="M 0.00115681 0.999052 L 5.775983 0.999052 " stroke="#000000" stroke-width="2" stroke-opacity="1" stroke-miterlimit="4"/><path stroke-linecap="butt" transform="matrix(0, 0.725806, -0.725806, 0, 22.482931, 7.541216)" fill="none" stroke-linejoin="miter" d="M 0.00241502 0.999052 L 2.494255 0.999052 " stroke="#000000" stroke-width="2" stroke-opacity="1" stroke-miterlimit="4"/><path stroke-linecap="butt" transform="matrix(-0.000000000000000517, 0.725806, -0.725806, -0.000000000000000517, 22.482931, 19.682422)" fill="none" stroke-linejoin="miter" d="M 0.00161497 0.999052 L 2.493455 0.999052 " stroke="#000000" stroke-width="2" stroke-opacity="1" stroke-miterlimit="4"/></svg>