<svg xmlns="http://www.w3.org/2000/svg" xmlns:xlink="http://www.w3.org/1999/xlink" width="40" zoomAndPan="magnify" viewBox="0 0 30 30.000001" height="40" preserveAspectRatio="xMidYMid meet" version="1.0"><defs><clipPath id="3cbb3297fe"><path d="M 10 7 L 28 7 L 28 23 L 10 23 Z M 10 7 " clip-rule="nonzero"/></clipPath><clipPath id="628583a511"><path d="M 10.101562 19.796875 L 12.257812 7.851562 L 27.101562 10.53125 L 24.941406 22.480469 Z M 10.101562 19.796875 " clip-rule="nonzero"/></clipPath><clipPath id="d9ce18a1fb"><path d="M 10.101562 19.796875 L 12.257812 7.851562 L 27.058594 10.523438 L 24.902344 22.472656 Z M 10.101562 19.796875 " clip-rule="nonzero"/></clipPath><clipPath id="54efda1185"><path d="M 10 7 L 28 7 L 28 23 L 10 23 Z M 10 7 " clip-rule="nonzero"/></clipPath><clipPath id="6e78ed1fe2"><path d="M 10.101562 19.796875 L 12.292969 7.65625 L 27.292969 10.367188 L 25.101562 22.507812 Z M 10.101562 19.796875 " clip-rule="nonzero"/></clipPath><clipPath id="c8a07c4627"><path d="M 10.105469 19.800781 L 12.261719 7.859375 L 27.1875 10.554688 L 25.03125 22.496094 Z M 10.105469 19.800781 " clip-rule="nonzero"/></clipPath><clipPath id="b2912aa2ca"><path d="M 10.105469 19.800781 L 12.261719 7.859375 L 27.054688 10.53125 L 24.898438 22.472656 Z M 10.105469 19.800781 " clip-rule="nonzero"/></clipPath><clipPath id="2395323ce2"><path d="M 3 6 L 14 6 L 14 20 L 3 20 Z M 3 6 " clip-rule="nonzero"/></clipPath><clipPath id="0ad9b4e202"><path d="M 2.9375 18.503906 L 5.101562 6.527344 L 13.761719 8.09375 L 11.597656 20.070312 Z M 2.9375 18.503906 " clip-rule="nonzero"/></clipPath><clipPath id="04578502e2"><path d="M 3.195312 17.074219 L 4.839844 7.984375 C 4.980469 7.195312 5.734375 6.671875 6.523438 6.816406 L 12.328125 7.863281 C 13.117188 8.003906 13.640625 8.761719 13.5 9.550781 L 11.859375 18.640625 C 11.714844 19.429688 10.960938 19.953125 10.171875 19.8125 L 4.367188 18.761719 C 3.578125 18.621094 3.054688 17.863281 3.195312 17.074219 Z M 3.195312 17.074219 " clip-rule="nonzero"/></clipPath><clipPath id="81f29dbc5f"><path d="M 3 6 L 14 6 L 14 20 L 3 20 Z M 3 6 " clip-rule="nonzero"/></clipPath><clipPath id="7afb597d18"><path d="M 2.9375 18.503906 L 5.132812 6.363281 L 13.703125 7.910156 L 11.507812 20.054688 Z M 2.9375 18.503906 " clip-rule="nonzero"/></clipPath><clipPath id="574ee2a159"><path d="M 2.941406 18.503906 L 5.097656 6.5625 L 13.867188 8.148438 L 11.710938 20.089844 Z M 2.941406 18.503906 " clip-rule="nonzero"/></clipPath><clipPath id="afa882ab8a"><path d="M 3.199219 17.078125 L 4.839844 7.992188 C 4.980469 7.203125 5.738281 6.679688 6.523438 6.820312 L 12.324219 7.871094 C 13.113281 8.011719 13.636719 8.765625 13.496094 9.554688 L 11.855469 18.640625 C 11.710938 19.429688 10.957031 19.953125 10.167969 19.8125 L 4.367188 18.761719 C 3.578125 18.621094 3.054688 17.867188 3.199219 17.078125 Z M 3.199219 17.078125 " clip-rule="nonzero"/></clipPath><clipPath id="f5c6374d26"><path d="M 0.484375 3 L 17 3 L 17 24 L 0.484375 24 Z M 0.484375 3 " clip-rule="nonzero"/></clipPath><clipPath id="45ca1f7440"><path d="M 0.484375 10 L 16 10 L 16 29 L 0.484375 29 Z M 0.484375 10 " clip-rule="nonzero"/></clipPath></defs><g clip-path="url(#3cbb3297fe)"><g clip-path="url(#628583a511)"><g clip-path="url(#d9ce18a1fb)"><path fill="#919191" d="M 10.101562 19.796875 L 12.257812 7.851562 L 27.054688 10.523438 L 24.894531 22.472656 Z M 10.101562 19.796875 " fill-opacity="1" fill-rule="nonzero"/></g></g></g><g clip-path="url(#54efda1185)"><g clip-path="url(#6e78ed1fe2)"><g clip-path="url(#c8a07c4627)"><g clip-path="url(#b2912aa2ca)"><path stroke-linecap="butt" transform="matrix(0.129033, -0.714245, 0.714245, 0.129033, 10.103825, 19.79893)" fill="none" stroke-linejoin="miter" d="M -0.00210787 0.00268184 L 16.716564 0.00127239 L 16.717333 20.712477 L -0.00133897 20.713886 Z M -0.00210787 0.00268184 " stroke="#000000" stroke-width="4" stroke-opacity="1" stroke-miterlimit="4"/></g></g></g></g><g clip-path="url(#2395323ce2)"><g clip-path="url(#0ad9b4e202)"><g clip-path="url(#04578502e2)"><path fill="#919191" d="M 2.9375 18.503906 L 5.09375 6.5625 L 13.757812 8.125 L 11.597656 20.070312 Z M 2.9375 18.503906 " fill-opacity="1" fill-rule="nonzero"/></g></g></g><g clip-path="url(#81f29dbc5f)"><g clip-path="url(#7afb597d18)"><g clip-path="url(#574ee2a159)"><g clip-path="url(#afa882ab8a)"><path stroke-linecap="butt" transform="matrix(0.129033, -0.714245, 0.714245, 0.129033, 2.939939, 18.50473)" fill="none" stroke-linejoin="miter" d="M 1.997742 0.00210765 L 14.718586 0.00101444 C 15.822865 -0.00159426 16.718176 0.897661 16.719828 1.996644 L 16.715985 10.118897 C 16.718594 11.223177 15.824635 12.117531 14.720356 12.120139 L 1.999512 12.121232 C 0.894276 12.118545 -0.0000781212 11.224586 -0.00268683 10.120307 L 0.00115549 1.998053 C -0.00145321 0.893774 0.892505 -0.000579853 1.997742 0.00210765 Z M 1.997742 0.00210765 " stroke="#000000" stroke-width="4" stroke-opacity="1" stroke-miterlimit="4"/></g></g></g></g><g clip-path="url(#f5c6374d26)"><path stroke-linecap="butt" transform="matrix(0.129033, -0.714245, 0.714245, 0.129033, 7.261074, 15.246566)" fill="none" stroke-linejoin="miter" d="M 0.00111616 1.00154 L 5.775708 0.997446 " stroke="#000000" stroke-width="2" stroke-opacity="1" stroke-miterlimit="4"/></g><g clip-path="url(#45ca1f7440)"><path stroke-linecap="butt" transform="matrix(0.129033, -0.714245, 0.714245, 0.129033, 6.393548, 20.048653)" fill="none" stroke-linejoin="miter" d="M 0.00296937 1.00168 L 2.4965 0.999671 " stroke="#000000" stroke-width="2" stroke-opacity="1" stroke-miterlimit="4"/></g><path stroke-linecap="butt" transform="matrix(0.129033, -0.714245, 0.714245, 0.129033, 8.551992, 8.100851)" fill="none" stroke-linejoin="miter" d="M -0.000943656 0.999314 L 2.493543 1.002601 " stroke="#000000" stroke-width="2" stroke-opacity="1" stroke-miterlimit="4"/></svg>