<svg xmlns="http://www.w3.org/2000/svg" xmlns:xlink="http://www.w3.org/1999/xlink" width="40" zoomAndPan="magnify" viewBox="0 0 30 30.000001" height="40" preserveAspectRatio="xMidYMid meet" version="1.0"><defs><clipPath id="9b2634ef6b"><path d="M 3 7 L 23 7 L 23 27 L 3 27 Z M 3 7 " clip-rule="nonzero"/></clipPath><clipPath id="a051215ca3"><path d="M 12.839844 7.644531 L 22.144531 15.441406 L 12.457031 27 L 3.152344 19.199219 Z M 12.839844 7.644531 " clip-rule="nonzero"/></clipPath><clipPath id="5304e12a20"><path d="M 12.839844 7.644531 L 22.144531 15.441406 L 12.480469 26.96875 L 3.175781 19.167969 Z M 12.839844 7.644531 " clip-rule="nonzero"/></clipPath><clipPath id="900e4cbbfa"><path d="M 3 7 L 23 7 L 23 27 L 3 27 Z M 3 7 " clip-rule="nonzero"/></clipPath><clipPath id="7064c77c51"><path d="M 12.839844 7.644531 L 22.296875 15.570312 L 12.503906 27.25 L 3.046875 19.324219 Z M 12.839844 7.644531 " clip-rule="nonzero"/></clipPath><clipPath id="db4f196940"><path d="M 12.839844 7.644531 L 22.136719 15.441406 L 12.390625 27.066406 L 3.09375 19.269531 Z M 12.839844 7.644531 " clip-rule="nonzero"/></clipPath><clipPath id="327b2285be"><path d="M 12.839844 7.644531 L 22.136719 15.441406 L 12.480469 26.960938 L 3.179688 19.164062 Z M 12.839844 7.644531 " clip-rule="nonzero"/></clipPath><clipPath id="1355fe0b0f"><path d="M 12 2 L 27 2 L 27 17 L 12 17 Z M 12 2 " clip-rule="nonzero"/></clipPath><clipPath id="e993670e04"><path d="M 17.515625 2.066406 L 26.84375 9.882812 L 21.1875 16.628906 L 11.863281 8.808594 Z M 17.515625 2.066406 " clip-rule="nonzero"/></clipPath><clipPath id="17d689d763"><path d="M 18.628906 2.996094 L 25.707031 8.933594 C 26.324219 9.449219 26.402344 10.363281 25.886719 10.976562 L 22.097656 15.496094 C 21.585938 16.113281 20.667969 16.191406 20.054688 15.675781 L 12.976562 9.742188 C 12.359375 9.226562 12.28125 8.3125 12.796875 7.699219 L 16.585938 3.175781 C 17.101562 2.5625 18.015625 2.484375 18.628906 2.996094 Z M 18.628906 2.996094 " clip-rule="nonzero"/></clipPath><clipPath id="c8fe72d621"><path d="M 12 2 L 27 2 L 27 17 L 12 17 Z M 12 2 " clip-rule="nonzero"/></clipPath><clipPath id="b68e7f092d"><path d="M 17.515625 2.066406 L 26.972656 9.992188 L 21.375 16.667969 L 11.921875 8.738281 Z M 17.515625 2.066406 " clip-rule="nonzero"/></clipPath><clipPath id="9fe99a0579"><path d="M 17.515625 2.066406 L 26.816406 9.863281 L 21.089844 16.691406 L 11.789062 8.894531 Z M 17.515625 2.066406 " clip-rule="nonzero"/></clipPath><clipPath id="10f803564c"><path d="M 18.628906 3 L 25.703125 8.929688 C 26.316406 9.445312 26.398438 10.359375 25.882812 10.972656 L 22.09375 15.492188 C 21.582031 16.105469 20.664062 16.1875 20.050781 15.671875 L 12.976562 9.738281 C 12.363281 9.226562 12.28125 8.308594 12.796875 7.695312 L 16.582031 3.179688 C 17.097656 2.5625 18.015625 2.484375 18.628906 3 Z M 18.628906 3 " clip-rule="nonzero"/></clipPath><clipPath id="9caf1b6a33"><path d="M 9 0 L 29.515625 0 L 29.515625 19 L 9 19 Z M 9 0 " clip-rule="nonzero"/></clipPath><clipPath id="8a861ab4b5"><path d="M 15 4 L 29.515625 4 L 29.515625 23 L 15 23 Z M 15 4 " clip-rule="nonzero"/></clipPath></defs><g clip-path="url(#9b2634ef6b)"><g clip-path="url(#a051215ca3)"><g clip-path="url(#5304e12a20)"><path fill="#919191" d="M 12.839844 7.644531 L 22.144531 15.441406 L 12.484375 26.964844 L 3.183594 19.164062 Z M 12.839844 7.644531 " fill-opacity="1" fill-rule="nonzero"/></g></g></g><g clip-path="url(#900e4cbbfa)"><g clip-path="url(#7064c77c51)"><g clip-path="url(#db4f196940)"><g clip-path="url(#327b2285be)"><path stroke-linecap="butt" transform="matrix(0.556191, 0.466312, -0.466312, 0.556191, 12.838957, 7.645059)" fill="none" stroke-linejoin="miter" d="M 0.000469317 -0.00134226 L 16.717811 0.00113287 L 16.719672 20.711051 L -0.00179351 20.712034 Z M 0.000469317 -0.00134226 " stroke="#000000" stroke-width="4" stroke-opacity="1" stroke-miterlimit="4"/></g></g></g></g><g clip-path="url(#1355fe0b0f)"><g clip-path="url(#e993670e04)"><g clip-path="url(#17d689d763)"><path fill="#919191" d="M 17.515625 2.066406 L 26.816406 9.863281 L 21.164062 16.605469 L 11.863281 8.808594 Z M 17.515625 2.066406 " fill-opacity="1" fill-rule="nonzero"/></g></g></g><g clip-path="url(#c8fe72d621)"><g clip-path="url(#b68e7f092d)"><g clip-path="url(#9fe99a0579)"><g clip-path="url(#10f803564c)"><path stroke-linecap="butt" transform="matrix(0.556191, 0.466312, -0.466312, 0.556191, 17.516076, 2.066458)" fill="none" stroke-linejoin="miter" d="M 2.001287 0.000571728 L 14.719136 -0.000865057 C 15.823063 0.000663717 16.718788 0.893119 16.717259 1.997046 L 16.717394 10.1228 C 16.719989 11.22327 15.82341 12.122453 14.719483 12.120924 L 1.998176 12.118236 C 0.897706 12.120832 -0.00147649 11.224253 0.0000522833 10.120325 L -0.000748704 2.002153 C -0.00267769 0.894101 0.897359 -0.000957047 2.001287 0.000571728 Z M 2.001287 0.000571728 " stroke="#000000" stroke-width="4" stroke-opacity="1" stroke-miterlimit="4"/></g></g></g></g><g clip-path="url(#9caf1b6a33)"><path stroke-linecap="butt" transform="matrix(0.556191, 0.466312, -0.466312, 0.556191, 18.201885, 7.434651)" fill="none" stroke-linejoin="miter" d="M -0.0000735199 1.002481 L 5.77656 0.998332 " stroke="#000000" stroke-width="2" stroke-opacity="1" stroke-miterlimit="4"/></g><path stroke-linecap="butt" transform="matrix(0.556191, 0.466312, -0.466312, 0.556191, 14.462443, 4.299492)" fill="none" stroke-linejoin="miter" d="M -0.000227983 0.999807 L 2.494284 1.00132 " stroke="#000000" stroke-width="2" stroke-opacity="1" stroke-miterlimit="4"/><g clip-path="url(#8a861ab4b5)"><path stroke-linecap="butt" transform="matrix(0.556191, 0.466312, -0.466312, 0.556191, 23.766333, 12.099906)" fill="none" stroke-linejoin="miter" d="M 0.000939071 0.999489 L 2.495451 1.001001 " stroke="#000000" stroke-width="2" stroke-opacity="1" stroke-miterlimit="4"/></g></svg>