<svg xmlns="http://www.w3.org/2000/svg" xmlns:xlink="http://www.w3.org/1999/xlink" width="40" zoomAndPan="magnify" viewBox="0 0 30 30.000001" height="40" preserveAspectRatio="xMidYMid meet" version="1.0"><defs><clipPath id="122faf20d3"><path d="M 7 8 L 25 8 L 25 28 L 7 28 Z M 7 8 " clip-rule="nonzero"/></clipPath><clipPath id="145721475a"><path d="M 7.972656 12.929688 L 19.390625 8.800781 L 24.515625 22.984375 L 13.097656 27.113281 Z M 7.972656 12.929688 " clip-rule="nonzero"/></clipPath><clipPath id="1845d12a23"><path d="M 7.972656 12.929688 L 19.390625 8.800781 L 24.503906 22.945312 L 13.085938 27.074219 Z M 7.972656 12.929688 " clip-rule="nonzero"/></clipPath><clipPath id="e3d8e67f3d"><path d="M 7 8 L 25 8 L 25 28 L 7 28 Z M 7 8 " clip-rule="nonzero"/></clipPath><clipPath id="d3d9bd2332"><path d="M 7.972656 12.929688 L 19.574219 8.734375 L 24.757812 23.070312 L 13.152344 27.265625 Z M 7.972656 12.929688 " clip-rule="nonzero"/></clipPath><clipPath id="aada4ee4cc"><path d="M 7.972656 12.933594 L 19.382812 8.808594 L 24.542969 23.070312 L 13.128906 27.195312 Z M 7.972656 12.933594 " clip-rule="nonzero"/></clipPath><clipPath id="bc62767f3e"><path d="M 7.972656 12.933594 L 19.382812 8.808594 L 24.496094 22.945312 L 13.082031 27.070312 Z M 7.972656 12.933594 " clip-rule="nonzero"/></clipPath><clipPath id="05732650f8"><path d="M 5 2 L 20 2 L 20 14 L 5 14 Z M 5 2 " clip-rule="nonzero"/></clipPath><clipPath id="9749b1bc14"><path d="M 5.496094 6.085938 L 16.941406 1.945312 L 19.933594 10.222656 L 8.488281 14.363281 Z M 5.496094 6.085938 " clip-rule="nonzero"/></clipPath><clipPath id="dd197622a0"><path d="M 6.863281 5.589844 L 15.550781 2.449219 C 16.304688 2.179688 17.136719 2.566406 17.410156 3.320312 L 19.414062 8.867188 C 19.6875 9.621094 19.296875 10.453125 18.542969 10.726562 L 9.855469 13.867188 C 9.101562 14.140625 8.269531 13.75 7.996094 12.996094 L 5.992188 7.449219 C 5.71875 6.695312 6.109375 5.863281 6.863281 5.589844 Z M 6.863281 5.589844 " clip-rule="nonzero"/></clipPath><clipPath id="1180fd52de"><path d="M 5 2 L 20 2 L 20 14 L 5 14 Z M 5 2 " clip-rule="nonzero"/></clipPath><clipPath id="2500e31a3b"><path d="M 5.496094 6.085938 L 17.101562 1.890625 L 20.0625 10.082031 L 8.457031 14.273438 Z M 5.496094 6.085938 " clip-rule="nonzero"/></clipPath><clipPath id="b7d4d13d7b"><path d="M 5.496094 6.085938 L 16.910156 1.960938 L 19.9375 10.339844 L 8.527344 14.464844 Z M 5.496094 6.085938 " clip-rule="nonzero"/></clipPath><clipPath id="e49fe1ae75"><path d="M 6.863281 5.59375 L 15.546875 2.453125 C 16.296875 2.183594 17.128906 2.570312 17.402344 3.324219 L 19.40625 8.871094 C 19.679688 9.621094 19.289062 10.453125 18.535156 10.726562 L 9.851562 13.867188 C 9.097656 14.136719 8.265625 13.75 7.996094 12.996094 L 5.992188 7.449219 C 5.71875 6.695312 6.109375 5.867188 6.863281 5.59375 Z M 6.863281 5.59375 " clip-rule="nonzero"/></clipPath><clipPath id="3dd3a95958"><path d="M 0.484375 1 L 17 1 L 17 19 L 0.484375 19 Z M 0.484375 1 " clip-rule="nonzero"/></clipPath></defs><g clip-path="url(#122faf20d3)"><g clip-path="url(#145721475a)"><g clip-path="url(#1845d12a23)"><path fill="#919191" d="M 7.972656 12.929688 L 19.390625 8.800781 L 24.5 22.941406 L 13.082031 27.070312 Z M 7.972656 12.929688 " fill-opacity="1" fill-rule="nonzero"/></g></g></g><g clip-path="url(#e3d8e67f3d)"><g clip-path="url(#d3d9bd2332)"><g clip-path="url(#aada4ee4cc)"><g clip-path="url(#bc62767f3e)"><path stroke-linecap="butt" transform="matrix(0.682576, -0.24675, 0.24675, 0.682576, 7.972653, 12.932479)" fill="none" stroke-linejoin="miter" d="M -0.000518099 0.00144584 L 16.715923 0.00111911 L 16.719663 20.713314 L -0.00183912 20.711811 Z M -0.000518099 0.00144584 " stroke="#000000" stroke-width="4" stroke-opacity="1" stroke-miterlimit="4"/></g></g></g></g><g clip-path="url(#05732650f8)"><g clip-path="url(#9749b1bc14)"><g clip-path="url(#dd197622a0)"><path fill="#919191" d="M 5.496094 6.085938 L 16.910156 1.957031 L 19.902344 10.234375 L 8.488281 14.363281 Z M 5.496094 6.085938 " fill-opacity="1" fill-rule="nonzero"/></g></g></g><g clip-path="url(#1180fd52de)"><g clip-path="url(#2500e31a3b)"><g clip-path="url(#b7d4d13d7b)"><g clip-path="url(#e49fe1ae75)"><path stroke-linecap="butt" transform="matrix(0.682576, -0.24675, 0.24675, 0.682576, 5.497749, 6.086235)" fill="none" stroke-linejoin="miter" d="M 2.000018 0.00149278 L 14.722535 -0.000481699 C 15.820568 0.00158133 16.717504 0.89238 16.718673 1.997304 L 16.717018 10.123094 C 16.720016 11.222957 15.824156 12.118063 14.719232 12.119232 L 1.996715 12.121206 C 0.893621 12.117314 -0.00331572 11.226515 0.000576987 10.12342 L 0.00223235 1.997631 C 0.00106368 0.892707 0.895094 0.00266145 2.000018 0.00149278 Z M 2.000018 0.00149278 " stroke="#000000" stroke-width="4" stroke-opacity="1" stroke-miterlimit="4"/></g></g></g></g><path stroke-linecap="butt" transform="matrix(0.682576, -0.24675, 0.24675, 0.682576, 10.484208, 8.189344)" fill="none" stroke-linejoin="miter" d="M -0.00024622 0.998701 L 5.774522 0.997443 " stroke="#000000" stroke-width="2" stroke-opacity="1" stroke-miterlimit="4"/><g clip-path="url(#3dd3a95958)"><path stroke-linecap="butt" transform="matrix(0.682576, -0.24675, 0.24675, 0.682576, 5.895041, 9.848318)" fill="none" stroke-linejoin="miter" d="M -0.00167741 0.999915 L 2.494175 0.997957 " stroke="#000000" stroke-width="2" stroke-opacity="1" stroke-miterlimit="4"/></g><path stroke-linecap="butt" transform="matrix(0.682576, -0.24675, 0.24675, 0.682576, 17.313086, 5.720717)" fill="none" stroke-linejoin="miter" d="M -0.00116443 0.998189 L 2.492858 1.001292 " stroke="#000000" stroke-width="2" stroke-opacity="1" stroke-miterlimit="4"/></svg>