<svg xmlns="http://www.w3.org/2000/svg" xmlns:xlink="http://www.w3.org/1999/xlink" width="40" zoomAndPan="magnify" viewBox="0 0 30 30.000001" height="40" preserveAspectRatio="xMidYMid meet" version="1.0"><defs><clipPath id="ed01e8f3bb"><path d="M 5 1 L 23 1 L 23 21 L 5 21 Z M 5 1 " clip-rule="nonzero"/></clipPath><clipPath id="4a99bee9bd"><path d="M 22.027344 16.09375 L 10.613281 20.234375 L 5.472656 6.054688 L 16.886719 1.917969 Z M 22.027344 16.09375 " clip-rule="nonzero"/></clipPath><clipPath id="febd2aa0c3"><path d="M 22.027344 16.09375 L 10.613281 20.234375 L 5.484375 6.09375 L 16.898438 1.957031 Z M 22.027344 16.09375 " clip-rule="nonzero"/></clipPath><clipPath id="9bc3bac999"><path d="M 5 1 L 23 1 L 23 21 L 5 21 Z M 5 1 " clip-rule="nonzero"/></clipPath><clipPath id="360dc56e50"><path d="M 22.027344 16.09375 L 10.425781 20.300781 L 5.230469 5.972656 L 16.832031 1.765625 Z M 22.027344 16.09375 " clip-rule="nonzero"/></clipPath><clipPath id="04952a257b"><path d="M 22.027344 16.09375 L 10.617188 20.230469 L 5.449219 5.96875 L 16.855469 1.832031 Z M 22.027344 16.09375 " clip-rule="nonzero"/></clipPath><clipPath id="1f7ea0600b"><path d="M 22.027344 16.09375 L 10.617188 20.230469 L 5.492188 6.097656 L 16.902344 1.960938 Z M 22.027344 16.09375 " clip-rule="nonzero"/></clipPath><clipPath id="fb55cb51bb"><path d="M 10 15 L 25 15 L 25 27 L 10 27 Z M 10 15 " clip-rule="nonzero"/></clipPath><clipPath id="bf196aedbe"><path d="M 24.507812 22.9375 L 13.066406 27.085938 L 10.066406 18.8125 L 21.507812 14.664062 Z M 24.507812 22.9375 " clip-rule="nonzero"/></clipPath><clipPath id="207d382a77"><path d="M 23.144531 23.433594 L 14.460938 26.582031 C 13.707031 26.855469 12.875 26.464844 12.601562 25.710938 L 10.589844 20.167969 C 10.316406 19.414062 10.707031 18.582031 11.457031 18.308594 L 20.144531 15.15625 C 20.898438 14.886719 21.730469 15.273438 22.003906 16.027344 L 24.011719 21.574219 C 24.285156 22.328125 23.898438 23.160156 23.144531 23.433594 Z M 23.144531 23.433594 " clip-rule="nonzero"/></clipPath><clipPath id="132414deec"><path d="M 10 15 L 25 15 L 25 27 L 10 27 Z M 10 15 " clip-rule="nonzero"/></clipPath><clipPath id="288f78b040"><path d="M 24.507812 22.9375 L 12.910156 27.144531 L 9.941406 18.957031 L 21.539062 14.75 Z M 24.507812 22.9375 " clip-rule="nonzero"/></clipPath><clipPath id="53014838ee"><path d="M 24.507812 22.9375 L 13.101562 27.074219 L 10.0625 18.695312 L 21.46875 14.558594 Z M 24.507812 22.9375 " clip-rule="nonzero"/></clipPath><clipPath id="19f3ef0f5d"><path d="M 23.144531 23.429688 L 14.464844 26.578125 C 13.710938 26.851562 12.878906 26.460938 12.605469 25.707031 L 10.597656 20.167969 C 10.324219 19.414062 10.710938 18.582031 11.464844 18.308594 L 20.144531 15.160156 C 20.898438 14.886719 21.730469 15.277344 22.003906 16.03125 L 24.011719 21.570312 C 24.285156 22.324219 23.898438 23.15625 23.144531 23.429688 Z M 23.144531 23.429688 " clip-rule="nonzero"/></clipPath><clipPath id="8dee84ba2e"><path d="M 7 11 L 28 11 L 28 29.03125 L 7 29.03125 Z M 7 11 " clip-rule="nonzero"/></clipPath><clipPath id="dcf05ab17a"><path d="M 13 10 L 29.515625 10 L 29.515625 28 L 13 28 Z M 13 10 " clip-rule="nonzero"/></clipPath><clipPath id="c91bc8da7e"><path d="M 2 14 L 21 14 L 21 29.03125 L 2 29.03125 Z M 2 14 " clip-rule="nonzero"/></clipPath></defs><g clip-path="url(#ed01e8f3bb)"><g clip-path="url(#4a99bee9bd)"><g clip-path="url(#febd2aa0c3)"><path fill="#919191" d="M 22.027344 16.09375 L 10.613281 20.234375 L 5.488281 6.101562 L 16.902344 1.960938 Z M 22.027344 16.09375 " fill-opacity="1" fill-rule="nonzero"/></g></g></g><g clip-path="url(#9bc3bac999)"><g clip-path="url(#360dc56e50)"><g clip-path="url(#04952a257b)"><g clip-path="url(#1f7ea0600b)"><path stroke-linecap="butt" transform="matrix(-0.682328, 0.247435, -0.247435, -0.682328, 22.026116, 16.091987)" fill="none" stroke-linejoin="miter" d="M -0.000762206 -0.00286064 L 16.721175 -0.00157254 L 16.721121 20.71106 L -0.000816072 20.709772 Z M -0.000762206 -0.00286064 " stroke="#000000" stroke-width="4" stroke-opacity="1" stroke-miterlimit="4"/></g></g></g></g><g clip-path="url(#fb55cb51bb)"><g clip-path="url(#bf196aedbe)"><g clip-path="url(#207d382a77)"><path fill="#919191" d="M 24.507812 22.9375 L 13.097656 27.074219 L 10.097656 18.800781 L 21.507812 14.664062 Z M 24.507812 22.9375 " fill-opacity="1" fill-rule="nonzero"/></g></g></g><g clip-path="url(#132414deec)"><g clip-path="url(#288f78b040)"><g clip-path="url(#53014838ee)"><g clip-path="url(#19f3ef0f5d)"><path stroke-linecap="butt" transform="matrix(-0.682328, 0.247435, -0.247435, -0.682328, 24.507894, 22.935741)" fill="none" stroke-linejoin="miter" d="M 1.997892 0.000589728 L 14.719014 -0.00055747 C 15.823939 -0.000616128 16.718145 0.896143 16.718204 2.001068 L 16.717114 10.118567 C 16.717173 11.223492 15.825474 12.119533 14.720549 12.119592 L 1.999427 12.120739 C 0.894502 12.120797 0.000295475 11.224039 0.000236817 10.119114 L 0.00132633 2.001614 C 0.00126768 0.896689 0.892967 0.000648386 1.997892 0.000589728 Z M 1.997892 0.000589728 " stroke="#000000" stroke-width="4" stroke-opacity="1" stroke-miterlimit="4"/></g></g></g></g><g clip-path="url(#8dee84ba2e)"><path stroke-linecap="butt" transform="matrix(-0.682328, 0.247435, -0.247435, -0.682328, 19.519326, 20.837643)" fill="none" stroke-linejoin="miter" d="M -0.00156379 0.998063 L 5.775038 0.997546 " stroke="#000000" stroke-width="2" stroke-opacity="1" stroke-miterlimit="4"/></g><g clip-path="url(#dcf05ab17a)"><path stroke-linecap="butt" transform="matrix(-0.682328, 0.247435, -0.247435, -0.682328, 24.106824, 19.174059)" fill="none" stroke-linejoin="miter" d="M 0.000231321 0.999416 L 2.496084 0.999965 " stroke="#000000" stroke-width="2" stroke-opacity="1" stroke-miterlimit="4"/></g><g clip-path="url(#c91bc8da7e)"><path stroke-linecap="butt" transform="matrix(-0.682328, 0.247435, -0.247435, -0.682328, 12.69293, 23.313128)" fill="none" stroke-linejoin="miter" d="M -0.000653928 1.002539 L 2.497034 0.998029 " stroke="#000000" stroke-width="2" stroke-opacity="1" stroke-miterlimit="4"/></g></svg>