<svg xmlns="http://www.w3.org/2000/svg" xmlns:xlink="http://www.w3.org/1999/xlink" width="40" zoomAndPan="magnify" viewBox="0 0 30 30.000001" height="40" preserveAspectRatio="xMidYMid meet" version="1.0"><defs><clipPath id="938f683ea7"><path d="M 7 1 L 26 1 L 26 21 L 7 21 Z M 7 1 " clip-rule="nonzero"/></clipPath><clipPath id="9c44c0a8e1"><path d="M 18.300781 20.917969 L 7.800781 14.824219 L 15.371094 1.78125 L 25.871094 7.875 Z M 18.300781 20.917969 " clip-rule="nonzero"/></clipPath><clipPath id="de227190e0"><path d="M 18.300781 20.917969 L 7.800781 14.824219 L 15.347656 1.816406 L 25.847656 7.910156 Z M 18.300781 20.917969 " clip-rule="nonzero"/></clipPath><clipPath id="fea44b7b63"><path d="M 7 1 L 26 1 L 26 21 L 7 21 Z M 7 1 " clip-rule="nonzero"/></clipPath><clipPath id="2d173b980d"><path d="M 18.300781 20.917969 L 7.628906 14.726562 L 15.277344 1.542969 L 25.949219 7.734375 Z M 18.300781 20.917969 " clip-rule="nonzero"/></clipPath><clipPath id="6742dbedc7"><path d="M 18.300781 20.914062 L 7.804688 14.824219 L 15.421875 1.707031 L 25.914062 7.796875 Z M 18.300781 20.914062 " clip-rule="nonzero"/></clipPath><clipPath id="0ef1726874"><path d="M 18.300781 20.914062 L 7.804688 14.824219 L 15.351562 1.824219 L 25.847656 7.914062 Z M 18.300781 20.914062 " clip-rule="nonzero"/></clipPath><clipPath id="5703966bba"><path d="M 4 14 L 19 14 L 19 27 L 4 27 Z M 4 14 " clip-rule="nonzero"/></clipPath><clipPath id="760cd79fd6"><path d="M 14.644531 27.214844 L 4.121094 21.105469 L 8.539062 13.492188 L 19.0625 19.601562 Z M 14.644531 27.214844 " clip-rule="nonzero"/></clipPath><clipPath id="7f4804cb23"><path d="M 13.390625 26.484375 L 5.402344 21.847656 C 4.707031 21.445312 4.472656 20.558594 4.875 19.863281 L 7.835938 14.761719 C 8.238281 14.070312 9.125 13.832031 9.820312 14.234375 L 17.808594 18.871094 C 18.503906 19.273438 18.738281 20.164062 18.335938 20.855469 L 15.375 25.957031 C 14.972656 26.652344 14.085938 26.886719 13.390625 26.484375 Z M 13.390625 26.484375 " clip-rule="nonzero"/></clipPath><clipPath id="d0e138c40f"><path d="M 4 14 L 19 14 L 19 27 L 4 27 Z M 4 14 " clip-rule="nonzero"/></clipPath><clipPath id="62f554fbed"><path d="M 14.644531 27.214844 L 3.976562 21.019531 L 8.347656 13.488281 L 19.019531 19.679688 Z M 14.644531 27.214844 " clip-rule="nonzero"/></clipPath><clipPath id="37552ff650"><path d="M 14.648438 27.210938 L 4.152344 21.121094 L 8.625 13.414062 L 19.121094 19.503906 Z M 14.648438 27.210938 " clip-rule="nonzero"/></clipPath><clipPath id="d37fe381e8"><path d="M 13.394531 26.484375 L 5.40625 21.847656 C 4.714844 21.449219 4.476562 20.558594 4.878906 19.867188 L 7.839844 14.769531 C 8.242188 14.074219 9.128906 13.839844 9.824219 14.242188 L 17.808594 18.875 C 18.5 19.277344 18.738281 20.164062 18.335938 20.859375 L 15.375 25.957031 C 14.972656 26.652344 14.085938 26.886719 13.394531 26.484375 Z M 13.394531 26.484375 " clip-rule="nonzero"/></clipPath><clipPath id="cb59051f2b"><path d="M 1 11 L 22 11 L 22 29.03125 L 1 29.03125 Z M 1 11 " clip-rule="nonzero"/></clipPath><clipPath id="ed74a9907b"><path d="M 7 14 L 26 14 L 26 29.03125 L 7 29.03125 Z M 7 14 " clip-rule="nonzero"/></clipPath><clipPath id="23a5fc204f"><path d="M 0.484375 8 L 16 8 L 16 26 L 0.484375 26 Z M 0.484375 8 " clip-rule="nonzero"/></clipPath></defs><g clip-path="url(#938f683ea7)"><g clip-path="url(#9c44c0a8e1)"><g clip-path="url(#de227190e0)"><path fill="#919191" d="M 18.300781 20.917969 L 7.800781 14.824219 L 15.34375 1.820312 L 25.847656 7.914062 Z M 18.300781 20.917969 " fill-opacity="1" fill-rule="nonzero"/></g></g></g><g clip-path="url(#fea44b7b63)"><g clip-path="url(#2d173b980d)"><g clip-path="url(#6742dbedc7)"><g clip-path="url(#0ef1726874)"><path stroke-linecap="butt" transform="matrix(-0.627749, -0.364316, 0.364316, -0.627749, 18.301497, 20.915869)" fill="none" stroke-linejoin="miter" d="M 0.0021026 0.00165735 L 16.721206 -0.000248538 L 16.718488 20.710246 L -0.000616117 20.712152 Z M 0.0021026 0.00165735 " stroke="#000000" stroke-width="4" stroke-opacity="1" stroke-miterlimit="4"/></g></g></g></g><g clip-path="url(#5703966bba)"><g clip-path="url(#760cd79fd6)"><g clip-path="url(#7f4804cb23)"><path fill="#919191" d="M 14.644531 27.214844 L 4.148438 21.121094 L 8.566406 13.507812 L 19.0625 19.601562 Z M 14.644531 27.214844 " fill-opacity="1" fill-rule="nonzero"/></g></g></g><g clip-path="url(#d0e138c40f)"><g clip-path="url(#62f554fbed)"><g clip-path="url(#37552ff650)"><g clip-path="url(#d37fe381e8)"><path stroke-linecap="butt" transform="matrix(-0.627749, -0.364316, 0.364316, -0.627749, 14.647401, 27.212203)" fill="none" stroke-linejoin="miter" d="M 1.996312 0.000858429 L 14.722072 0.00168423 C 15.821526 -0.00167909 16.721401 0.894835 16.72011 1.99699 L 16.717136 10.11925 C 16.718546 11.22606 15.823985 12.118579 14.717175 12.119989 L 1.998771 12.121117 C 0.896616 12.119825 -0.00055803 11.227966 -0.00196796 10.121156 L 0.00100593 1.998896 C -0.000403996 0.892086 0.894157 -0.000433091 1.996312 0.000858429 Z M 1.996312 0.000858429 " stroke="#000000" stroke-width="4" stroke-opacity="1" stroke-miterlimit="4"/></g></g></g></g><g clip-path="url(#cb59051f2b)"><path stroke-linecap="butt" transform="matrix(-0.627749, -0.364316, 0.364316, -0.627749, 13.053576, 22.040398)" fill="none" stroke-linejoin="miter" d="M -0.00106948 0.998369 L 5.774699 1.00038 " stroke="#000000" stroke-width="2" stroke-opacity="1" stroke-miterlimit="4"/></g><g clip-path="url(#ed74a9907b)"><path stroke-linecap="butt" transform="matrix(-0.627749, -0.364316, 0.364316, -0.627749, 17.274125, 24.489808)" fill="none" stroke-linejoin="miter" d="M 0.0012075 0.997353 L 2.49258 1.00135 " stroke="#000000" stroke-width="2" stroke-opacity="1" stroke-miterlimit="4"/></g><g clip-path="url(#23a5fc204f)"><path stroke-linecap="butt" transform="matrix(-0.627749, -0.364316, 0.364316, -0.627749, 6.773215, 18.39557)" fill="none" stroke-linejoin="miter" d="M -0.000215125 0.9974 L 2.495812 0.998696 " stroke="#000000" stroke-width="2" stroke-opacity="1" stroke-miterlimit="4"/></g></svg>