<svg xmlns="http://www.w3.org/2000/svg" xmlns:xlink="http://www.w3.org/1999/xlink" width="40" zoomAndPan="magnify" viewBox="0 0 30 30.000001" height="40" preserveAspectRatio="xMidYMid meet" version="1.0"><defs><clipPath id="b03fa366a5"><path d="M 2 7 L 21 7 L 21 25 L 2 25 Z M 2 7 " clip-rule="nonzero"/></clipPath><clipPath id="8eb796407e"><path d="M 16.542969 7.480469 L 20.738281 18.875 L 6.582031 24.082031 L 2.390625 12.6875 Z M 16.542969 7.480469 " clip-rule="nonzero"/></clipPath><clipPath id="28a5b481fa"><path d="M 16.542969 7.480469 L 20.738281 18.875 L 6.621094 24.070312 L 2.429688 12.675781 Z M 16.542969 7.480469 " clip-rule="nonzero"/></clipPath><clipPath id="408b4b98b8"><path d="M 2 7 L 21 7 L 21 25 L 2 25 Z M 2 7 " clip-rule="nonzero"/></clipPath><clipPath id="58cee2b387"><path d="M 16.542969 7.480469 L 20.804688 19.058594 L 6.5 24.324219 L 2.238281 12.746094 Z M 16.542969 7.480469 " clip-rule="nonzero"/></clipPath><clipPath id="9a5eca6468"><path d="M 16.542969 7.480469 L 20.734375 18.867188 L 6.496094 24.109375 L 2.304688 12.71875 Z M 16.542969 7.480469 " clip-rule="nonzero"/></clipPath><clipPath id="9e821bfd8f"><path d="M 16.542969 7.480469 L 20.734375 18.867188 L 6.625 24.0625 L 2.433594 12.671875 Z M 16.542969 7.480469 " clip-rule="nonzero"/></clipPath><clipPath id="60d08da93a"><path d="M 15 5 L 28 5 L 28 19 L 15 19 Z M 15 5 " clip-rule="nonzero"/></clipPath><clipPath id="d2c695fbde"><path d="M 23.375 4.964844 L 27.578125 16.386719 L 19.320312 19.425781 L 15.113281 8.003906 Z M 23.375 4.964844 " clip-rule="nonzero"/></clipPath><clipPath id="321795b99e"><path d="M 23.875 6.328125 L 27.066406 14.996094 C 27.34375 15.75 26.957031 16.585938 26.207031 16.859375 L 20.671875 18.898438 C 19.917969 19.175781 19.085938 18.789062 18.808594 18.039062 L 15.617188 9.367188 C 15.339844 8.617188 15.726562 7.78125 16.476562 7.503906 L 22.011719 5.46875 C 22.765625 5.191406 23.597656 5.574219 23.875 6.328125 Z M 23.875 6.328125 " clip-rule="nonzero"/></clipPath><clipPath id="5089450f24"><path d="M 15 5 L 28 5 L 28 19 L 15 19 Z M 15 5 " clip-rule="nonzero"/></clipPath><clipPath id="f79836cfa6"><path d="M 23.375 4.964844 L 27.636719 16.546875 L 19.460938 19.554688 L 15.199219 7.972656 Z M 23.375 4.964844 " clip-rule="nonzero"/></clipPath><clipPath id="c1ec37f7bd"><path d="M 23.375 4.964844 L 27.5625 16.355469 L 19.203125 19.433594 L 15.011719 8.042969 Z M 23.375 4.964844 " clip-rule="nonzero"/></clipPath><clipPath id="db2840acc5"><path d="M 23.875 6.328125 L 27.0625 14.992188 C 27.339844 15.746094 26.953125 16.578125 26.203125 16.855469 L 20.671875 18.890625 C 19.917969 19.167969 19.085938 18.78125 18.808594 18.03125 L 15.617188 9.367188 C 15.34375 8.613281 15.726562 7.78125 16.480469 7.503906 L 22.011719 5.46875 C 22.761719 5.191406 23.597656 5.574219 23.875 6.328125 Z M 23.875 6.328125 " clip-rule="nonzero"/></clipPath><clipPath id="ed7eb88723"><path d="M 12 2 L 29.515625 2 L 29.515625 23 L 12 23 Z M 12 2 " clip-rule="nonzero"/></clipPath><clipPath id="7281da4855"><path d="M 14 8 L 29.515625 8 L 29.515625 27 L 14 27 Z M 14 8 " clip-rule="nonzero"/></clipPath></defs><g clip-path="url(#b03fa366a5)"><g clip-path="url(#8eb796407e)"><g clip-path="url(#28a5b481fa)"><path fill="#919191" d="M 16.542969 7.480469 L 20.738281 18.875 L 6.628906 24.066406 L 2.433594 12.671875 Z M 16.542969 7.480469 " fill-opacity="1" fill-rule="nonzero"/></g></g></g><g clip-path="url(#408b4b98b8)"><g clip-path="url(#58cee2b387)"><g clip-path="url(#9a5eca6468)"><g clip-path="url(#9e821bfd8f)"><path stroke-linecap="butt" transform="matrix(0.250689, 0.681139, -0.681139, 0.250689, 16.541255, 7.480795)" fill="none" stroke-linejoin="miter" d="M 0.000393973 -0.00237056 L 16.717855 -0.00313409 L 16.721009 20.71242 L -0.00150324 20.711324 Z M 0.000393973 -0.00237056 " stroke="#000000" stroke-width="4" stroke-opacity="1" stroke-miterlimit="4"/></g></g></g></g><g clip-path="url(#60d08da93a)"><g clip-path="url(#d2c695fbde)"><g clip-path="url(#321795b99e)"><path fill="#919191" d="M 23.375 4.964844 L 27.566406 16.355469 L 19.308594 19.394531 L 15.113281 8.003906 Z M 23.375 4.964844 " fill-opacity="1" fill-rule="nonzero"/></g></g></g><g clip-path="url(#5089450f24)"><g clip-path="url(#f79836cfa6)"><g clip-path="url(#c1ec37f7bd)"><g clip-path="url(#db2840acc5)"><path stroke-linecap="butt" transform="matrix(0.250689, 0.681139, -0.681139, 0.250689, 23.373086, 4.966379)" fill="none" stroke-linejoin="miter" d="M 1.999568 -0.000945633 L 14.718938 0.000680823 C 15.825709 0.000845121 16.717484 0.896811 16.719179 1.998532 L 16.718418 10.118845 C 16.718254 11.225616 15.822288 12.117391 14.720567 12.119086 L 1.999339 12.12251 C 0.894426 12.117295 0.000792401 11.22638 0.000956699 10.119608 L 0.00171724 1.999295 C 0.0000226439 0.897574 0.892797 -0.00110993 1.999568 -0.000945633 Z M 1.999568 -0.000945633 " stroke="#000000" stroke-width="4" stroke-opacity="1" stroke-miterlimit="4"/></g></g></g></g><g clip-path="url(#ed7eb88723)"><path stroke-linecap="butt" transform="matrix(0.250689, 0.681139, -0.681139, 0.250689, 21.298821, 9.964905)" fill="none" stroke-linejoin="miter" d="M -0.00120502 1.000283 L 5.774526 0.998366 " stroke="#000000" stroke-width="2" stroke-opacity="1" stroke-miterlimit="4"/></g><path stroke-linecap="butt" transform="matrix(0.250689, 0.681139, -0.681139, 0.250689, 19.613362, 5.385399)" fill="none" stroke-linejoin="miter" d="M 0.00146686 0.998528 L 2.495956 0.99903 " stroke="#000000" stroke-width="2" stroke-opacity="1" stroke-miterlimit="4"/><g clip-path="url(#7281da4855)"><path stroke-linecap="butt" transform="matrix(0.250689, 0.681139, -0.681139, 0.250689, 23.80686, 16.779406)" fill="none" stroke-linejoin="miter" d="M 0.00114946 1.001482 L 2.495639 1.001983 " stroke="#000000" stroke-width="2" stroke-opacity="1" stroke-miterlimit="4"/></g></svg>