<svg xmlns="http://www.w3.org/2000/svg" xmlns:xlink="http://www.w3.org/1999/xlink" width="40" zoomAndPan="magnify" viewBox="0 0 30 30.000001" height="40" preserveAspectRatio="xMidYMid meet" version="1.0"><defs><clipPath id="33ae6d1fb1"><path d="M 7 1 L 25 1 L 25 21 L 7 21 Z M 7 1 " clip-rule="nonzero"/></clipPath><clipPath id="87269658aa"><path d="M 19.378906 20.234375 L 7.96875 16.089844 L 13.113281 1.914062 L 24.523438 6.058594 Z M 19.378906 20.234375 " clip-rule="nonzero"/></clipPath><clipPath id="6a4c298c1d"><path d="M 19.378906 20.234375 L 7.96875 16.089844 L 13.097656 1.953125 L 24.511719 6.097656 Z M 19.378906 20.234375 " clip-rule="nonzero"/></clipPath><clipPath id="bf2108c13f"><path d="M 7 1 L 25 1 L 25 21 L 7 21 Z M 7 1 " clip-rule="nonzero"/></clipPath><clipPath id="4abaded2e1"><path d="M 19.378906 20.234375 L 7.78125 16.023438 L 12.980469 1.695312 L 24.578125 5.90625 Z M 19.378906 20.234375 " clip-rule="nonzero"/></clipPath><clipPath id="dc4851165d"><path d="M 19.378906 20.230469 L 7.972656 16.089844 L 13.148438 1.832031 L 24.554688 5.972656 Z M 19.378906 20.230469 " clip-rule="nonzero"/></clipPath><clipPath id="978974e2f7"><path d="M 19.378906 20.230469 L 7.972656 16.089844 L 13.101562 1.960938 L 24.507812 6.101562 Z M 19.378906 20.230469 " clip-rule="nonzero"/></clipPath><clipPath id="d17a14c061"><path d="M 5 15 L 20 15 L 20 27 L 5 27 Z M 5 15 " clip-rule="nonzero"/></clipPath><clipPath id="0435f2bf7b"><path d="M 16.898438 27.074219 L 5.457031 22.925781 L 8.457031 14.652344 L 19.898438 18.800781 Z M 16.898438 27.074219 " clip-rule="nonzero"/></clipPath><clipPath id="be2e7d47f1"><path d="M 15.53125 26.582031 L 6.847656 23.429688 C 6.09375 23.15625 5.707031 22.324219 5.980469 21.570312 L 7.992188 16.023438 C 8.265625 15.269531 9.097656 14.882812 9.851562 15.15625 L 18.535156 18.308594 C 19.289062 18.582031 19.675781 19.414062 19.402344 20.167969 L 17.390625 25.710938 C 17.117188 26.464844 16.285156 26.855469 15.53125 26.582031 Z M 15.53125 26.582031 " clip-rule="nonzero"/></clipPath><clipPath id="6803524218"><path d="M 5 15 L 20 15 L 20 27 L 5 27 Z M 5 15 " clip-rule="nonzero"/></clipPath><clipPath id="db7d2faa9e"><path d="M 16.898438 27.074219 L 5.296875 22.867188 L 8.269531 14.679688 L 19.867188 18.890625 Z M 16.898438 27.074219 " clip-rule="nonzero"/></clipPath><clipPath id="f16456c7c8"><path d="M 16.898438 27.074219 L 5.492188 22.933594 L 8.53125 14.558594 L 19.9375 18.699219 Z M 16.898438 27.074219 " clip-rule="nonzero"/></clipPath><clipPath id="eba84c1edf"><path d="M 15.535156 26.578125 L 6.855469 23.429688 C 6.101562 23.15625 5.710938 22.324219 5.984375 21.570312 L 7.996094 16.03125 C 8.269531 15.277344 9.101562 14.886719 9.855469 15.160156 L 18.535156 18.308594 C 19.289062 18.582031 19.675781 19.417969 19.402344 20.167969 L 17.390625 25.710938 C 17.117188 26.464844 16.285156 26.851562 15.535156 26.578125 Z M 15.535156 26.578125 " clip-rule="nonzero"/></clipPath><clipPath id="4b5743b54c"><path d="M 2 11 L 23 11 L 23 29.03125 L 2 29.03125 Z M 2 11 " clip-rule="nonzero"/></clipPath><clipPath id="01173699ad"><path d="M 9 14 L 28 14 L 28 29.03125 L 9 29.03125 Z M 9 14 " clip-rule="nonzero"/></clipPath><clipPath id="71a33fbbd3"><path d="M 0.484375 10 L 17 10 L 17 28 L 0.484375 28 Z M 0.484375 10 " clip-rule="nonzero"/></clipPath></defs><g clip-path="url(#33ae6d1fb1)"><g clip-path="url(#87269658aa)"><g clip-path="url(#6a4c298c1d)"><path fill="#919191" d="M 19.378906 20.234375 L 7.96875 16.089844 L 13.097656 1.960938 L 24.507812 6.101562 Z M 19.378906 20.234375 " fill-opacity="1" fill-rule="nonzero"/></g></g></g><g clip-path="url(#bf2108c13f)"><g clip-path="url(#4abaded2e1)"><g clip-path="url(#dc4851165d)"><g clip-path="url(#978974e2f7)"><path stroke-linecap="butt" transform="matrix(-0.682261, -0.247619, 0.247619, -0.682261, 19.380769, 20.231275)" fill="none" stroke-linejoin="miter" d="M 0.00279227 0.000169036 L 16.721507 0.00126839 L 16.720249 20.71068 L 0.00153445 20.709581 Z M 0.00279227 0.000169036 " stroke="#000000" stroke-width="4" stroke-opacity="1" stroke-miterlimit="4"/></g></g></g></g><g clip-path="url(#d17a14c061)"><g clip-path="url(#0435f2bf7b)"><g clip-path="url(#be2e7d47f1)"><path fill="#919191" d="M 16.898438 27.074219 L 5.488281 22.9375 L 8.492188 14.664062 L 19.898438 18.800781 Z M 16.898438 27.074219 " fill-opacity="1" fill-rule="nonzero"/></g></g></g><g clip-path="url(#6803524218)"><g clip-path="url(#db7d2faa9e)"><g clip-path="url(#f16456c7c8)"><g clip-path="url(#eba84c1edf)"><path stroke-linecap="butt" transform="matrix(-0.682261, -0.247619, 0.247619, -0.682261, 16.897145, 27.07436)" fill="none" stroke-linejoin="miter" d="M 1.997188 0.00248062 L 14.718311 0.000198597 C 15.823236 -0.0000405993 16.720236 0.893924 16.720476 1.998849 L 16.718694 10.118185 C 16.718933 11.22311 15.824969 12.12011 14.720044 12.120349 L 1.998921 12.122631 C 0.893996 12.12287 0.000218557 11.22201 0.00181549 10.122144 L 0.00176066 1.99775 C 0.00152147 0.892825 0.897322 0.000883692 1.997188 0.00248062 Z M 1.997188 0.00248062 " stroke="#000000" stroke-width="4" stroke-opacity="1" stroke-miterlimit="4"/></g></g></g></g><g clip-path="url(#4b5743b54c)"><path stroke-linecap="butt" transform="matrix(-0.682261, -0.247619, 0.247619, -0.682261, 14.414251, 22.265717)" fill="none" stroke-linejoin="miter" d="M 0.00288918 1.001039 L 5.774432 1.001835 " stroke="#000000" stroke-width="2" stroke-opacity="1" stroke-miterlimit="4"/></g><g clip-path="url(#01173699ad)"><path stroke-linecap="butt" transform="matrix(-0.682261, -0.247619, 0.247619, -0.682261, 19.0013, 23.930537)" fill="none" stroke-linejoin="miter" d="M -0.00221045 0.998275 L 2.495479 1.002113 " stroke="#000000" stroke-width="2" stroke-opacity="1" stroke-miterlimit="4"/></g><g clip-path="url(#71a33fbbd3)"><path stroke-linecap="butt" transform="matrix(-0.682261, -0.247619, 0.247619, -0.682261, 7.588523, 19.78839)" fill="none" stroke-linejoin="miter" d="M 0.000575513 1.000759 L 2.496429 0.999537 " stroke="#000000" stroke-width="2" stroke-opacity="1" stroke-miterlimit="4"/></g></svg>