<svg xmlns="http://www.w3.org/2000/svg" xmlns:xlink="http://www.w3.org/1999/xlink" width="40" zoomAndPan="magnify" viewBox="0 0 30 30.000001" height="40" preserveAspectRatio="xMidYMid meet" version="1.0"><defs><clipPath id="2c4563e830"><path d="M 8 2 L 28 2 L 28 22 L 8 22 Z M 8 2 " clip-rule="nonzero"/></clipPath><clipPath id="add956d32e"><path d="M 15.914062 21.660156 L 8.125 12.347656 L 19.695312 2.671875 L 27.484375 11.984375 Z M 15.914062 21.660156 " clip-rule="nonzero"/></clipPath><clipPath id="9d0da42ba5"><path d="M 15.914062 21.660156 L 8.125 12.347656 L 19.664062 2.699219 L 27.453125 12.011719 Z M 15.914062 21.660156 " clip-rule="nonzero"/></clipPath><clipPath id="ca629b1d00"><path d="M 8 2 L 28 2 L 28 22 L 8 22 Z M 8 2 " clip-rule="nonzero"/></clipPath><clipPath id="4436a40832"><path d="M 15.914062 21.660156 L 8 12.195312 L 19.691406 2.417969 L 27.609375 11.882812 Z M 15.914062 21.660156 " clip-rule="nonzero"/></clipPath><clipPath id="b62bbd900e"><path d="M 15.917969 21.660156 L 8.132812 12.351562 L 19.769531 2.621094 L 27.554688 11.929688 Z M 15.917969 21.660156 " clip-rule="nonzero"/></clipPath><clipPath id="518b837e36"><path d="M 15.917969 21.660156 L 8.132812 12.351562 L 19.664062 2.707031 L 27.449219 12.015625 Z M 15.917969 21.660156 " clip-rule="nonzero"/></clipPath><clipPath id="b7c2237f69"><path d="M 3 11 L 17 11 L 17 26 L 3 26 Z M 3 11 " clip-rule="nonzero"/></clipPath><clipPath id="4c059f20ca"><path d="M 10.332031 26.332031 L 2.523438 16.992188 L 9.277344 11.347656 L 17.082031 20.683594 Z M 10.332031 26.332031 " clip-rule="nonzero"/></clipPath><clipPath id="3d82dc88d2"><path d="M 9.398438 25.214844 L 3.472656 18.128906 C 2.960938 17.515625 3.042969 16.597656 3.65625 16.085938 L 8.179688 12.300781 C 8.796875 11.789062 9.710938 11.867188 10.226562 12.484375 L 16.152344 19.570312 C 16.667969 20.1875 16.585938 21.101562 15.96875 21.617188 L 11.445312 25.398438 C 10.828125 25.914062 9.914062 25.832031 9.398438 25.214844 Z M 9.398438 25.214844 " clip-rule="nonzero"/></clipPath><clipPath id="f55efea446"><path d="M 3 11 L 17 11 L 17 26 L 3 26 Z M 3 11 " clip-rule="nonzero"/></clipPath><clipPath id="9c51d7f38e"><path d="M 10.332031 26.332031 L 2.417969 16.863281 L 9.097656 11.277344 L 17.011719 20.742188 Z M 10.332031 26.332031 " clip-rule="nonzero"/></clipPath><clipPath id="454fa3fdee"><path d="M 10.332031 26.328125 L 2.546875 17.019531 L 9.382812 11.304688 L 17.167969 20.613281 Z M 10.332031 26.328125 " clip-rule="nonzero"/></clipPath><clipPath id="69f81a39bd"><path d="M 9.402344 25.214844 L 3.480469 18.132812 C 2.964844 17.519531 3.046875 16.605469 3.660156 16.089844 L 8.183594 12.308594 C 8.796875 11.792969 9.714844 11.875 10.226562 12.488281 L 16.148438 19.574219 C 16.664062 20.1875 16.582031 21.101562 15.96875 21.617188 L 11.445312 25.398438 C 10.832031 25.914062 9.917969 25.832031 9.402344 25.214844 Z M 9.402344 25.214844 " clip-rule="nonzero"/></clipPath><clipPath id="e8d5c5a08a"><path d="M 0.484375 9 L 20 9 L 20 29 L 0.484375 29 Z M 0.484375 9 " clip-rule="nonzero"/></clipPath><clipPath id="472d10f4b1"><path d="M 4 14 L 23 14 L 23 29.03125 L 4 29.03125 Z M 4 14 " clip-rule="nonzero"/></clipPath><clipPath id="2e6fd8838b"><path d="M 0.484375 5 L 15 5 L 15 24 L 0.484375 24 Z M 0.484375 5 " clip-rule="nonzero"/></clipPath></defs><g clip-path="url(#2c4563e830)"><g clip-path="url(#add956d32e)"><g clip-path="url(#9d0da42ba5)"><path fill="#919191" d="M 15.914062 21.660156 L 8.125 12.347656 L 19.660156 2.703125 L 27.449219 12.015625 Z M 15.914062 21.660156 " fill-opacity="1" fill-rule="nonzero"/></g></g></g><g clip-path="url(#ca629b1d00)"><g clip-path="url(#4436a40832)"><g clip-path="url(#b62bbd900e)"><g clip-path="url(#518b837e36)"><path stroke-linecap="butt" transform="matrix(-0.465604, -0.556783, 0.556783, -0.465604, 15.917406, 21.659035)" fill="none" stroke-linejoin="miter" d="M -0.00168218 -0.000395518 L 16.717672 -0.00138612 L 16.719403 20.710547 L 0.0000491171 20.711538 Z M -0.00168218 -0.000395518 " stroke="#000000" stroke-width="4" stroke-opacity="1" stroke-miterlimit="4"/></g></g></g></g><g clip-path="url(#b7c2237f69)"><g clip-path="url(#4c059f20ca)"><g clip-path="url(#3d82dc88d2)"><path fill="#919191" d="M 10.332031 26.332031 L 2.546875 17.019531 L 9.296875 11.375 L 17.082031 20.683594 Z M 10.332031 26.332031 " fill-opacity="1" fill-rule="nonzero"/></g></g></g><g clip-path="url(#f55efea446)"><g clip-path="url(#9c51d7f38e)"><g clip-path="url(#454fa3fdee)"><g clip-path="url(#69f81a39bd)"><path stroke-linecap="butt" transform="matrix(-0.465604, -0.556783, 0.556783, -0.465604, 10.332862, 26.329056)" fill="none" stroke-linejoin="miter" d="M 2.000072 0.00130086 L 14.719266 0.00172705 C 15.82319 -0.00120555 16.716784 0.893384 16.719716 1.997308 L 16.718205 10.12028 C 16.721138 11.224205 15.823096 12.121927 14.722624 12.120731 L 1.999302 12.116852 C 0.895377 12.119785 0.00178382 11.225195 -0.00114878 10.121271 L 0.000362255 1.998299 C -0.00257034 0.894374 0.892019 0.000780944 2.000072 0.00130086 Z M 2.000072 0.00130086 " stroke="#000000" stroke-width="4" stroke-opacity="1" stroke-miterlimit="4"/></g></g></g></g><g clip-path="url(#e8d5c5a08a)"><path stroke-linecap="butt" transform="matrix(-0.465604, -0.556783, 0.556783, -0.465604, 10.600942, 20.923876)" fill="none" stroke-linejoin="miter" d="M 0.00261491 0.999538 L 5.775796 1.000469 " stroke="#000000" stroke-width="2" stroke-opacity="1" stroke-miterlimit="4"/></g><g clip-path="url(#472d10f4b1)"><path stroke-linecap="butt" transform="matrix(-0.465604, -0.556783, 0.556783, -0.465604, 13.731344, 24.667301)" fill="none" stroke-linejoin="miter" d="M -0.00233573 0.999726 L 2.496301 0.998494 " stroke="#000000" stroke-width="2" stroke-opacity="1" stroke-miterlimit="4"/></g><g clip-path="url(#2e6fd8838b)"><path stroke-linecap="butt" transform="matrix(-0.465604, -0.556783, 0.556783, -0.465604, 5.942768, 15.353496)" fill="none" stroke-linejoin="miter" d="M 0.000843628 1.001511 L 2.491899 1.000955 " stroke="#000000" stroke-width="2" stroke-opacity="1" stroke-miterlimit="4"/></g></svg>