<svg xmlns="http://www.w3.org/2000/svg" xmlns:xlink="http://www.w3.org/1999/xlink" width="40" zoomAndPan="magnify" viewBox="0 0 30 30.000001" height="40" preserveAspectRatio="xMidYMid meet" version="1.0"><defs><clipPath id="1ec423916c"><path d="M 8.929688 10.636719 L 21.070312 10.636719 L 21.070312 25.675781 L 8.929688 25.675781 Z M 8.929688 10.636719 " clip-rule="nonzero"/></clipPath><clipPath id="0853b87875"><path d="M 8.929688 10.636719 L 21.0625 10.636719 L 21.0625 25.671875 L 8.929688 25.671875 Z M 8.929688 10.636719 " clip-rule="nonzero"/></clipPath><clipPath id="d518997d4c"><path d="M 8.929688 3.355469 L 21.101562 3.355469 L 21.101562 12.15625 L 8.929688 12.15625 Z M 8.929688 3.355469 " clip-rule="nonzero"/></clipPath><clipPath id="bda208417b"><path d="M 10.273438 3.355469 L 19.726562 3.355469 C 20.082031 3.355469 20.425781 3.5 20.675781 3.75 C 20.929688 4.003906 21.070312 4.34375 21.070312 4.699219 L 21.070312 10.8125 C 21.070312 11.171875 20.929688 11.511719 20.675781 11.765625 C 20.425781 12.015625 20.082031 12.15625 19.726562 12.15625 L 10.273438 12.15625 C 9.917969 12.15625 9.574219 12.015625 9.324219 11.765625 C 9.070312 11.511719 8.929688 11.171875 8.929688 10.8125 L 8.929688 4.699219 C 8.929688 4.34375 9.070312 4.003906 9.324219 3.75 C 9.574219 3.5 9.917969 3.355469 10.273438 3.355469 Z M 10.273438 3.355469 " clip-rule="nonzero"/></clipPath><clipPath id="907a27ec8b"><path d="M 8.929688 3.359375 L 21.0625 3.359375 L 21.0625 12.066406 L 8.929688 12.066406 Z M 8.929688 3.359375 " clip-rule="nonzero"/></clipPath><clipPath id="1c456aaa55"><path d="M 10.273438 3.359375 L 19.71875 3.359375 C 20.078125 3.359375 20.417969 3.5 20.671875 3.75 C 20.921875 4.003906 21.0625 4.34375 21.0625 4.703125 L 21.0625 10.8125 C 21.0625 11.167969 20.921875 11.507812 20.671875 11.761719 C 20.417969 12.011719 20.078125 12.15625 19.71875 12.15625 L 10.273438 12.15625 C 9.917969 12.15625 9.574219 12.011719 9.324219 11.761719 C 9.070312 11.507812 8.929688 11.167969 8.929688 10.8125 L 8.929688 4.703125 C 8.929688 4.34375 9.070312 4.003906 9.324219 3.75 C 9.574219 3.5 9.917969 3.359375 10.273438 3.359375 Z M 10.273438 3.359375 " clip-rule="nonzero"/></clipPath></defs><g clip-path="url(#1ec423916c)"><path fill="#919191" d="M 8.929688 10.636719 L 21.070312 10.636719 L 21.070312 25.667969 L 8.929688 25.667969 Z M 8.929688 10.636719 " fill-opacity="1" fill-rule="nonzero"/></g><g clip-path="url(#0853b87875)"><path stroke-linecap="butt" transform="matrix(0.725806, 0, 0, 0.725806, 8.929397, 10.638203)" fill="none" stroke-linejoin="miter" d="M 0.000400857 -0.0020443 L 16.71672 -0.0020443 L 16.71672 20.71306 L 0.000400857 20.71306 Z M 0.000400857 -0.0020443 " stroke="#000000" stroke-width="4" stroke-opacity="1" stroke-miterlimit="4"/></g><g clip-path="url(#d518997d4c)"><g clip-path="url(#bda208417b)"><path fill="#919191" d="M 8.929688 3.355469 L 21.066406 3.355469 L 21.066406 12.15625 L 8.929688 12.15625 Z M 8.929688 3.355469 " fill-opacity="1" fill-rule="nonzero"/></g></g><g clip-path="url(#907a27ec8b)"><g clip-path="url(#1c456aaa55)"><path stroke-linecap="butt" transform="matrix(0.725806, 0, 0, 0.725806, 8.929397, 3.358352)" fill="none" stroke-linejoin="miter" d="M 1.85179 0.00140966 L 14.865332 0.00140966 C 15.36047 0.00140966 15.8287 0.19516 16.178526 0.539604 C 16.52297 0.88943 16.71672 1.35766 16.71672 1.852799 L 16.71672 10.27016 C 16.71672 10.759917 16.52297 11.228146 16.178526 11.577972 C 15.8287 11.922417 15.36047 12.121549 14.865332 12.121549 L 1.85179 12.121549 C 1.362033 12.121549 0.888422 11.922417 0.543977 11.577972 C 0.194151 11.228146 0.000400857 10.759917 0.000400857 10.27016 L 0.000400857 1.852799 C 0.000400857 1.35766 0.194151 0.88943 0.543977 0.539604 C 0.888422 0.19516 1.362033 0.00140966 1.85179 0.00140966 Z M 1.85179 0.00140966 " stroke="#000000" stroke-width="4" stroke-opacity="1" stroke-miterlimit="4"/></g></g><path stroke-linecap="butt" transform="matrix(0.725806, 0, 0, 0.725806, 12.903863, 7.031423)" fill="none" stroke-linejoin="miter" d="M -0.00209312 1.000803 L 5.778115 1.000803 " stroke="#000000" stroke-width="2" stroke-opacity="1" stroke-miterlimit="4"/><path stroke-linecap="butt" transform="matrix(0.725806, 0, 0, 0.725806, 8.024043, 7.031423)" fill="none" stroke-linejoin="miter" d="M -0.000834905 1.000803 L 2.496387 1.000803 " stroke="#000000" stroke-width="2" stroke-opacity="1" stroke-miterlimit="4"/><path stroke-linecap="butt" transform="matrix(0.725806, 0, 0, 0.725806, 20.165248, 7.031423)" fill="none" stroke-linejoin="miter" d="M -0.00163335 1.000803 L 2.495589 1.000803 " stroke="#000000" stroke-width="2" stroke-opacity="1" stroke-miterlimit="4"/></svg>