<svg xmlns="http://www.w3.org/2000/svg" xmlns:xlink="http://www.w3.org/1999/xlink" width="40" zoomAndPan="magnify" viewBox="0 0 30 30.000001" height="40" preserveAspectRatio="xMidYMid meet" version="1.0"><defs><clipPath id="50d1940efb"><path d="M 8 7 L 28 7 L 28 27 L 8 27 Z M 8 7 " clip-rule="nonzero"/></clipPath><clipPath id="f70cbc928e"><path d="M 8.128906 16.6875 L 15.910156 7.367188 L 27.488281 17.03125 L 19.707031 26.351562 Z M 8.128906 16.6875 " clip-rule="nonzero"/></clipPath><clipPath id="c09db85e1e"><path d="M 8.128906 16.6875 L 15.910156 7.367188 L 27.457031 17.003906 L 19.675781 26.328125 Z M 8.128906 16.6875 " clip-rule="nonzero"/></clipPath><clipPath id="18dc1d7f03"><path d="M 8 7 L 28 7 L 28 27 L 8 27 Z M 8 7 " clip-rule="nonzero"/></clipPath><clipPath id="243be1c37d"><path d="M 8.128906 16.6875 L 16.035156 7.214844 L 27.738281 16.984375 L 19.832031 26.457031 Z M 8.128906 16.6875 " clip-rule="nonzero"/></clipPath><clipPath id="11d1fae7e4"><path d="M 8.132812 16.691406 L 15.910156 7.375 L 27.554688 17.09375 L 19.777344 26.410156 Z M 8.132812 16.691406 " clip-rule="nonzero"/></clipPath><clipPath id="3c5028ff7f"><path d="M 8.132812 16.691406 L 15.910156 7.375 L 27.449219 17.007812 L 19.671875 26.324219 Z M 8.132812 16.691406 " clip-rule="nonzero"/></clipPath><clipPath id="1fc0e1cdf5"><path d="M 3 3 L 17 3 L 17 18 L 3 18 Z M 3 3 " clip-rule="nonzero"/></clipPath><clipPath id="6b79cb6a0a"><path d="M 2.542969 12.023438 L 10.339844 2.679688 L 17.097656 8.320312 L 9.300781 17.664062 Z M 2.542969 12.023438 " clip-rule="nonzero"/></clipPath><clipPath id="2df6983943"><path d="M 3.472656 10.910156 L 9.390625 3.816406 C 9.90625 3.203125 10.820312 3.121094 11.4375 3.632812 L 15.964844 7.414062 C 16.582031 7.925781 16.664062 8.84375 16.148438 9.457031 L 10.230469 16.550781 C 9.714844 17.164062 8.800781 17.246094 8.183594 16.734375 L 3.65625 12.953125 C 3.042969 12.441406 2.957031 11.523438 3.472656 10.910156 Z M 3.472656 10.910156 " clip-rule="nonzero"/></clipPath><clipPath id="49fe7a958a"><path d="M 3 3 L 17 3 L 17 18 L 3 18 Z M 3 3 " clip-rule="nonzero"/></clipPath><clipPath id="ecb5e266c6"><path d="M 2.542969 12.023438 L 10.449219 2.550781 L 17.136719 8.132812 L 9.230469 17.605469 Z M 2.542969 12.023438 " clip-rule="nonzero"/></clipPath><clipPath id="a134cc551f"><path d="M 2.542969 12.027344 L 10.320312 2.710938 L 17.160156 8.421875 L 9.386719 17.734375 Z M 2.542969 12.027344 " clip-rule="nonzero"/></clipPath><clipPath id="9b0a0e3e29"><path d="M 3.472656 10.910156 L 9.390625 3.824219 C 9.902344 3.207031 10.816406 3.125 11.433594 3.640625 L 15.960938 7.417969 C 16.574219 7.929688 16.65625 8.84375 16.144531 9.460938 L 10.226562 16.546875 C 9.714844 17.164062 8.796875 17.246094 8.183594 16.734375 L 3.65625 12.957031 C 3.042969 12.441406 2.960938 11.527344 3.472656 10.910156 Z M 3.472656 10.910156 " clip-rule="nonzero"/></clipPath><clipPath id="42fc9c3dbf"><path d="M 0.484375 0 L 20 0 L 20 21 L 0.484375 21 Z M 0.484375 0 " clip-rule="nonzero"/></clipPath><clipPath id="a16fa1c60a"><path d="M 0.484375 5 L 15 5 L 15 24 L 0.484375 24 Z M 0.484375 5 " clip-rule="nonzero"/></clipPath></defs><g clip-path="url(#50d1940efb)"><g clip-path="url(#f70cbc928e)"><g clip-path="url(#c09db85e1e)"><path fill="#919191" d="M 8.128906 16.6875 L 15.910156 7.367188 L 27.453125 17 L 19.671875 26.324219 Z M 8.128906 16.6875 " fill-opacity="1" fill-rule="nonzero"/></g></g></g><g clip-path="url(#18dc1d7f03)"><g clip-path="url(#243be1c37d)"><g clip-path="url(#11d1fae7e4)"><g clip-path="url(#3c5028ff7f)"><path stroke-linecap="butt" transform="matrix(0.465094, -0.557209, 0.557209, 0.465094, 8.132628, 16.690421)" fill="none" stroke-linejoin="miter" d="M -0.000879788 0.00106491 L 16.719832 0.00220784 L 16.718424 20.712049 L -0.00228845 20.710906 Z M -0.000879788 0.00106491 " stroke="#000000" stroke-width="4" stroke-opacity="1" stroke-miterlimit="4"/></g></g></g></g><g clip-path="url(#1fc0e1cdf5)"><g clip-path="url(#6b79cb6a0a)"><g clip-path="url(#2df6983943)"><path fill="#919191" d="M 2.542969 12.023438 L 10.320312 2.707031 L 17.078125 8.347656 L 9.300781 17.664062 Z M 2.542969 12.023438 " fill-opacity="1" fill-rule="nonzero"/></g></g></g><g clip-path="url(#49fe7a958a)"><g clip-path="url(#ecb5e266c6)"><g clip-path="url(#a134cc551f)"><g clip-path="url(#9b0a0e3e29)"><path stroke-linecap="butt" transform="matrix(0.465094, -0.557209, 0.557209, 0.465094, 2.543808, 12.025518)" fill="none" stroke-linejoin="miter" d="M 1.999814 -0.00225029 L 14.719685 0.00139258 C 15.82429 -0.00224424 16.71806 0.892168 16.717565 2.000221 L 16.719217 10.123874 C 16.719405 11.224347 15.824993 12.118117 14.720388 12.121754 L 2.000517 12.118111 C 0.895912 12.121748 -0.00130726 11.223204 -0.00149535 10.122731 L -0.00314702 1.999079 C 0.000796664 0.895157 0.895209 0.00138653 1.999814 -0.00225029 Z M 1.999814 -0.00225029 " stroke="#000000" stroke-width="4" stroke-opacity="1" stroke-miterlimit="4"/></g></g></g></g><g clip-path="url(#42fc9c3dbf)"><path stroke-linecap="butt" transform="matrix(0.465094, -0.557209, 0.557209, 0.465094, 7.910488, 11.327967)" fill="none" stroke-linejoin="miter" d="M 0.00102653 1.001032 L 5.774889 0.997808 " stroke="#000000" stroke-width="2" stroke-opacity="1" stroke-miterlimit="4"/></g><g clip-path="url(#a16fa1c60a)"><path stroke-linecap="butt" transform="matrix(0.465094, -0.557209, 0.557209, 0.465094, 4.783517, 15.074258)" fill="none" stroke-linejoin="miter" d="M -0.000472728 0.998811 L 2.494713 0.998201 " stroke="#000000" stroke-width="2" stroke-opacity="1" stroke-miterlimit="4"/></g><path stroke-linecap="butt" transform="matrix(0.465094, -0.557209, 0.557209, 0.465094, 12.563558, 5.753324)" fill="none" stroke-linejoin="miter" d="M -0.0000632406 1.000639 L 2.495123 1.000028 " stroke="#000000" stroke-width="2" stroke-opacity="1" stroke-miterlimit="4"/></svg>