<svg xmlns="http://www.w3.org/2000/svg" xmlns:xlink="http://www.w3.org/1999/xlink" width="40" zoomAndPan="magnify" viewBox="0 0 30 30.000001" height="40" preserveAspectRatio="xMidYMid meet" version="1.0"><defs><clipPath id="b33f287505"><path d="M 9 7 L 28 7 L 28 24 L 9 24 Z M 9 7 " clip-rule="nonzero"/></clipPath><clipPath id="b38f19b96e"><path d="M 9.304688 18.929688 L 13.382812 7.492188 L 27.589844 12.5625 L 23.507812 23.996094 Z M 9.304688 18.929688 " clip-rule="nonzero"/></clipPath><clipPath id="2135dc6c41"><path d="M 9.304688 18.929688 L 13.382812 7.492188 L 27.550781 12.546875 L 23.46875 23.980469 Z M 9.304688 18.929688 " clip-rule="nonzero"/></clipPath><clipPath id="1a1255e230"><path d="M 9 7 L 28 7 L 28 24 L 9 24 Z M 9 7 " clip-rule="nonzero"/></clipPath><clipPath id="2826190aaf"><path d="M 9.304688 18.929688 L 13.449219 7.308594 L 27.804688 12.429688 L 23.660156 24.050781 Z M 9.304688 18.929688 " clip-rule="nonzero"/></clipPath><clipPath id="70f9047c45"><path d="M 9.308594 18.929688 L 13.382812 7.5 L 27.671875 12.597656 L 23.59375 24.027344 Z M 9.308594 18.929688 " clip-rule="nonzero"/></clipPath><clipPath id="5157748808"><path d="M 9.308594 18.929688 L 13.382812 7.5 L 27.542969 12.550781 L 23.464844 23.980469 Z M 9.308594 18.929688 " clip-rule="nonzero"/></clipPath><clipPath id="a7abea0f34"><path d="M 2 5 L 15 5 L 15 20 L 2 20 Z M 2 5 " clip-rule="nonzero"/></clipPath><clipPath id="9b5aa00cd8"><path d="M 2.449219 16.480469 L 6.539062 5.019531 L 14.828125 7.976562 L 10.738281 19.441406 Z M 2.449219 16.480469 " clip-rule="nonzero"/></clipPath><clipPath id="d7bde4d550"><path d="M 2.9375 15.113281 L 6.039062 6.414062 C 6.308594 5.660156 7.140625 5.265625 7.894531 5.535156 L 13.449219 7.515625 C 14.207031 7.785156 14.601562 8.617188 14.332031 9.371094 L 11.226562 18.074219 C 10.957031 18.828125 10.125 19.222656 9.371094 18.953125 L 3.816406 16.96875 C 3.0625 16.699219 2.667969 15.871094 2.9375 15.113281 Z M 2.9375 15.113281 " clip-rule="nonzero"/></clipPath><clipPath id="c1c8a9a1cb"><path d="M 2 5 L 15 5 L 15 20 L 2 20 Z M 2 5 " clip-rule="nonzero"/></clipPath><clipPath id="b0f449f611"><path d="M 2.449219 16.480469 L 6.59375 4.859375 L 14.796875 7.789062 L 10.652344 19.410156 Z M 2.449219 16.480469 " clip-rule="nonzero"/></clipPath><clipPath id="5141d9e8ca"><path d="M 2.449219 16.484375 L 6.527344 5.054688 L 14.921875 8.046875 L 10.84375 19.476562 Z M 2.449219 16.484375 " clip-rule="nonzero"/></clipPath><clipPath id="a8912163e7"><path d="M 2.9375 15.117188 L 6.039062 6.421875 C 6.308594 5.664062 7.140625 5.273438 7.894531 5.542969 L 13.445312 7.523438 C 14.203125 7.792969 14.59375 8.621094 14.324219 9.375 L 11.222656 18.074219 C 10.953125 18.828125 10.125 19.21875 9.371094 18.953125 L 3.816406 16.96875 C 3.0625 16.699219 2.667969 15.871094 2.9375 15.117188 Z M 2.9375 15.117188 " clip-rule="nonzero"/></clipPath><clipPath id="90e074fa40"><path d="M 0.484375 2 L 18 2 L 18 23 L 0.484375 23 Z M 0.484375 2 " clip-rule="nonzero"/></clipPath><clipPath id="555147bf45"><path d="M 0.484375 8 L 16 8 L 16 28 L 0.484375 28 Z M 0.484375 8 " clip-rule="nonzero"/></clipPath></defs><g clip-path="url(#b33f287505)"><g clip-path="url(#b38f19b96e)"><g clip-path="url(#2135dc6c41)"><path fill="#919191" d="M 9.304688 18.929688 L 13.382812 7.492188 L 27.542969 12.542969 L 23.464844 23.980469 Z M 9.304688 18.929688 " fill-opacity="1" fill-rule="nonzero"/></g></g></g><g clip-path="url(#1a1255e230)"><g clip-path="url(#2826190aaf)"><g clip-path="url(#70f9047c45)"><g clip-path="url(#5157748808)"><path stroke-linecap="butt" transform="matrix(0.243891, -0.683602, 0.683602, 0.243891, 9.307086, 18.929078)" fill="none" stroke-linejoin="miter" d="M -0.0000924838 0.00223822 L 16.718035 -0.00241462 L 16.719567 20.711061 L -0.000368849 20.710645 Z M -0.0000924838 0.00223822 " stroke="#000000" stroke-width="4" stroke-opacity="1" stroke-miterlimit="4"/></g></g></g></g><g clip-path="url(#a7abea0f34)"><g clip-path="url(#9b5aa00cd8)"><g clip-path="url(#d7bde4d550)"><path fill="#919191" d="M 2.449219 16.480469 L 6.527344 5.050781 L 14.816406 8.007812 L 10.738281 19.441406 Z M 2.449219 16.480469 " fill-opacity="1" fill-rule="nonzero"/></g></g></g><g clip-path="url(#c1c8a9a1cb)"><g clip-path="url(#b0f449f611)"><g clip-path="url(#5141d9e8ca)"><g clip-path="url(#a8912163e7)"><path stroke-linecap="butt" transform="matrix(0.243891, -0.683602, 0.683602, 0.243891, 2.450543, 16.482848)" fill="none" stroke-linejoin="miter" d="M 1.997615 -0.000355611 L 14.717133 -0.00125169 C 15.825304 -0.0023363 16.71741 0.896512 16.716686 1.999613 L 16.716556 10.119556 C 16.717641 11.227726 15.823862 12.118024 14.720761 12.1173 L 1.996173 12.120005 C 0.893072 12.119281 0.00277409 11.225502 -0.00157103 10.124209 L 0.00181883 1.997388 C 0.00254271 0.894287 0.894513 -0.00107948 1.997615 -0.000355611 Z M 1.997615 -0.000355611 " stroke="#000000" stroke-width="4" stroke-opacity="1" stroke-miterlimit="4"/></g></g></g></g><g clip-path="url(#90e074fa40)"><path stroke-linecap="butt" transform="matrix(0.243891, -0.683602, 0.683602, 0.243891, 7.245562, 13.97374)" fill="none" stroke-linejoin="miter" d="M -0.00120976 1.001197 L 5.774599 0.997661 " stroke="#000000" stroke-width="2" stroke-opacity="1" stroke-miterlimit="4"/></g><g clip-path="url(#555147bf45)"><path stroke-linecap="butt" transform="matrix(0.243891, -0.683602, 0.683602, 0.243891, 5.605809, 18.569811)" fill="none" stroke-linejoin="miter" d="M 0.00139849 0.998991 L 2.493604 1.001257 " stroke="#000000" stroke-width="2" stroke-opacity="1" stroke-miterlimit="4"/></g><path stroke-linecap="butt" transform="matrix(0.243891, -0.683602, 0.683602, 0.243891, 9.685587, 7.13459)" fill="none" stroke-linejoin="miter" d="M 0.000329347 1.002668 L 2.495795 0.998056 " stroke="#000000" stroke-width="2" stroke-opacity="1" stroke-miterlimit="4"/></svg>