<svg xmlns="http://www.w3.org/2000/svg" xmlns:xlink="http://www.w3.org/1999/xlink" width="40" zoomAndPan="magnify" viewBox="0 0 30 30.000001" height="40" preserveAspectRatio="xMidYMid meet" version="1.0"><defs><clipPath id="3c5a028682"><path d="M 2 3 L 22 3 L 22 22 L 2 22 Z M 2 3 " clip-rule="nonzero"/></clipPath><clipPath id="d77d5d9053"><path d="M 21.386719 11.191406 L 15.335938 21.714844 L 2.261719 14.195312 L 8.316406 3.667969 Z M 21.386719 11.191406 " clip-rule="nonzero"/></clipPath><clipPath id="74c658a0fe"><path d="M 21.386719 11.191406 L 15.335938 21.714844 L 2.296875 14.214844 L 8.351562 3.691406 Z M 21.386719 11.191406 " clip-rule="nonzero"/></clipPath><clipPath id="37a57f39ce"><path d="M 2 3 L 22 3 L 22 22 L 2 22 Z M 2 3 " clip-rule="nonzero"/></clipPath><clipPath id="33a7d82220"><path d="M 21.386719 11.191406 L 15.234375 21.886719 L 2.023438 14.285156 L 8.175781 3.589844 Z M 21.386719 11.191406 " clip-rule="nonzero"/></clipPath><clipPath id="d2f112dde7"><path d="M 21.386719 11.1875 L 15.335938 21.707031 L 2.1875 14.144531 L 8.238281 3.625 Z M 21.386719 11.1875 " clip-rule="nonzero"/></clipPath><clipPath id="d0b5f62656"><path d="M 21.386719 11.1875 L 15.335938 21.707031 L 2.304688 14.210938 L 8.355469 3.691406 Z M 21.386719 11.1875 " clip-rule="nonzero"/></clipPath><clipPath id="03540e2425"><path d="M 14 10 L 28 10 L 28 25 L 14 25 Z M 14 10 " clip-rule="nonzero"/></clipPath><clipPath id="99f8d7859f"><path d="M 27.699219 14.820312 L 21.628906 25.367188 L 14 20.980469 L 20.070312 10.429688 Z M 27.699219 14.820312 " clip-rule="nonzero"/></clipPath><clipPath id="e9cff90a55"><path d="M 26.972656 16.078125 L 22.367188 24.085938 C 21.96875 24.78125 21.082031 25.019531 20.386719 24.621094 L 15.273438 21.679688 C 14.578125 21.277344 14.339844 20.390625 14.738281 19.695312 L 19.34375 11.6875 C 19.746094 10.992188 20.632812 10.753906 21.328125 11.15625 L 26.441406 14.09375 C 27.132812 14.496094 27.375 15.382812 26.972656 16.078125 Z M 26.972656 16.078125 " clip-rule="nonzero"/></clipPath><clipPath id="cbf82c9934"><path d="M 14 10 L 28 10 L 28 25 L 14 25 Z M 14 10 " clip-rule="nonzero"/></clipPath><clipPath id="de7d53d51f"><path d="M 27.699219 14.820312 L 21.546875 25.515625 L 13.996094 21.171875 L 20.148438 10.476562 Z M 27.699219 14.820312 " clip-rule="nonzero"/></clipPath><clipPath id="bfb8682d51"><path d="M 27.695312 14.820312 L 21.644531 25.335938 L 13.921875 20.894531 L 19.972656 10.375 Z M 27.695312 14.820312 " clip-rule="nonzero"/></clipPath><clipPath id="2e38e290e9"><path d="M 26.972656 16.074219 L 22.367188 24.078125 C 21.96875 24.773438 21.082031 25.011719 20.386719 24.613281 L 15.277344 21.675781 C 14.582031 21.273438 14.34375 20.386719 14.742188 19.691406 L 19.347656 11.691406 C 19.746094 10.996094 20.632812 10.757812 21.328125 11.15625 L 26.4375 14.09375 C 27.132812 14.496094 27.371094 15.382812 26.972656 16.074219 Z M 26.972656 16.074219 " clip-rule="nonzero"/></clipPath><clipPath id="42e7a88d5b"><path d="M 11 7 L 29.515625 7 L 29.515625 28 L 11 28 Z M 11 7 " clip-rule="nonzero"/></clipPath><clipPath id="6169c9932c"><path d="M 15 3 L 29.515625 3 L 29.515625 22 L 15 22 Z M 15 3 " clip-rule="nonzero"/></clipPath><clipPath id="9873b32535"><path d="M 9 14 L 27 14 L 27 29.03125 L 9 29.03125 Z M 9 14 " clip-rule="nonzero"/></clipPath></defs><g clip-path="url(#3c5a028682)"><g clip-path="url(#d77d5d9053)"><g clip-path="url(#74c658a0fe)"><path fill="#919191" d="M 21.386719 11.191406 L 15.335938 21.714844 L 2.300781 14.21875 L 8.355469 3.691406 Z M 21.386719 11.191406 " fill-opacity="1" fill-rule="nonzero"/></g></g></g><g clip-path="url(#37a57f39ce)"><g clip-path="url(#33a7d82220)"><g clip-path="url(#d2f112dde7)"><g clip-path="url(#d0b5f62656)"><path stroke-linecap="butt" transform="matrix(-0.361913, 0.629138, -0.629138, -0.361913, 21.386021, 11.188404)" fill="none" stroke-linejoin="miter" d="M -0.00155929 -0.000212822 L 16.718584 -0.000937106 L 16.718783 20.711829 L -0.00136019 20.712553 Z M -0.00155929 -0.000212822 " stroke="#000000" stroke-width="4" stroke-opacity="1" stroke-miterlimit="4"/></g></g></g></g><g clip-path="url(#03540e2425)"><g clip-path="url(#99f8d7859f)"><g clip-path="url(#e9cff90a55)"><path fill="#919191" d="M 27.699219 14.820312 L 21.644531 25.339844 L 14.015625 20.949219 L 20.070312 10.429688 Z M 27.699219 14.820312 " fill-opacity="1" fill-rule="nonzero"/></g></g></g><g clip-path="url(#cbf82c9934)"><g clip-path="url(#de7d53d51f)"><g clip-path="url(#bfb8682d51)"><g clip-path="url(#2e38e290e9)"><path stroke-linecap="butt" transform="matrix(-0.361913, 0.629138, -0.629138, -0.361913, 27.69628, 14.818397)" fill="none" stroke-linejoin="miter" d="M 1.996932 0.00144392 L 14.719787 0.00287808 C 15.823911 0.00103552 16.717668 0.896319 16.71951 2.000443 L 16.721518 10.120525 C 16.718695 11.227333 15.823412 12.12109 14.719288 12.122932 L 2.001098 12.118814 C 0.896974 12.120657 0.00321749 11.225373 0.00137493 10.121249 L -0.000632952 2.001167 C 0.00218963 0.89436 0.897473 0.000602844 1.996932 0.00144392 Z M 1.996932 0.00144392 " stroke="#000000" stroke-width="4" stroke-opacity="1" stroke-miterlimit="4"/></g></g></g></g><g clip-path="url(#42e7a88d5b)"><path stroke-linecap="butt" transform="matrix(-0.361913, 0.629137, -0.629137, -0.361913, 22.530608, 16.431989)" fill="none" stroke-linejoin="miter" d="M -0.000317237 0.998795 L 5.773998 0.998865 " stroke="#000000" stroke-width="2" stroke-opacity="1" stroke-miterlimit="4"/></g><g clip-path="url(#6169c9932c)"><path stroke-linecap="butt" transform="matrix(-0.361913, 0.629137, -0.629137, -0.361913, 24.96386, 12.202104)" fill="none" stroke-linejoin="miter" d="M -0.00124887 0.998787 L 2.494053 0.997614 " stroke="#000000" stroke-width="2" stroke-opacity="1" stroke-miterlimit="4"/></g><g clip-path="url(#9873b32535)"><path stroke-linecap="butt" transform="matrix(-0.361913, 0.629137, -0.629137, -0.361913, 18.909823, 22.726242)" fill="none" stroke-linejoin="miter" d="M -0.00163967 1.000045 L 2.493662 0.998872 " stroke="#000000" stroke-width="2" stroke-opacity="1" stroke-miterlimit="4"/></g></svg>