<svg xmlns="http://www.w3.org/2000/svg" xmlns:xlink="http://www.w3.org/1999/xlink" width="40" zoomAndPan="magnify" viewBox="0 0 30 30.000001" height="40" preserveAspectRatio="xMidYMid meet" version="1.0"><defs><clipPath id="71d8ce08d4"><path d="M 9 5 L 28 5 L 28 22 L 9 22 Z M 9 5 " clip-rule="nonzero"/></clipPath><clipPath id="0b61056b39"><path d="M 13.40625 21.542969 L 9.289062 10.121094 L 23.476562 5.003906 L 27.59375 16.425781 Z M 13.40625 21.542969 " clip-rule="nonzero"/></clipPath><clipPath id="334af99216"><path d="M 13.40625 21.542969 L 9.289062 10.121094 L 23.4375 5.019531 L 27.554688 16.441406 Z M 13.40625 21.542969 " clip-rule="nonzero"/></clipPath><clipPath id="a8d657f7fd"><path d="M 9 5 L 28 5 L 28 22 L 9 22 Z M 9 5 " clip-rule="nonzero"/></clipPath><clipPath id="99b41e8e80"><path d="M 13.40625 21.542969 L 9.222656 9.933594 L 23.5625 4.765625 L 27.746094 16.371094 Z M 13.40625 21.542969 " clip-rule="nonzero"/></clipPath><clipPath id="c1044db8e8"><path d="M 13.410156 21.539062 L 9.292969 10.125 L 23.5625 4.980469 L 27.679688 16.398438 Z M 13.410156 21.539062 " clip-rule="nonzero"/></clipPath><clipPath id="5ce4ecd872"><path d="M 13.410156 21.539062 L 9.292969 10.125 L 23.4375 5.027344 L 27.550781 16.441406 Z M 13.410156 21.539062 " clip-rule="nonzero"/></clipPath><clipPath id="10375829f3"><path d="M 2 10 L 15 10 L 15 24 L 2 24 Z M 2 10 " clip-rule="nonzero"/></clipPath><clipPath id="40234342ed"><path d="M 6.558594 24.007812 L 2.429688 12.558594 L 10.710938 9.574219 L 14.839844 21.023438 Z M 6.558594 24.007812 " clip-rule="nonzero"/></clipPath><clipPath id="81c15d0e20"><path d="M 6.066406 22.644531 L 2.933594 13.953125 C 2.660156 13.199219 3.054688 12.367188 3.808594 12.09375 L 9.355469 10.09375 C 10.109375 9.824219 10.941406 10.214844 11.214844 10.96875 L 14.347656 19.660156 C 14.617188 20.414062 14.226562 21.246094 13.472656 21.515625 L 7.925781 23.515625 C 7.167969 23.789062 6.339844 23.398438 6.066406 22.644531 Z M 6.066406 22.644531 " clip-rule="nonzero"/></clipPath><clipPath id="782bbead70"><path d="M 2 10 L 15 10 L 15 24 L 2 24 Z M 2 10 " clip-rule="nonzero"/></clipPath><clipPath id="96d685d400"><path d="M 6.558594 24.007812 L 2.375 12.402344 L 10.566406 9.449219 L 14.753906 21.054688 Z M 6.558594 24.007812 " clip-rule="nonzero"/></clipPath><clipPath id="5a91187806"><path d="M 6.558594 24.007812 L 2.445312 12.59375 L 10.828125 9.570312 L 14.945312 20.988281 Z M 6.558594 24.007812 " clip-rule="nonzero"/></clipPath><clipPath id="2138c18f86"><path d="M 6.066406 22.644531 L 2.9375 13.957031 C 2.664062 13.203125 3.054688 12.371094 3.808594 12.101562 L 9.355469 10.101562 C 10.109375 9.832031 10.941406 10.222656 11.214844 10.976562 L 14.34375 19.660156 C 14.617188 20.414062 14.226562 21.246094 13.472656 21.519531 L 7.925781 23.515625 C 7.171875 23.789062 6.339844 23.398438 6.066406 22.644531 Z M 6.066406 22.644531 " clip-rule="nonzero"/></clipPath><clipPath id="1294cd1b36"><path d="M 0.484375 6 L 18 6 L 18 27 L 0.484375 27 Z M 0.484375 6 " clip-rule="nonzero"/></clipPath><clipPath id="b76268ca0b"><path d="M 2 13 L 20 13 L 20 29.03125 L 2 29.03125 Z M 2 13 " clip-rule="nonzero"/></clipPath><clipPath id="130ab6381c"><path d="M 0.484375 2 L 16 2 L 16 21 L 0.484375 21 Z M 0.484375 2 " clip-rule="nonzero"/></clipPath></defs><g clip-path="url(#71d8ce08d4)"><g clip-path="url(#0b61056b39)"><g clip-path="url(#334af99216)"><path fill="#919191" d="M 13.40625 21.542969 L 9.289062 10.121094 L 23.433594 5.019531 L 27.550781 16.441406 Z M 13.40625 21.542969 " fill-opacity="1" fill-rule="nonzero"/></g></g></g><g clip-path="url(#a8d657f7fd)"><g clip-path="url(#99b41e8e80)"><g clip-path="url(#c1044db8e8)"><g clip-path="url(#5ce4ecd872)"><path stroke-linecap="butt" transform="matrix(-0.24611, -0.682806, 0.682806, -0.24611, 13.408729, 21.540213)" fill="none" stroke-linejoin="miter" d="M 0.000824694 0.00238747 L 16.718672 -0.00164253 L 16.717906 20.713367 L 0.00188404 20.712334 Z M 0.000824694 0.00238747 " stroke="#000000" stroke-width="4" stroke-opacity="1" stroke-miterlimit="4"/></g></g></g></g><g clip-path="url(#10375829f3)"><g clip-path="url(#40234342ed)"><g clip-path="url(#81c15d0e20)"><path fill="#919191" d="M 6.558594 24.007812 L 2.441406 12.59375 L 10.722656 9.609375 L 14.839844 21.023438 Z M 6.558594 24.007812 " fill-opacity="1" fill-rule="nonzero"/></g></g></g><g clip-path="url(#782bbead70)"><g clip-path="url(#96d685d400)"><g clip-path="url(#5a91187806)"><g clip-path="url(#2138c18f86)"><path stroke-linecap="butt" transform="matrix(-0.24611, -0.682806, 0.682806, -0.24611, 6.560169, 24.008705)" fill="none" stroke-linejoin="miter" d="M 1.998854 -0.00267089 L 14.720952 0.000454632 C 15.825875 -0.00174877 16.72182 0.893273 16.71896 1.996371 L 16.719851 10.120333 C 16.716992 11.223431 15.82197 12.119376 14.717047 12.12158 L 2.000013 12.120279 C 0.89509 12.122482 -0.000855222 11.227461 -0.00305862 10.122538 L 0.00111339 2.000401 C -0.00109001 0.895478 0.893931 -0.000467489 1.998854 -0.00267089 Z M 1.998854 -0.00267089 " stroke="#000000" stroke-width="4" stroke-opacity="1" stroke-miterlimit="4"/></g></g></g></g><g clip-path="url(#1294cd1b36)"><path stroke-linecap="butt" transform="matrix(-0.24611, -0.682806, 0.682806, -0.24611, 8.667946, 19.024218)" fill="none" stroke-linejoin="miter" d="M 0.000611992 1.001407 L 5.773552 0.999804 " stroke="#000000" stroke-width="2" stroke-opacity="1" stroke-miterlimit="4"/></g><g clip-path="url(#b76268ca0b)"><path stroke-linecap="butt" transform="matrix(-0.24611, -0.682806, 0.682806, -0.24611, 10.322623, 23.614937)" fill="none" stroke-linejoin="miter" d="M 0.00283575 0.998792 L 2.49686 0.999559 " stroke="#000000" stroke-width="2" stroke-opacity="1" stroke-miterlimit="4"/></g><g clip-path="url(#130ab6381c)"><path stroke-linecap="butt" transform="matrix(-0.24611, -0.682806, 0.682806, -0.24611, 6.205717, 12.19303)" fill="none" stroke-linejoin="miter" d="M 0.00292632 0.998412 L 2.496951 0.99918 " stroke="#000000" stroke-width="2" stroke-opacity="1" stroke-miterlimit="4"/></g></svg>