<svg xmlns="http://www.w3.org/2000/svg" xmlns:xlink="http://www.w3.org/1999/xlink" width="40" zoomAndPan="magnify" viewBox="0 0 30 30.000001" height="40" preserveAspectRatio="xMidYMid meet" version="1.0"><defs><clipPath id="ab73fa8189"><path d="M 4 8 L 23 8 L 23 28 L 4 28 Z M 4 8 " clip-rule="nonzero"/></clipPath><clipPath id="2d15048180"><path d="M 11.632812 8.148438 L 22.195312 14.136719 L 14.753906 27.253906 L 4.195312 21.265625 Z M 11.632812 8.148438 " clip-rule="nonzero"/></clipPath><clipPath id="215cbd60ac"><path d="M 11.632812 8.148438 L 22.195312 14.136719 L 14.777344 27.21875 L 4.214844 21.230469 Z M 11.632812 8.148438 " clip-rule="nonzero"/></clipPath><clipPath id="698698150e"><path d="M 4 8 L 23 8 L 23 28 L 4 28 Z M 4 8 " clip-rule="nonzero"/></clipPath><clipPath id="f8c6debdd1"><path d="M 11.632812 8.148438 L 22.367188 14.234375 L 14.847656 27.492188 L 4.113281 21.40625 Z M 11.632812 8.148438 " clip-rule="nonzero"/></clipPath><clipPath id="36b562e315"><path d="M 11.632812 8.148438 L 22.1875 14.132812 L 14.707031 27.328125 L 4.148438 21.34375 Z M 11.632812 8.148438 " clip-rule="nonzero"/></clipPath><clipPath id="81c8e96104"><path d="M 11.632812 8.148438 L 22.1875 14.132812 L 14.773438 27.210938 L 4.21875 21.226562 Z M 11.632812 8.148438 " clip-rule="nonzero"/></clipPath><clipPath id="6142f362ac"><path d="M 11 2 L 26 2 L 26 15 L 11 15 Z M 11 2 " clip-rule="nonzero"/></clipPath><clipPath id="c1feb6df38"><path d="M 15.222656 1.816406 L 25.808594 7.816406 L 21.46875 15.472656 L 10.882812 9.472656 Z M 15.222656 1.816406 " clip-rule="nonzero"/></clipPath><clipPath id="42ebd27b88"><path d="M 16.484375 2.53125 L 24.523438 7.085938 C 25.21875 7.484375 25.464844 8.367188 25.070312 9.066406 L 22.160156 14.195312 C 21.765625 14.894531 20.878906 15.140625 20.179688 14.742188 L 12.144531 10.1875 C 11.449219 9.792969 11.203125 8.90625 11.597656 8.207031 L 14.507812 3.078125 C 14.902344 2.378906 15.789062 2.136719 16.484375 2.53125 Z M 16.484375 2.53125 " clip-rule="nonzero"/></clipPath><clipPath id="9d56aa8bac"><path d="M 11 2 L 26 2 L 26 15 L 11 15 Z M 11 2 " clip-rule="nonzero"/></clipPath><clipPath id="823b37d635"><path d="M 15.222656 1.816406 L 25.957031 7.902344 L 21.660156 15.476562 L 10.925781 9.390625 Z M 15.222656 1.816406 " clip-rule="nonzero"/></clipPath><clipPath id="fc33fe7dd5"><path d="M 15.222656 1.816406 L 25.777344 7.800781 L 21.382812 15.554688 L 10.828125 9.570312 Z M 15.222656 1.816406 " clip-rule="nonzero"/></clipPath><clipPath id="62cd15eaeb"><path d="M 16.484375 2.53125 L 24.515625 7.085938 C 25.214844 7.480469 25.457031 8.367188 25.0625 9.0625 L 22.15625 14.191406 C 21.757812 14.890625 20.875 15.132812 20.175781 14.738281 L 12.144531 10.183594 C 11.449219 9.789062 11.203125 8.902344 11.597656 8.207031 L 14.507812 3.078125 C 14.902344 2.382812 15.789062 2.136719 16.484375 2.53125 Z M 16.484375 2.53125 " clip-rule="nonzero"/></clipPath><clipPath id="b6896b2599"><path d="M 14 2 L 29.515625 2 L 29.515625 21 L 14 21 Z M 14 2 " clip-rule="nonzero"/></clipPath></defs><g clip-path="url(#ab73fa8189)"><g clip-path="url(#2d15048180)"><g clip-path="url(#215cbd60ac)"><path fill="#919191" d="M 11.632812 8.148438 L 22.195312 14.136719 L 14.777344 27.214844 L 4.21875 21.226562 Z M 11.632812 8.148438 " fill-opacity="1" fill-rule="nonzero"/></g></g></g><g clip-path="url(#698698150e)"><g clip-path="url(#f8c6debdd1)"><g clip-path="url(#36b562e315)"><g clip-path="url(#81c8e96104)"><path stroke-linecap="butt" transform="matrix(0.631376, 0.357993, -0.357993, 0.631376, 11.631568, 8.149151)" fill="none" stroke-linejoin="miter" d="M 0.00100673 -0.0017004 L 16.717839 -0.00190876 L 16.71938 20.710893 L 0.00254709 20.711102 Z M 0.00100673 -0.0017004 " stroke="#000000" stroke-width="4" stroke-opacity="1" stroke-miterlimit="4"/></g></g></g></g><g clip-path="url(#6142f362ac)"><g clip-path="url(#c1feb6df38)"><g clip-path="url(#42ebd27b88)"><path fill="#919191" d="M 15.222656 1.816406 L 25.78125 7.800781 L 21.4375 15.457031 L 10.882812 9.472656 Z M 15.222656 1.816406 " fill-opacity="1" fill-rule="nonzero"/></g></g></g><g clip-path="url(#9d56aa8bac)"><g clip-path="url(#823b37d635)"><g clip-path="url(#fc33fe7dd5)"><g clip-path="url(#62cd15eaeb)"><path stroke-linecap="butt" transform="matrix(0.631376, 0.357993, -0.357993, 0.631376, 15.222242, 1.816436)" fill="none" stroke-linejoin="miter" d="M 1.998461 -0.000982733 L 14.719324 0.000140917 C 15.825465 -0.00217044 16.718318 0.896 16.717975 1.99746 L 16.720204 10.11957 C 16.717833 11.228365 15.824344 12.118564 14.718203 12.120875 L 1.99734 12.119751 C 0.895881 12.119408 -0.00165383 11.223892 -0.00131063 10.122433 L 0.00114211 1.997668 C 0.00148532 0.896209 0.897002 -0.00132594 1.998461 -0.000982733 Z M 1.998461 -0.000982733 " stroke="#000000" stroke-width="4" stroke-opacity="1" stroke-miterlimit="4"/></g></g></g></g><path stroke-linecap="butt" transform="matrix(0.631376, 0.357993, -0.357993, 0.631376, 16.867932, 6.97197)" fill="none" stroke-linejoin="miter" d="M 0.000920246 0.996652 L 5.775895 1.001265 " stroke="#000000" stroke-width="2" stroke-opacity="1" stroke-miterlimit="4"/><path stroke-linecap="butt" transform="matrix(0.631376, 0.357993, -0.357993, 0.631376, 12.622993, 4.565075)" fill="none" stroke-linejoin="miter" d="M -0.0000247897 0.998211 L 2.494608 1.00054 " stroke="#000000" stroke-width="2" stroke-opacity="1" stroke-miterlimit="4"/><g clip-path="url(#b6896b2599)"><path stroke-linecap="butt" transform="matrix(0.631376, 0.357993, -0.357993, 0.631376, 23.184584, 10.553537)" fill="none" stroke-linejoin="miter" d="M 0.000942295 0.997376 L 2.495576 0.999705 " stroke="#000000" stroke-width="2" stroke-opacity="1" stroke-miterlimit="4"/></g></svg>