<svg xmlns="http://www.w3.org/2000/svg" xmlns:xlink="http://www.w3.org/1999/xlink" width="40" zoomAndPan="magnify" viewBox="0 0 30 30.000001" height="40" preserveAspectRatio="xMidYMid meet" version="1.0"><defs><clipPath id="c6306db9b0"><path d="M 7 9 L 22 9 L 22 27 L 7 27 Z M 7 9 " clip-rule="nonzero"/></clipPath><clipPath id="5540b360de"><path d="M 9.691406 9.644531 L 21.648438 11.742188 L 19.042969 26.597656 L 7.085938 24.5 Z M 9.691406 9.644531 " clip-rule="nonzero"/></clipPath><clipPath id="869d87f1dd"><path d="M 9.691406 9.644531 L 21.648438 11.742188 L 19.050781 26.558594 L 7.089844 24.460938 Z M 9.691406 9.644531 " clip-rule="nonzero"/></clipPath><clipPath id="579f788174"><path d="M 7 9 L 22 9 L 22 27 L 7 27 Z M 7 9 " clip-rule="nonzero"/></clipPath><clipPath id="53a39a3f6a"><path d="M 9.691406 9.644531 L 21.84375 11.777344 L 19.210938 26.789062 L 7.058594 24.65625 Z M 9.691406 9.644531 " clip-rule="nonzero"/></clipPath><clipPath id="68918a3308"><path d="M 9.691406 9.648438 L 21.644531 11.746094 L 19.019531 26.683594 L 7.070312 24.585938 Z M 9.691406 9.648438 " clip-rule="nonzero"/></clipPath><clipPath id="dbb5155ebc"><path d="M 9.691406 9.648438 L 21.644531 11.746094 L 19.042969 26.550781 L 7.09375 24.453125 Z M 9.691406 9.648438 " clip-rule="nonzero"/></clipPath><clipPath id="54fc42df01"><path d="M 9 2 L 23 2 L 23 14 L 9 14 Z M 9 2 " clip-rule="nonzero"/></clipPath><clipPath id="e901ab5e73"><path d="M 10.949219 2.476562 L 22.9375 4.578125 L 21.414062 13.25 L 9.429688 11.144531 Z M 10.949219 2.476562 " clip-rule="nonzero"/></clipPath><clipPath id="88af4fa8ef"><path d="M 12.273438 2.707031 L 21.585938 4.34375 C 21.933594 4.402344 22.246094 4.601562 22.453125 4.894531 C 22.65625 5.1875 22.738281 5.546875 22.675781 5.898438 L 21.617188 11.917969 C 21.558594 12.269531 21.359375 12.582031 21.066406 12.789062 C 20.773438 12.992188 20.414062 13.074219 20.0625 13.011719 L 10.753906 11.378906 C 10.402344 11.316406 10.089844 11.117188 9.882812 10.824219 C 9.679688 10.535156 9.597656 10.171875 9.660156 9.820312 L 10.71875 3.800781 C 10.777344 3.449219 10.976562 3.136719 11.269531 2.929688 C 11.5625 2.726562 11.921875 2.644531 12.273438 2.707031 Z M 12.273438 2.707031 " clip-rule="nonzero"/></clipPath><clipPath id="f84fd58459"><path d="M 9 2 L 23 2 L 23 14 L 9 14 Z M 9 2 " clip-rule="nonzero"/></clipPath><clipPath id="f00231777e"><path d="M 10.949219 2.476562 L 23.101562 4.609375 L 21.597656 13.1875 L 9.445312 11.054688 Z M 10.949219 2.476562 " clip-rule="nonzero"/></clipPath><clipPath id="3fe4a1234e"><path d="M 10.949219 2.476562 L 22.902344 4.574219 L 21.359375 13.351562 L 9.410156 11.253906 Z M 10.949219 2.476562 " clip-rule="nonzero"/></clipPath><clipPath id="c35653d5a1"><path d="M 12.273438 2.710938 L 21.578125 4.34375 C 21.929688 4.40625 22.242188 4.601562 22.445312 4.894531 C 22.648438 5.1875 22.730469 5.546875 22.667969 5.898438 L 21.613281 11.917969 C 21.550781 12.265625 21.351562 12.578125 21.0625 12.785156 C 20.769531 12.988281 20.410156 13.070312 20.058594 13.007812 L 10.75 11.375 C 10.402344 11.3125 10.089844 11.113281 9.882812 10.824219 C 9.679688 10.53125 9.597656 10.167969 9.660156 9.820312 L 10.71875 3.800781 C 10.777344 3.449219 10.976562 3.136719 11.269531 2.933594 C 11.558594 2.730469 11.921875 2.648438 12.273438 2.710938 Z M 12.273438 2.710938 " clip-rule="nonzero"/></clipPath><clipPath id="7a5d98f7d9"><path d="M 13 0 L 29.515625 0 L 29.515625 18 L 13 18 Z M 13 0 " clip-rule="nonzero"/></clipPath></defs><g clip-path="url(#c6306db9b0)"><g clip-path="url(#5540b360de)"><g clip-path="url(#869d87f1dd)"><path fill="#919191" d="M 9.691406 9.644531 L 21.648438 11.742188 L 19.050781 26.550781 L 7.09375 24.453125 Z M 9.691406 9.644531 " fill-opacity="1" fill-rule="nonzero"/></g></g></g><g clip-path="url(#579f788174)"><g clip-path="url(#53a39a3f6a)"><g clip-path="url(#68918a3308)"><g clip-path="url(#dbb5155ebc)"><path stroke-linecap="butt" transform="matrix(0.714882, 0.125452, -0.125452, 0.714882, 9.690771, 9.647851)" fill="none" stroke-linejoin="miter" d="M 0.0010015 0.000645149 L 16.721421 0.000714011 L 16.716606 20.710821 L 0.00148788 20.709822 Z M 0.0010015 0.000645149 " stroke="#000000" stroke-width="4" stroke-opacity="1" stroke-miterlimit="4"/></g></g></g></g><g clip-path="url(#54fc42df01)"><g clip-path="url(#e901ab5e73)"><g clip-path="url(#88af4fa8ef)"><path fill="#919191" d="M 10.949219 2.476562 L 22.902344 4.574219 L 21.382812 13.242188 L 9.429688 11.144531 Z M 10.949219 2.476562 " fill-opacity="1" fill-rule="nonzero"/></g></g></g><g clip-path="url(#f84fd58459)"><g clip-path="url(#f00231777e)"><g clip-path="url(#3fe4a1234e)"><g clip-path="url(#c35653d5a1)"><path stroke-linecap="butt" transform="matrix(0.714882, 0.125452, -0.125452, 0.714882, 10.949185, 2.47758)" fill="none" stroke-linejoin="miter" d="M 1.852637 0.00131617 L 14.868319 0.00127623 C 15.360288 0.00236962 15.830875 0.192997 16.176292 0.542195 C 16.521709 0.891394 16.718611 1.359545 16.717518 1.851514 L 16.719764 10.271429 C 16.717741 10.758096 16.521812 11.229614 16.178845 11.579402 C 15.829647 11.924819 15.361495 12.121721 14.869527 12.120627 L 1.848544 12.121597 C 1.361876 12.119574 0.890358 11.923645 0.540571 11.580678 C 0.195154 11.23148 -0.00267838 10.758028 -0.00065474 10.27136 L 0.0023994 1.850515 C -0.00180815 1.359476 0.194121 0.887959 0.543319 0.542542 C 0.887216 0.198055 1.360668 0.000222773 1.852637 0.00131617 Z M 1.852637 0.00131617 " stroke="#000000" stroke-width="4" stroke-opacity="1" stroke-miterlimit="4"/></g></g></g></g><path stroke-linecap="butt" transform="matrix(0.714882, 0.125452, -0.125452, 0.714882, 14.229049, 6.78242)" fill="none" stroke-linejoin="miter" d="M 0.00225192 0.997913 L 5.778371 1.000624 " stroke="#000000" stroke-width="2" stroke-opacity="1" stroke-miterlimit="4"/><path stroke-linecap="butt" transform="matrix(0.714882, 0.125452, -0.125452, 0.714882, 9.422674, 5.938968)" fill="none" stroke-linejoin="miter" d="M -0.000829706 0.998039 L 2.49705 1.002295 " stroke="#000000" stroke-width="2" stroke-opacity="1" stroke-miterlimit="4"/><g clip-path="url(#7a5d98f7d9)"><path stroke-linecap="butt" transform="matrix(0.714882, 0.125452, -0.125452, 0.714882, 21.381144, 8.037512)" fill="none" stroke-linejoin="miter" d="M -0.00206358 1.002477 L 2.494886 1.001432 " stroke="#000000" stroke-width="2" stroke-opacity="1" stroke-miterlimit="4"/></g></svg>