<svg xmlns="http://www.w3.org/2000/svg" xmlns:xlink="http://www.w3.org/1999/xlink" width="40" zoomAndPan="magnify" viewBox="0 0 30 30.000001" height="40" preserveAspectRatio="xMidYMid meet" version="1.0"><defs><clipPath id="7e8f42d29a"><path d="M 2 2 L 22 2 L 22 22 L 2 22 Z M 2 2 " clip-rule="nonzero"/></clipPath><clipPath id="1f9b628a2a"><path d="M 21.867188 12.339844 L 14.089844 21.664062 L 2.507812 12.007812 L 10.28125 2.679688 Z M 21.867188 12.339844 " clip-rule="nonzero"/></clipPath><clipPath id="0310fb1e98"><path d="M 21.867188 12.339844 L 14.089844 21.664062 L 2.539062 12.03125 L 10.3125 2.707031 Z M 21.867188 12.339844 " clip-rule="nonzero"/></clipPath><clipPath id="3ed51a18fe"><path d="M 2 2 L 22 2 L 22 22 L 2 22 Z M 2 2 " clip-rule="nonzero"/></clipPath><clipPath id="a7dd60e9f6"><path d="M 21.867188 12.339844 L 13.964844 21.816406 L 2.257812 12.054688 L 10.160156 2.578125 Z M 21.867188 12.339844 " clip-rule="nonzero"/></clipPath><clipPath id="651bb4f631"><path d="M 21.863281 12.335938 L 14.09375 21.65625 L 2.441406 11.945312 L 10.214844 2.625 Z M 21.863281 12.335938 " clip-rule="nonzero"/></clipPath><clipPath id="7cf85373f0"><path d="M 21.863281 12.335938 L 14.09375 21.65625 L 2.546875 12.03125 L 10.316406 2.710938 Z M 21.863281 12.335938 " clip-rule="nonzero"/></clipPath><clipPath id="a113212199"><path d="M 13 11 L 27 11 L 27 26 L 13 26 Z M 13 11 " clip-rule="nonzero"/></clipPath><clipPath id="30fd781320"><path d="M 27.457031 17 L 19.660156 26.347656 L 12.902344 20.710938 L 20.695312 11.363281 Z M 27.457031 17 " clip-rule="nonzero"/></clipPath><clipPath id="f865a23d45"><path d="M 26.527344 18.117188 L 20.609375 25.210938 C 20.097656 25.828125 19.183594 25.910156 18.566406 25.394531 L 14.035156 21.617188 C 13.421875 21.105469 13.335938 20.191406 13.851562 19.574219 L 19.765625 12.480469 C 20.28125 11.863281 21.195312 11.78125 21.8125 12.292969 L 26.339844 16.070312 C 26.957031 16.585938 27.039062 17.5 26.527344 18.117188 Z M 26.527344 18.117188 " clip-rule="nonzero"/></clipPath><clipPath id="0528f60ee1"><path d="M 13 11 L 27 11 L 27 26 L 13 26 Z M 13 11 " clip-rule="nonzero"/></clipPath><clipPath id="55a08d8436"><path d="M 27.457031 17 L 19.554688 26.476562 L 12.863281 20.898438 L 20.765625 11.421875 Z M 27.457031 17 " clip-rule="nonzero"/></clipPath><clipPath id="da410416ca"><path d="M 27.453125 17 L 19.683594 26.320312 L 12.839844 20.613281 L 20.609375 11.292969 Z M 27.453125 17 " clip-rule="nonzero"/></clipPath><clipPath id="382867e6cf"><path d="M 26.527344 18.113281 L 20.613281 25.207031 C 20.101562 25.820312 19.183594 25.902344 18.570312 25.390625 L 14.042969 21.613281 C 13.425781 21.101562 13.34375 20.1875 13.855469 19.570312 L 19.769531 12.480469 C 20.28125 11.863281 21.199219 11.78125 21.8125 12.296875 L 26.339844 16.070312 C 26.957031 16.582031 27.039062 17.5 26.527344 18.113281 Z M 26.527344 18.113281 " clip-rule="nonzero"/></clipPath><clipPath id="fa986a802a"><path d="M 10 9 L 29.515625 9 L 29.515625 29 L 10 29 Z M 10 9 " clip-rule="nonzero"/></clipPath><clipPath id="1de7da839a"><path d="M 15 5 L 29.515625 5 L 29.515625 24 L 15 24 Z M 15 5 " clip-rule="nonzero"/></clipPath><clipPath id="73cfce01e6"><path d="M 7 14 L 26 14 L 26 29.03125 L 7 29.03125 Z M 7 14 " clip-rule="nonzero"/></clipPath></defs><g clip-path="url(#7e8f42d29a)"><g clip-path="url(#1f9b628a2a)"><g clip-path="url(#0310fb1e98)"><path fill="#919191" d="M 21.867188 12.339844 L 14.089844 21.664062 L 2.542969 12.035156 L 10.320312 2.710938 Z M 21.867188 12.339844 " fill-opacity="1" fill-rule="nonzero"/></g></g></g><g clip-path="url(#3ed51a18fe)"><g clip-path="url(#a7dd60e9f6)"><g clip-path="url(#651bb4f631)"><g clip-path="url(#7cf85373f0)"><path stroke-linecap="butt" transform="matrix(-0.464804, 0.557452, -0.557452, -0.464804, 21.863417, 12.337525)" fill="none" stroke-linejoin="miter" d="M -0.00156006 0.00154469 L 16.716388 -0.000309316 L 16.719344 20.7109 L 0.00139519 20.712754 Z M -0.00156006 0.00154469 " stroke="#000000" stroke-width="4" stroke-opacity="1" stroke-miterlimit="4"/></g></g></g></g><g clip-path="url(#a113212199)"><g clip-path="url(#30fd781320)"><g clip-path="url(#f865a23d45)"><path fill="#919191" d="M 27.457031 17 L 19.683594 26.320312 L 12.925781 20.6875 L 20.695312 11.363281 Z M 27.457031 17 " fill-opacity="1" fill-rule="nonzero"/></g></g></g><g clip-path="url(#0528f60ee1)"><g clip-path="url(#55a08d8436)"><g clip-path="url(#da410416ca)"><g clip-path="url(#382867e6cf)"><path stroke-linecap="butt" transform="matrix(-0.464804, 0.557452, -0.557452, -0.464804, 27.454668, 16.999514)" fill="none" stroke-linejoin="miter" d="M 1.996783 -0.00141327 L 14.72147 -0.00216605 C 15.821943 -0.00178044 16.718693 0.897231 16.718308 1.997704 L 16.715724 10.121356 C 16.718785 11.225962 15.823907 12.119266 14.719301 12.122327 L 1.998747 12.119633 C 0.894141 12.122694 -0.0026096 11.223682 0.00190958 10.119763 L 0.000359336 1.999558 C -0.00270163 0.894952 0.89631 -0.00179888 1.996783 -0.00141327 Z M 1.996783 -0.00141327 " stroke="#000000" stroke-width="4" stroke-opacity="1" stroke-miterlimit="4"/></g></g></g></g><g clip-path="url(#fa986a802a)"><path stroke-linecap="butt" transform="matrix(-0.464804, 0.557452, -0.557452, -0.464804, 22.088353, 17.699862)" fill="none" stroke-linejoin="miter" d="M -0.00103083 1.000234 L 5.772833 1.00002 " stroke="#000000" stroke-width="2" stroke-opacity="1" stroke-miterlimit="4"/></g><g clip-path="url(#1de7da839a)"><path stroke-linecap="butt" transform="matrix(-0.464804, 0.557452, -0.557452, -0.464804, 25.213372, 13.951942)" fill="none" stroke-linejoin="miter" d="M 0.000918312 0.998643 L 2.496104 0.999332 " stroke="#000000" stroke-width="2" stroke-opacity="1" stroke-miterlimit="4"/></g><g clip-path="url(#73cfce01e6)"><path stroke-linecap="butt" transform="matrix(-0.464804, 0.557452, -0.557452, -0.464804, 17.438188, 23.27693)" fill="none" stroke-linejoin="miter" d="M 0.00201014 1.001607 L 2.493749 0.998163 " stroke="#000000" stroke-width="2" stroke-opacity="1" stroke-miterlimit="4"/></g></svg>