<svg xmlns="http://www.w3.org/2000/svg" xmlns:xlink="http://www.w3.org/1999/xlink" width="40" zoomAndPan="magnify" viewBox="0 0 30 30.000001" height="40" preserveAspectRatio="xMidYMid meet" version="1.0"><defs><clipPath id="51c587614f"><path d="M 8 9 L 24 9 L 24 27 L 8 27 Z M 8 9 " clip-rule="nonzero"/></clipPath><clipPath id="a62108c13c"><path d="M 8.3125 11.835938 L 20.238281 9.570312 L 23.054688 24.386719 L 11.125 26.652344 Z M 8.3125 11.835938 " clip-rule="nonzero"/></clipPath><clipPath id="557cd9f597"><path d="M 8.3125 11.835938 L 20.238281 9.570312 L 23.046875 24.347656 L 11.117188 26.613281 Z M 8.3125 11.835938 " clip-rule="nonzero"/></clipPath><clipPath id="a7c2152c24"><path d="M 8 9 L 24 9 L 24 27 L 8 27 Z M 8 9 " clip-rule="nonzero"/></clipPath><clipPath id="5dbd8a4d39"><path d="M 8.3125 11.835938 L 20.433594 9.535156 L 23.277344 24.507812 L 11.15625 26.808594 Z M 8.3125 11.835938 " clip-rule="nonzero"/></clipPath><clipPath id="ac8832365d"><path d="M 8.3125 11.839844 L 20.234375 9.574219 L 23.0625 24.476562 L 11.140625 26.742188 Z M 8.3125 11.839844 " clip-rule="nonzero"/></clipPath><clipPath id="596e08ecc6"><path d="M 8.3125 11.839844 L 20.234375 9.574219 L 23.039062 24.34375 L 11.117188 26.605469 Z M 8.3125 11.839844 " clip-rule="nonzero"/></clipPath><clipPath id="79d6b19c78"><path d="M 7 2 L 21 2 L 21 14 L 7 14 Z M 7 2 " clip-rule="nonzero"/></clipPath><clipPath id="17b866b3ca"><path d="M 6.953125 4.683594 L 18.910156 2.414062 L 20.554688 11.0625 L 8.597656 13.332031 Z M 6.953125 4.683594 " clip-rule="nonzero"/></clipPath><clipPath id="13093c91fe"><path d="M 8.378906 4.414062 L 17.457031 2.691406 C 18.242188 2.539062 19.003906 3.058594 19.152344 3.847656 L 20.253906 9.640625 C 20.402344 10.429688 19.886719 11.1875 19.097656 11.335938 L 10.023438 13.0625 C 9.234375 13.210938 8.476562 12.691406 8.324219 11.90625 L 7.226562 6.109375 C 7.074219 5.324219 7.59375 4.5625 8.378906 4.414062 Z M 8.378906 4.414062 " clip-rule="nonzero"/></clipPath><clipPath id="761c493733"><path d="M 7 2 L 21 2 L 21 14 L 7 14 Z M 7 2 " clip-rule="nonzero"/></clipPath><clipPath id="393ef90bf4"><path d="M 6.953125 4.683594 L 19.078125 2.382812 L 20.699219 10.941406 L 8.578125 13.242188 Z M 6.953125 4.683594 " clip-rule="nonzero"/></clipPath><clipPath id="7df3bdbb03"><path d="M 6.953125 4.6875 L 18.875 2.421875 L 20.539062 11.175781 L 8.617188 13.441406 Z M 6.953125 4.6875 " clip-rule="nonzero"/></clipPath><clipPath id="88c97628f4"><path d="M 8.378906 4.414062 L 17.449219 2.695312 C 18.238281 2.542969 18.996094 3.0625 19.148438 3.847656 L 20.246094 9.640625 C 20.394531 10.425781 19.878906 11.1875 19.089844 11.335938 L 10.019531 13.058594 C 9.234375 13.207031 8.472656 12.691406 8.324219 11.902344 L 7.226562 6.113281 C 7.074219 5.324219 7.59375 4.566406 8.378906 4.414062 Z M 8.378906 4.414062 " clip-rule="nonzero"/></clipPath><clipPath id="e7275678a1"><path d="M 0.484375 0 L 17 0 L 17 18 L 0.484375 18 Z M 0.484375 0 " clip-rule="nonzero"/></clipPath></defs><g clip-path="url(#51c587614f)"><g clip-path="url(#a62108c13c)"><g clip-path="url(#557cd9f597)"><path fill="#919191" d="M 8.3125 11.835938 L 20.238281 9.570312 L 23.042969 24.339844 L 11.117188 26.605469 Z M 8.3125 11.835938 " fill-opacity="1" fill-rule="nonzero"/></g></g></g><g clip-path="url(#a7c2152c24)"><g clip-path="url(#5dbd8a4d39)"><g clip-path="url(#ac8832365d)"><g clip-path="url(#596e08ecc6)"><path stroke-linecap="butt" transform="matrix(0.713066, -0.135397, 0.135397, 0.713066, 8.31259, 11.838456)" fill="none" stroke-linejoin="miter" d="M -0.000477792 0.00185515 L 16.719192 -0.000719508 L 16.719533 20.712066 L 0.000867672 20.709353 Z M -0.000477792 0.00185515 " stroke="#000000" stroke-width="4" stroke-opacity="1" stroke-miterlimit="4"/></g></g></g></g><g clip-path="url(#79d6b19c78)"><g clip-path="url(#17b866b3ca)"><g clip-path="url(#13093c91fe)"><path fill="#919191" d="M 6.953125 4.683594 L 18.878906 2.421875 L 20.519531 11.066406 L 8.597656 13.332031 Z M 6.953125 4.683594 " fill-opacity="1" fill-rule="nonzero"/></g></g></g><g clip-path="url(#761c493733)"><g clip-path="url(#393ef90bf4)"><g clip-path="url(#7df3bdbb03)"><g clip-path="url(#88c97628f4)"><path stroke-linecap="butt" transform="matrix(0.713066, -0.135397, 0.135397, 0.713066, 6.954558, 4.686395)" fill="none" stroke-linejoin="miter" d="M 1.997982 -0.00254141 L 14.717241 0.0022217 C 15.824465 -0.00118494 16.716705 0.896821 16.721115 1.998758 L 16.717987 10.122196 C 16.71711 11.223129 15.823387 12.12166 14.717167 12.119779 L 1.996904 12.120303 C 0.895971 12.119426 -0.00255969 11.225704 -0.000678859 10.119483 L 0.00144576 2.001333 C -0.00196088 0.894109 0.896045 0.00186922 1.997982 -0.00254141 Z M 1.997982 -0.00254141 " stroke="#000000" stroke-width="4" stroke-opacity="1" stroke-miterlimit="4"/></g></g></g></g><path stroke-linecap="butt" transform="matrix(0.713066, -0.135397, 0.135397, 0.713066, 11.544456, 7.553566)" fill="none" stroke-linejoin="miter" d="M 0.0000355872 0.998595 L 5.773826 0.9993 " stroke="#000000" stroke-width="2" stroke-opacity="1" stroke-miterlimit="4"/><g clip-path="url(#e7275678a1)"><path stroke-linecap="butt" transform="matrix(0.713066, -0.135397, 0.135397, 0.713066, 6.750296, 8.46388)" fill="none" stroke-linejoin="miter" d="M 0.00168844 0.998688 L 2.49383 1.000778 " stroke="#000000" stroke-width="2" stroke-opacity="1" stroke-miterlimit="4"/></g><path stroke-linecap="butt" transform="matrix(0.713066, -0.135397, 0.135397, 0.713066, 18.678374, 6.198979)" fill="none" stroke-linejoin="miter" d="M -0.00123529 0.997117 L 2.496194 1.000212 " stroke="#000000" stroke-width="2" stroke-opacity="1" stroke-miterlimit="4"/></svg>