<svg xmlns="http://www.w3.org/2000/svg" xmlns:xlink="http://www.w3.org/1999/xlink" width="40" zoomAndPan="magnify" viewBox="0 0 30 30.000001" height="40" preserveAspectRatio="xMidYMid meet" version="1.0"><defs><clipPath id="bf53f0f387"><path d="M 7 7 L 27 7 L 27 27 L 7 27 Z M 7 7 " clip-rule="nonzero"/></clipPath><clipPath id="717ec2e3e4"><path d="M 7.855469 15.453125 L 17.144531 7.636719 L 26.855469 19.175781 L 17.566406 26.992188 Z M 7.855469 15.453125 " clip-rule="nonzero"/></clipPath><clipPath id="499f000b56"><path d="M 7.855469 15.453125 L 17.144531 7.636719 L 26.832031 19.144531 L 17.539062 26.960938 Z M 7.855469 15.453125 " clip-rule="nonzero"/></clipPath><clipPath id="d8e406ad58"><path d="M 7 7 L 27 7 L 27 27 L 7 27 Z M 7 7 " clip-rule="nonzero"/></clipPath><clipPath id="bd34b927c0"><path d="M 7.855469 15.453125 L 17.296875 7.511719 L 27.109375 19.171875 L 17.671875 27.117188 Z M 7.855469 15.453125 " clip-rule="nonzero"/></clipPath><clipPath id="932cb27fd2"><path d="M 7.859375 15.457031 L 17.144531 7.644531 L 26.910156 19.25 L 17.625 27.0625 Z M 7.859375 15.457031 " clip-rule="nonzero"/></clipPath><clipPath id="56c1c93243"><path d="M 7.859375 15.457031 L 17.144531 7.644531 L 26.820312 19.144531 L 17.539062 26.957031 Z M 7.859375 15.457031 " clip-rule="nonzero"/></clipPath><clipPath id="bd370897fe"><path d="M 3 2 L 18 2 L 18 17 L 3 17 Z M 3 2 " clip-rule="nonzero"/></clipPath><clipPath id="b32d0ca8fc"><path d="M 3.167969 9.886719 L 12.480469 2.046875 L 18.148438 8.78125 L 8.835938 16.621094 Z M 3.167969 9.886719 " clip-rule="nonzero"/></clipPath><clipPath id="fb36e98973"><path d="M 4.28125 8.949219 L 11.347656 3.003906 C 11.960938 2.488281 12.878906 2.566406 13.394531 3.179688 L 17.191406 7.691406 C 17.707031 8.304688 17.628906 9.21875 17.015625 9.738281 L 9.949219 15.683594 C 9.335938 16.199219 8.417969 16.121094 7.902344 15.507812 L 4.105469 10.996094 C 3.589844 10.382812 3.667969 9.46875 4.28125 8.949219 Z M 4.28125 8.949219 " clip-rule="nonzero"/></clipPath><clipPath id="9c673675b8"><path d="M 3 2 L 18 2 L 18 17 L 3 17 Z M 3 2 " clip-rule="nonzero"/></clipPath><clipPath id="cbdff5e6ef"><path d="M 3.167969 9.886719 L 12.609375 1.941406 L 18.21875 8.605469 L 8.777344 16.550781 Z M 3.167969 9.886719 " clip-rule="nonzero"/></clipPath><clipPath id="61c1523145"><path d="M 3.171875 9.886719 L 12.457031 2.074219 L 18.191406 8.890625 L 8.910156 16.703125 Z M 3.171875 9.886719 " clip-rule="nonzero"/></clipPath><clipPath id="00cbaa501f"><path d="M 4.28125 8.953125 L 11.34375 3.007812 C 11.957031 2.492188 12.875 2.570312 13.390625 3.183594 L 17.183594 7.695312 C 17.699219 8.308594 17.621094 9.222656 17.007812 9.738281 L 9.945312 15.683594 C 9.332031 16.199219 8.417969 16.121094 7.902344 15.507812 L 4.105469 10.996094 C 3.589844 10.382812 3.667969 9.46875 4.28125 8.953125 Z M 4.28125 8.953125 " clip-rule="nonzero"/></clipPath><clipPath id="d1d822826b"><path d="M 0.484375 0 L 21 0 L 21 19 L 0.484375 19 Z M 0.484375 0 " clip-rule="nonzero"/></clipPath><clipPath id="77cdb2b4b4"><path d="M 0.484375 4 L 15 4 L 15 23 L 0.484375 23 Z M 0.484375 4 " clip-rule="nonzero"/></clipPath></defs><g clip-path="url(#bf53f0f387)"><g clip-path="url(#717ec2e3e4)"><g clip-path="url(#499f000b56)"><path fill="#919191" d="M 7.855469 15.453125 L 17.144531 7.636719 L 26.828125 19.140625 L 17.535156 26.957031 Z M 7.855469 15.453125 " fill-opacity="1" fill-rule="nonzero"/></g></g></g><g clip-path="url(#d8e406ad58)"><g clip-path="url(#bd34b927c0)"><g clip-path="url(#932cb27fd2)"><g clip-path="url(#56c1c93243)"><path stroke-linecap="butt" transform="matrix(0.555333, -0.467333, 0.467333, 0.555333, 7.858209, 15.456786)" fill="none" stroke-linejoin="miter" d="M 0.00101128 0.00129352 L 16.719837 0.00267234 L 16.717833 20.709289 L 0.00312518 20.711376 Z M 0.00101128 0.00129352 " stroke="#000000" stroke-width="4" stroke-opacity="1" stroke-miterlimit="4"/></g></g></g></g><g clip-path="url(#bd370897fe)"><g clip-path="url(#b32d0ca8fc)"><g clip-path="url(#fb36e98973)"><path fill="#919191" d="M 3.167969 9.886719 L 12.457031 2.070312 L 18.121094 8.804688 L 8.835938 16.621094 Z M 3.167969 9.886719 " fill-opacity="1" fill-rule="nonzero"/></g></g></g><g clip-path="url(#9c673675b8)"><g clip-path="url(#cbdff5e6ef)"><g clip-path="url(#61c1523145)"><g clip-path="url(#00cbaa501f)"><path stroke-linecap="butt" transform="matrix(0.555333, -0.467333, 0.467333, 0.555333, 3.170846, 9.886789)" fill="none" stroke-linejoin="miter" d="M 1.998834 0.000824864 L 14.718166 -0.00123425 C 15.822095 -0.000734341 16.720485 0.895977 16.719986 1.999905 L 16.715967 10.120875 C 16.715467 11.224803 15.822221 12.119076 14.718293 12.118576 L 1.998961 12.120635 C 0.895032 12.120135 0.000759595 11.226889 0.00125951 10.122961 L 0.00116031 1.998526 C 0.00166023 0.894598 0.894906 0.000324952 1.998834 0.000824864 Z M 1.998834 0.000824864 " stroke="#000000" stroke-width="4" stroke-opacity="1" stroke-miterlimit="4"/></g></g></g></g><g clip-path="url(#d1d822826b)"><path stroke-linecap="butt" transform="matrix(0.555333, -0.467333, 0.467333, 0.555333, 8.576834, 10.138061)" fill="none" stroke-linejoin="miter" d="M -0.00296527 1.000959 L 5.775811 0.996439 " stroke="#000000" stroke-width="2" stroke-opacity="1" stroke-miterlimit="4"/></g><g clip-path="url(#77cdb2b4b4)"><path stroke-linecap="butt" transform="matrix(0.555333, -0.467333, 0.467333, 0.555333, 4.84316, 13.280087)" fill="none" stroke-linejoin="miter" d="M -0.00246199 0.99886 L 2.495514 0.997813 " stroke="#000000" stroke-width="2" stroke-opacity="1" stroke-miterlimit="4"/></g><path stroke-linecap="butt" transform="matrix(0.555333, -0.467333, 0.467333, 0.555333, 14.132701, 5.462589)" fill="none" stroke-linejoin="miter" d="M 0.000182616 1.003052 L 2.494041 0.99854 " stroke="#000000" stroke-width="2" stroke-opacity="1" stroke-miterlimit="4"/></svg>