<svg xmlns="http://www.w3.org/2000/svg" xmlns:xlink="http://www.w3.org/1999/xlink" width="40" zoomAndPan="magnify" viewBox="0 0 30 30.000001" height="40" preserveAspectRatio="xMidYMid meet" version="1.0"><defs><clipPath id="0fdba6e3a3"><path d="M 8 7 L 28 7 L 28 26 L 8 26 Z M 8 7 " clip-rule="nonzero"/></clipPath><clipPath id="d187ca6711"><path d="M 8.628906 17.878906 L 14.621094 7.320312 L 27.738281 14.765625 L 21.746094 25.324219 Z M 8.628906 17.878906 " clip-rule="nonzero"/></clipPath><clipPath id="b042f7fc30"><path d="M 8.628906 17.878906 L 14.621094 7.320312 L 27.703125 14.742188 L 21.707031 25.300781 Z M 8.628906 17.878906 " clip-rule="nonzero"/></clipPath><clipPath id="91e84ad9ff"><path d="M 8 7 L 28 7 L 28 26 L 8 26 Z M 8 7 " clip-rule="nonzero"/></clipPath><clipPath id="39a76c0900"><path d="M 8.628906 17.878906 L 14.71875 7.148438 L 27.972656 14.671875 L 21.882812 25.402344 Z M 8.628906 17.878906 " clip-rule="nonzero"/></clipPath><clipPath id="27212b2921"><path d="M 8.628906 17.878906 L 14.621094 7.328125 L 27.8125 14.8125 L 21.820312 25.367188 Z M 8.628906 17.878906 " clip-rule="nonzero"/></clipPath><clipPath id="71f909dc99"><path d="M 8.628906 17.878906 L 14.621094 7.328125 L 27.695312 14.746094 L 21.703125 25.300781 Z M 8.628906 17.878906 " clip-rule="nonzero"/></clipPath><clipPath id="f893546c67"><path d="M 2 4 L 16 4 L 16 19 L 2 19 Z M 2 4 " clip-rule="nonzero"/></clipPath><clipPath id="79cfe92734"><path d="M 2.296875 14.285156 L 8.304688 3.699219 L 15.960938 8.046875 L 9.953125 18.628906 Z M 2.296875 14.285156 " clip-rule="nonzero"/></clipPath><clipPath id="eacdcfc052"><path d="M 3.015625 13.023438 L 7.574219 4.988281 C 7.96875 4.292969 8.855469 4.046875 9.554688 4.441406 L 14.683594 7.355469 C 15.378906 7.75 15.625 8.636719 15.230469 9.332031 L 10.667969 17.367188 C 10.273438 18.066406 9.386719 18.308594 8.691406 17.914062 L 3.558594 15.003906 C 2.863281 14.605469 2.617188 13.71875 3.015625 13.023438 Z M 3.015625 13.023438 " clip-rule="nonzero"/></clipPath><clipPath id="f985efbf53"><path d="M 2 4 L 16 4 L 16 19 L 2 19 Z M 2 4 " clip-rule="nonzero"/></clipPath><clipPath id="95763ac8ae"><path d="M 2.296875 14.285156 L 8.386719 3.554688 L 15.960938 7.855469 L 9.871094 18.585938 Z M 2.296875 14.285156 " clip-rule="nonzero"/></clipPath><clipPath id="85ca4bea45"><path d="M 2.300781 14.285156 L 8.289062 3.734375 L 16.039062 8.132812 L 10.050781 18.683594 Z M 2.300781 14.285156 " clip-rule="nonzero"/></clipPath><clipPath id="f0d91c0638"><path d="M 3.015625 13.023438 L 7.574219 4.996094 C 7.96875 4.296875 8.855469 4.054688 9.550781 4.449219 L 14.675781 7.359375 C 15.375 7.753906 15.617188 8.640625 15.222656 9.335938 L 10.664062 17.367188 C 10.269531 18.0625 9.386719 18.308594 8.6875 17.914062 L 3.5625 15.003906 C 2.863281 14.605469 2.621094 13.722656 3.015625 13.023438 Z M 3.015625 13.023438 " clip-rule="nonzero"/></clipPath><clipPath id="cc6fa4b4d1"><path d="M 0.484375 1 L 19 1 L 19 22 L 0.484375 22 Z M 0.484375 1 " clip-rule="nonzero"/></clipPath><clipPath id="99d1f41867"><path d="M 0.484375 7 L 15 7 L 15 26 L 0.484375 26 Z M 0.484375 7 " clip-rule="nonzero"/></clipPath></defs><g clip-path="url(#0fdba6e3a3)"><g clip-path="url(#d187ca6711)"><g clip-path="url(#b042f7fc30)"><path fill="#919191" d="M 8.628906 17.878906 L 14.621094 7.320312 L 27.695312 14.742188 L 21.703125 25.300781 Z M 8.628906 17.878906 " fill-opacity="1" fill-rule="nonzero"/></g></g></g><g clip-path="url(#91e84ad9ff)"><g clip-path="url(#39a76c0900)"><g clip-path="url(#27212b2921)"><g clip-path="url(#71f909dc99)"><path stroke-linecap="butt" transform="matrix(0.358263, -0.631223, 0.631223, 0.358263, 8.63054, 17.880063)" fill="none" stroke-linejoin="miter" d="M 0.000274925 -0.00274446 L 16.717737 0.00191916 L 16.720794 20.712692 L -0.00134856 20.710685 Z M 0.000274925 -0.00274446 " stroke="#000000" stroke-width="4" stroke-opacity="1" stroke-miterlimit="4"/></g></g></g></g><g clip-path="url(#f893546c67)"><g clip-path="url(#79cfe92734)"><g clip-path="url(#eacdcfc052)"><path fill="#919191" d="M 2.296875 14.285156 L 8.289062 3.730469 L 15.941406 8.074219 L 9.953125 18.628906 Z M 2.296875 14.285156 " fill-opacity="1" fill-rule="nonzero"/></g></g></g><g clip-path="url(#f985efbf53)"><g clip-path="url(#95763ac8ae)"><g clip-path="url(#85ca4bea45)"><g clip-path="url(#f0d91c0638)"><path stroke-linecap="butt" transform="matrix(0.358263, -0.631223, 0.631223, 0.358263, 2.29936, 14.286681)" fill="none" stroke-linejoin="miter" d="M 2.000778 -0.000854843 L 14.719615 0.0021683 C 15.825755 -0.000615885 16.718991 0.897173 16.719119 1.998632 L 16.717483 10.118716 C 16.720267 11.224856 15.822478 12.118092 14.721019 12.11822 L 1.997501 12.117853 C 0.896042 12.117981 0.000781231 11.227529 -0.00200295 10.121389 L -0.000366668 2.001306 C 0.00152975 0.892509 0.894638 0.00192934 2.000778 -0.000854843 Z M 2.000778 -0.000854843 " stroke="#000000" stroke-width="4" stroke-opacity="1" stroke-miterlimit="4"/></g></g></g></g><g clip-path="url(#cc6fa4b4d1)"><path stroke-linecap="butt" transform="matrix(0.358263, -0.631223, 0.631223, 0.358263, 7.455598, 12.643198)" fill="none" stroke-linejoin="miter" d="M 0.00114859 0.997947 L 5.776125 1.000092 " stroke="#000000" stroke-width="2" stroke-opacity="1" stroke-miterlimit="4"/></g><g clip-path="url(#99d1f41867)"><path stroke-linecap="butt" transform="matrix(0.358263, -0.631223, 0.631223, 0.358263, 5.046888, 16.887105)" fill="none" stroke-linejoin="miter" d="M 0.000201392 1.002383 L 2.492179 0.998964 " stroke="#000000" stroke-width="2" stroke-opacity="1" stroke-miterlimit="4"/></g><path stroke-linecap="butt" transform="matrix(0.358263, -0.631223, 0.631223, 0.358263, 11.039865, 6.328076)" fill="none" stroke-linejoin="miter" d="M -0.000856029 1.001732 L 2.493778 1.002995 " stroke="#000000" stroke-width="2" stroke-opacity="1" stroke-miterlimit="4"/></svg>